<svg width="1600" height="1600" viewBox="0 0 1600 1600" fill="none" xmlns="http://www.w3.org/2000/svg">
<rect width="1600" height="1600" rx="8" fill="#F8FAFC"/>
<path opacity="0.1" d="M396.215 915.88C396.212 917.084 395.732 918.239 394.88 919.091C394.028 919.943 392.874 920.422 391.669 920.425H385.221C386.427 920.425 387.583 920.904 388.436 921.757C389.288 922.609 389.767 923.765 389.767 924.971C389.767 926.177 389.288 927.333 388.436 928.185C387.583 929.038 386.427 929.517 385.221 929.517H394.302C395.508 929.517 396.664 929.996 397.516 930.848C398.369 931.701 398.848 932.857 398.848 934.063C398.848 935.268 398.369 936.424 397.516 937.277C396.664 938.129 395.508 938.608 394.302 938.608H351.628C380.783 1020.28 435.45 1091.68 507.323 1145.49C508.072 1144.97 508.96 1144.7 509.87 1144.69H562.452C563.658 1144.69 564.814 1145.17 565.666 1146.02C566.519 1146.88 566.998 1148.03 566.998 1149.24C566.998 1150.44 566.519 1151.6 565.666 1152.45C564.814 1153.31 563.658 1153.78 562.452 1153.78H556.004C557.21 1153.78 558.366 1154.26 559.218 1155.12C560.071 1155.97 560.55 1157.12 560.55 1158.33C560.55 1159.54 560.071 1160.69 559.218 1161.54C558.366 1162.4 557.21 1162.88 556.004 1162.88H565.096C566.301 1162.88 567.458 1163.36 568.31 1164.21C569.163 1165.06 569.641 1166.22 569.641 1167.42C569.641 1168.63 569.163 1169.78 568.31 1170.64C567.458 1171.49 566.301 1171.97 565.096 1171.97H546.408C626.931 1221.19 724.369 1250 829.341 1250C891.572 1250.12 953.378 1239.75 1012.16 1219.32C1019.97 1216.57 1027.69 1213.67 1035.32 1210.61C1048.6 1205.25 1061.57 1199.4 1074.23 1193.06C1079.69 1190.33 1085.09 1187.51 1090.43 1184.59L1090.67 1184.47L1091.88 1183.8L1095 1182.07C1101.32 1178.54 1107.53 1174.9 1113.65 1171.13L1117.41 1168.8C1120.59 1166.8 1123.74 1164.77 1126.86 1162.7C1133.08 1158.61 1139.19 1154.39 1145.19 1150.02L1147.34 1148.43L1149.07 1147.15C1157.15 1141.18 1165.01 1134.99 1172.65 1128.57L1172.97 1128.3C1176.71 1125.16 1180.4 1121.96 1184.03 1118.71L1184.35 1118.42C1196.2 1107.82 1207.5 1096.63 1218.21 1084.89C1234.28 1067.31 1248.92 1048.49 1262.01 1028.6H1241.06C1239.85 1028.6 1238.7 1028.12 1237.84 1027.27C1236.99 1026.42 1236.51 1025.26 1236.51 1024.05C1236.51 1022.85 1236.99 1021.69 1237.84 1020.84C1238.7 1019.99 1239.85 1019.51 1241.06 1019.51H1231.98C1230.77 1019.51 1229.62 1019.03 1228.76 1018.18C1227.91 1017.32 1227.43 1016.17 1227.43 1014.96C1227.43 1013.76 1227.91 1012.6 1228.76 1011.75C1229.62 1010.9 1230.77 1010.42 1231.98 1010.42H1238.43C1237.81 1010.45 1237.2 1010.35 1236.62 1010.14C1236.04 1009.92 1235.52 1009.59 1235.07 1009.17C1234.62 1008.74 1234.27 1008.23 1234.03 1007.67C1233.78 1007.1 1233.66 1006.49 1233.66 1005.88C1233.66 1005.26 1233.78 1004.65 1234.03 1004.09C1234.27 1003.52 1234.62 1003.01 1235.07 1002.58C1235.52 1002.16 1236.04 1001.83 1236.62 1001.62C1237.2 1001.4 1237.81 1001.31 1238.43 1001.34H1278.5C1311.81 941.456 1330.55 873.99 1330.55 802.601C1330.56 757.569 1323.03 712.853 1308.26 670.312H1219.07C1216.58 670.229 1214.22 669.181 1212.49 667.389C1210.75 665.597 1209.79 663.202 1209.79 660.71C1209.79 658.218 1210.75 655.823 1212.49 654.031C1214.22 652.24 1216.58 651.191 1219.07 651.108H1199.88C1197.33 651.108 1194.89 650.097 1193.09 648.297C1191.29 646.498 1190.28 644.057 1190.28 641.511C1190.28 638.966 1191.29 636.525 1193.09 634.726C1194.89 632.926 1197.33 631.915 1199.88 631.915H1213.59C1211.1 631.832 1208.74 630.783 1207.01 628.992C1205.27 627.2 1204.31 624.805 1204.31 622.313C1204.31 619.821 1205.27 617.426 1207.01 615.634C1208.74 613.842 1211.1 612.794 1213.59 612.711H1283.35C1203.34 460.573 1030.13 355.215 829.341 355.215C712.054 355.215 604.191 391.162 518.768 451.374H541.12C543.611 451.458 545.972 452.506 547.705 454.297C549.438 456.089 550.406 458.484 550.406 460.976C550.406 463.469 549.438 465.863 547.705 467.655C545.972 469.447 543.611 470.495 541.12 470.578H527.44C529.985 470.578 532.426 471.589 534.226 473.389C536.026 475.189 537.037 477.63 537.037 480.175C537.037 482.72 536.026 485.161 534.226 486.961C532.426 488.76 529.985 489.771 527.44 489.771H546.633C547.921 489.728 549.205 489.945 550.407 490.408C551.61 490.871 552.707 491.571 553.633 492.467C554.56 493.363 555.296 494.436 555.799 495.623C556.303 496.809 556.562 498.085 556.562 499.373C556.562 500.662 556.303 501.938 555.799 503.124C555.296 504.31 554.56 505.384 553.633 506.279C552.707 507.175 551.61 507.876 550.407 508.339C549.205 508.802 547.921 509.018 546.633 508.975H451.119C374.464 587.553 328.039 690.236 328.039 802.601C328.031 839.357 333.054 875.94 342.966 911.334H391.669C392.873 911.339 394.026 911.82 394.877 912.671C395.729 913.523 396.209 914.676 396.215 915.88V915.88Z" fill="#3B82F6"/>
<path d="M1103.33 723.885C1098.85 723.498 1083.24 710.914 1074.19 707.206C1070.02 705.498 1067.41 709.108 1065.79 713.493C1060.25 709.871 1054.17 705.863 1049.68 704.036C1049.09 703.764 1048.46 703.617 1047.82 703.604C1047.18 703.591 1046.54 703.713 1045.95 703.961C1040.12 706.486 1038.88 721.714 1038.88 721.714L1039.08 722.67C1036.22 724.916 1027.64 726.324 1023.93 726.571C1019.55 726.851 1013.77 727.496 1011.73 728.506C1009.69 729.516 985.938 735.233 972.279 739.403C958.62 743.572 923.34 764.345 923.34 764.345L889.897 771.868L885.201 770.965C883.707 765.592 876.872 765.646 868.866 767.816C855.863 765.431 842.892 763.571 838.701 765.474C850.683 759.37 865.416 749.687 865.244 739.005C865.008 724.433 836.164 744.873 825.246 753.137L824.311 753.846L824.064 752.922C824.064 752.922 816.101 756.027 799.121 755.619C782.142 755.211 774.587 763.195 773.061 763.991C771.535 764.786 755.996 770.019 754.792 770.224C753.857 770.374 727.056 772.803 713.526 774.017C694.816 772.33 667.799 775.274 666.316 778.068C664.619 781.292 644.05 793.028 644.05 793.028L637 794.876C637 794.876 636.162 797.025 635.195 799.776C634.507 798.729 633.924 797.617 633.454 796.456C632.389 793.604 631.555 790.672 630.961 787.687V787.687C630.875 787.289 630.778 786.891 630.681 786.494C630.681 786.397 630.627 786.3 630.606 786.204L630.348 785.204L630.284 784.957C629.934 783.669 629.51 782.403 629.015 781.163V781.163C628.526 779.92 627.914 778.729 627.189 777.606V777.606C626.163 775.965 624.773 774.582 623.126 773.566C620.429 771.921 617.173 771.535 614.035 771.18C611.392 770.797 608.717 770.682 606.05 770.836C603.761 771.051 601.515 771.674 599.226 771.814C595.54 772.029 591.919 770.987 588.265 770.428C584.611 769.869 580.635 769.88 577.518 771.921C574.896 773.662 573.381 776.596 571.694 779.251C568.528 784.236 564.461 788.587 559.701 792.082C556.477 794.414 552.812 796.66 551.641 800.421C550.47 804.182 552.092 807.825 552.812 811.533C554.403 819.7 551.834 828.663 554.693 836.25C554.757 836.422 554.822 836.583 554.897 836.755C555.058 837.163 555.23 837.582 555.434 837.98C555.615 838.349 555.816 838.708 556.036 839.055C556.248 839.398 556.485 839.725 556.745 840.033C556.998 840.341 557.283 840.622 557.594 840.871C557.901 841.127 558.237 841.347 558.594 841.526C559.911 842.091 561.363 842.259 562.774 842.01L563.548 841.902L564.257 841.774C565.092 841.625 565.917 841.427 566.729 841.182C567.537 840.945 568.31 840.602 569.029 840.162C569.679 839.755 570.231 839.21 570.645 838.566C571.059 837.921 571.326 837.192 571.425 836.433C571.53 835.761 571.581 835.081 571.576 834.401V833.929L571.737 834.423C573.813 840.235 577.528 845.322 582.433 849.069C587.338 852.815 593.223 855.06 599.377 855.533C605.531 856.006 611.69 854.686 617.11 851.733C622.53 848.78 626.979 844.321 629.918 838.893L631.133 838.485C635.034 837.237 639.03 836.31 643.083 835.712V835.712C643.524 836.609 644.019 837.477 644.566 838.313C657.795 858.936 699.136 859.645 699.136 859.645C699.136 859.645 744.819 857.872 748.355 856.948C751.891 856.023 762.433 857.635 765.474 860.462C768.515 863.288 781.916 864.459 786.269 857.152C790.621 849.844 795.618 851.252 795.618 851.252C796.52 850.029 797.291 848.714 797.918 847.329L800.83 847.469C808.514 847.877 820.851 848.673 823.516 849.747C827.449 851.327 844.342 851.209 853.477 847.362C862.611 843.514 891.09 827.201 891.09 827.201C891.09 827.201 908.8 821.828 911.949 820.753C915.097 819.679 923.34 811.812 923.34 811.812L940.319 805.236C940.319 805.236 958.255 795.564 965.821 794.554C973.386 793.543 980.242 786.924 980.242 786.924L1028.33 764.528C1031.56 764.057 1034.84 764.221 1038 765.011C1042.3 766.355 1070.3 762.25 1078.78 753.19C1078.78 753.19 1079.09 752.019 1079.51 750.106C1079.89 750.106 1080.29 750.031 1080.71 750.02C1082.52 750.418 1083.62 750.686 1083.62 750.686C1087.2 753.361 1091 755.71 1094.99 757.704C1100.7 760.444 1106.81 761.949 1108.96 757.253C1109.28 756.527 1109.5 755.76 1109.61 754.974C1115.13 758.897 1133.72 770.987 1134.25 756.586C1134.89 739.671 1107.8 724.272 1103.33 723.885Z" fill="url(#paint0_linear_207_647)"/>
<path d="M654.775 834.53C654.775 834.53 646.092 833.982 633.991 837.851C629.98 839.114 626.08 840.707 622.331 842.611C604.535 851.574 619.311 803.215 619.311 803.215C619.311 803.215 624.266 803.215 630.219 802.71C637.333 802.14 645.866 800.958 649.025 798.486C654.829 793.898 654.775 834.53 654.775 834.53Z" fill="#EFB7B9"/>
<path d="M864.933 739.734C865.148 753.254 841.162 765.15 829.77 770.04C826.224 771.555 823.881 772.393 823.881 772.393L821.399 756.832C821.399 756.832 822.957 755.575 825.472 753.673C836.294 745.516 864.696 725.356 864.933 739.734Z" fill="#EFB7B9"/>
<path opacity="0.1" d="M829.77 770.041C826.224 771.556 823.881 772.394 823.881 772.394L821.399 756.833C821.399 756.833 822.957 755.576 825.472 753.674L829.77 770.041Z" fill="black"/>
<path d="M707.669 774.951C707.669 774.951 754.695 770.728 755.931 770.523C757.167 770.319 772.492 765.15 773.996 764.387C775.501 763.624 782.948 755.715 799.702 756.123C816.455 756.531 824.311 753.469 824.311 753.469L829.846 774.532L718.147 787.202L707.669 774.951Z" fill="#E1E7EF"/>
<path opacity="0.05" d="M707.669 774.951C707.669 774.951 754.695 770.728 755.931 770.523C757.167 770.319 772.492 765.15 773.996 764.387C775.501 763.624 782.948 755.715 799.702 756.123C816.455 756.531 824.311 753.469 824.311 753.469L829.846 774.532L718.147 787.202L707.669 774.951Z" fill="black"/>
<path d="M1036.23 722.615C1036.23 722.615 1037.95 701.519 1046.87 705.173C1055.79 708.827 1071.2 721.293 1075.62 721.637C1080.03 721.981 1106.78 737.208 1106.15 753.876C1105.51 770.544 1080.36 751.179 1080.36 751.179C1080.36 751.179 1056.95 745.43 1049.39 748.019C1041.82 750.609 1036.23 722.615 1036.23 722.615Z" fill="#B07473"/>
<path opacity="0.1" d="M1106.15 753.909C1105.54 770.577 1080.36 751.212 1080.36 751.212C1080.36 751.212 1056.96 745.462 1049.39 748.052C1047.24 748.804 1045.09 746.977 1043.37 743.958C1039.98 738.241 1037.53 728.332 1036.64 724.356C1036.39 723.281 1036.27 722.647 1036.27 722.647C1036.27 722.647 1037.99 701.552 1046.91 705.217C1055.83 708.881 1071.23 721.283 1075.65 721.669C1080.07 722.056 1106.75 737.241 1106.15 753.909Z" fill="black"/>
<path opacity="0.1" d="M1057.89 735.103C1057.12 737.059 1051.72 740.164 1043.32 743.958C1039.94 738.241 1037.49 728.333 1036.6 724.356C1038.18 723.679 1039.29 722.895 1039.48 722.014C1040.1 719.069 1062.26 723.883 1057.89 735.103Z" fill="black"/>
<path d="M870.843 776.348L922.265 764.699C922.265 764.699 957.084 744.206 970.624 740.101C984.165 735.995 1007.52 730.354 1009.54 729.354C1011.56 728.355 1017.25 727.71 1021.56 727.441C1025.87 727.173 1036.82 725.292 1037.45 722.358C1038.07 719.424 1060.23 724.217 1055.85 735.437C1051.48 746.656 895.205 795.477 895.205 795.477L870.843 776.348Z" fill="#444053"/>
<path opacity="0.1" d="M870.843 776.348L922.265 764.699C922.265 764.699 957.084 744.206 970.624 740.101C984.165 735.995 1007.52 730.354 1009.54 729.354C1011.56 728.355 1017.25 727.71 1021.56 727.441C1025.87 727.173 1036.82 725.292 1037.45 722.358C1038.07 719.424 1060.23 724.217 1055.85 735.437C1051.48 746.656 895.205 795.477 895.205 795.477L870.843 776.348Z" fill="black"/>
<path d="M1130.31 757.004C1129.69 773.682 1104.51 754.307 1104.51 754.307C1104.51 754.307 1088.15 750.287 1078.37 750.481C1076.74 750.457 1075.11 750.682 1073.54 751.147C1066.02 753.737 1060.42 725.742 1060.42 725.742C1060.42 725.742 1060.53 724.388 1060.84 722.433C1061.75 716.629 1064.4 705.571 1071.07 708.301C1079.99 711.966 1095.39 724.421 1099.81 724.754C1104.22 725.087 1130.91 740.368 1130.31 757.004Z" fill="#B07473"/>
<path opacity="0.1" d="M1078.34 750.556C1076.7 750.533 1075.08 750.757 1073.51 751.222C1065.99 753.812 1060.39 725.818 1060.39 725.818C1060.39 725.818 1060.5 724.464 1060.81 722.508C1067.08 721.165 1072.34 719.961 1072.34 719.961C1083.86 720.466 1080.08 742.55 1078.34 750.556Z" fill="black"/>
<path d="M1075.54 753.684C1067.17 762.636 1039.53 766.677 1035.32 765.366C1032.21 764.583 1028.98 764.415 1025.81 764.871L978.372 786.955C978.372 786.955 971.602 793.468 964.144 794.478C956.686 795.488 938.987 805.009 938.987 805.009L922.244 811.457C922.244 811.457 914.066 819.334 910.971 820.409C907.876 821.484 890.391 826.76 890.391 826.76C890.391 826.76 862.311 842.88 853.294 846.652C844.278 850.424 827.632 850.553 823.741 848.995C821.119 847.92 808.944 847.157 801.378 846.749C797.789 846.566 795.231 846.469 795.231 846.469L786.376 779.508C786.376 779.508 793.694 777.885 802.936 775.704C816.359 772.544 833.843 768.181 838.69 765.903C846.889 762.045 890.595 773.425 898.612 773.587C906.629 773.748 947.519 760.691 947.519 760.691C947.519 760.691 998.608 731.869 1008.95 731.858C1019.28 731.847 1032.71 727.345 1041.05 726.195C1049.39 725.045 1070.21 720.273 1070.21 720.273C1084.28 720.918 1075.54 753.684 1075.54 753.684Z" fill="#444053"/>
<path opacity="0.1" d="M637.28 818.087C638.369 824.857 637.214 831.798 633.991 837.85C629.98 839.114 626.08 840.706 622.331 842.611C604.535 851.573 619.311 803.214 619.311 803.214C619.311 803.214 624.266 803.214 630.219 802.709C633.938 807.091 636.38 812.411 637.28 818.087V818.087Z" fill="black"/>
<path d="M636.216 818.259C637.453 826.016 635.75 833.955 631.44 840.521C627.13 847.088 620.524 851.808 612.915 853.758C605.306 855.708 597.243 854.747 590.306 851.063C583.369 847.379 578.058 841.237 575.412 833.842V833.842C575.219 833.304 575.047 832.767 574.875 832.219C574.477 830.901 574.169 829.559 573.951 828.2C572.69 820.216 574.543 812.053 579.127 805.397C583.711 798.74 590.676 794.098 598.585 792.43C606.493 790.761 614.74 792.193 621.623 796.429C628.506 800.666 633.499 807.384 635.571 815.196C635.842 816.205 636.057 817.227 636.216 818.259V818.259Z" fill="#EFB7B9"/>
<path opacity="0.1" d="M800.529 818.196C807.224 831.242 803.893 841.709 801.378 846.706C797.789 846.523 795.231 846.427 795.231 846.427L786.376 779.465C786.376 779.465 793.694 777.843 802.936 775.661L803.893 775.586C803.893 775.586 791.061 799.755 800.529 818.196Z" fill="black"/>
<path d="M797.348 818.7C806.816 837.152 796.274 850.434 796.274 850.434C796.274 850.434 791.341 849.048 787.053 856.259C782.765 863.47 769.515 862.32 766.538 859.483C763.561 856.646 753.137 855.088 749.655 856.012C746.174 856.936 701.114 858.666 701.114 858.666C701.114 858.666 660.342 857.978 647.285 837.635C646.748 836.812 646.26 835.958 645.823 835.078C645.823 835.078 635.517 815.798 635.195 811.5C635.055 809.823 635.732 806.922 636.592 803.977C637.957 799.41 639.816 794.778 639.816 794.778L646.769 792.951C646.769 792.951 667.058 781.378 668.724 778.207C670.39 775.037 705.047 771.695 722.66 775.231C740.274 778.766 773.566 778.315 773.566 778.315L800.776 776.026C800.776 776.026 787.934 800.259 797.348 818.7Z" fill="#E1E7EF"/>
<path opacity="0.1" d="M757.425 850.498C761.512 848.916 765.466 847.008 769.246 844.792C775.512 841.041 757.425 850.498 757.425 850.498Z" fill="black"/>
<path opacity="0.1" d="M657.902 806.289C657.902 806.289 671.292 831.178 699.921 822.989C728.549 814.8 749.989 820.84 749.989 820.84C749.989 820.84 776.769 819.303 781.701 817.25C789.1 814.456 796.657 812.102 804.333 810.201C808.557 809.341 814.446 807.643 819.11 806.192C823.774 804.741 848.695 799.497 848.695 799.497C848.695 799.497 840.818 781.894 844.633 779.648C844.633 779.648 820.034 784.656 819.755 782.872C819.475 781.088 791.911 780.003 789.665 781.798C787.419 783.592 762.798 785.366 760.649 786.172C758.5 786.978 720.457 790.32 720.457 790.32C720.457 790.32 663.383 767.118 657.902 806.289Z" fill="black"/>
<path d="M838.443 781.475C838.443 781.475 883.266 755.501 884.91 772.652C886.555 789.804 842.741 796.058 842.741 796.058L838.443 781.475Z" fill="#EFB7B9"/>
<path opacity="0.1" d="M658.439 802.935C658.439 802.935 671.873 827.824 700.458 819.635C729.044 811.447 750.537 817.486 750.537 817.486C750.537 817.486 777.317 815.949 782.239 813.897C789.64 811.101 797.201 808.746 804.882 806.847C809.094 805.987 814.994 804.289 819.658 802.839C824.322 801.388 849.243 796.144 849.243 796.144C849.243 796.144 841.355 778.541 845.17 776.295C845.17 776.295 820.582 781.303 820.292 779.519C820.002 777.735 792.448 776.65 790.202 778.444C787.956 780.239 763.336 782.012 761.186 782.818C759.037 783.624 721.027 786.955 721.027 786.955C721.027 786.955 663.931 763.765 658.439 802.935Z" fill="black"/>
<path d="M657.548 804.16C657.548 804.16 670.948 829.049 699.566 820.86C728.184 812.671 749.645 818.711 749.645 818.711C749.645 818.711 776.425 817.174 781.347 815.121C788.748 812.322 796.309 809.964 803.99 808.061C808.202 807.212 814.102 805.503 818.766 804.053C823.43 802.602 848.351 797.368 848.351 797.368C848.351 797.368 840.463 779.755 844.278 777.52C844.278 777.52 819.69 782.527 819.4 780.743C819.11 778.96 791.556 777.874 789.31 779.669C787.064 781.463 762.498 783.237 760.295 784.053C758.092 784.87 720.114 788.169 720.114 788.169C720.114 788.169 663.039 764.989 657.548 804.16Z" fill="#E1E7EF"/>
<path opacity="0.1" d="M750.977 798.638C750.558 797.488 757.78 798.036 772.03 795.285C786.279 792.534 810.266 785.957 810.266 785.957C810.266 785.957 754.18 807.321 750.977 798.638Z" fill="black"/>
<path opacity="0.1" d="M696.031 790.727C696.031 790.727 696.708 792.661 689.755 796.852Z" fill="black"/>
<path opacity="0.1" d="M710.624 793.543C711.078 795.421 710.808 797.402 709.868 799.09C708.928 800.778 707.387 802.051 705.552 802.656" fill="black"/>
<path opacity="0.1" d="M648.091 836.452L653.636 841.599C653.636 841.599 659.589 844.823 660.223 846.543C660.857 848.262 672.947 847.951 672.947 847.951L686.918 856.763L680.986 848.488C683.34 849.057 685.792 849.09 688.162 848.586C690.531 848.082 692.757 847.053 694.677 845.576C701.479 840.503 714.977 827.307 714.977 827.307L739.339 808.35L739.747 796.131L720.576 793.025L675.956 838.225L665.844 839.654L655.097 838.461L648.091 836.452Z" fill="black"/>
<path d="M646.866 835.562L652.411 840.71C652.411 840.71 658.354 843.934 658.998 845.653C659.643 847.373 671.733 847.061 671.733 847.061L685.703 855.873L679.771 847.598C682.124 848.168 684.575 848.201 686.943 847.697C689.31 847.193 691.535 846.164 693.452 844.686C700.265 839.614 713.762 826.417 713.762 826.417L738.157 807.514L738.565 795.295L719.394 792.189L674.721 837.389L664.608 838.818L653.862 837.626L646.866 835.562Z" fill="#67647E"/>
<path opacity="0.1" d="M661.76 832.874L649.531 838.409C648.993 837.584 648.509 836.727 648.08 835.84C648.08 835.84 637.763 816.572 637.441 812.263C637.301 810.586 637.978 807.685 638.849 804.74L661.76 832.874Z" fill="black"/>
<path d="M659.471 832.154L647.242 837.677C646.705 836.854 646.217 836 645.78 835.12C645.78 835.12 635.474 815.841 635.152 811.542C635.012 809.866 635.689 806.964 636.549 804.02L659.471 832.154Z" fill="#E1E7EF"/>
<path d="M635.571 815.187C635.065 815.849 634.419 816.392 633.68 816.777C631.777 817.648 629.564 816.777 627.479 816.874C625.394 816.971 623.288 818.11 621.128 818.282C619.605 818.304 618.086 818.116 616.614 817.723C613.766 817.132 610.671 816.799 608.017 818.088C605.363 819.378 603.718 822.86 605.266 825.321C603.579 827.696 600.301 828.459 597.41 828.061C590.64 827.104 584.966 821.28 578.067 825.793C575.068 827.782 575.262 830.855 575.326 833.832C575.133 833.294 574.961 832.757 574.789 832.209C574.391 830.892 574.083 829.549 573.865 828.19C572.604 820.206 574.457 812.044 579.041 805.387C583.625 798.731 590.59 794.089 598.499 792.42C606.407 790.751 614.654 792.183 621.537 796.42C628.42 800.656 633.413 807.374 635.485 815.187H635.571Z" fill="url(#paint1_linear_207_647)"/>
<path d="M572.736 839.483C571.283 840.308 569.685 840.848 568.029 841.074C566.189 841.597 564.228 841.51 562.441 840.826C561.06 840.038 559.971 838.824 559.335 837.366C555.359 829.478 558.433 819.892 556.745 811.22C556.036 807.566 554.478 803.805 555.585 800.258C556.692 796.712 560.399 794.337 563.526 792.037C568.215 788.584 572.223 784.292 575.348 779.378C577.013 776.756 578.507 773.865 581.086 772.156C584.117 770.136 588.05 770.136 591.65 770.684C595.25 771.232 598.818 772.253 602.461 772.038C604.718 771.909 606.931 771.297 609.188 771.082C611.819 770.923 614.459 771.038 617.065 771.426C620.16 771.77 623.363 772.156 626.028 773.768C630.724 776.605 632.551 782.366 633.776 787.739C635.001 793.112 636.237 798.894 640.385 802.472C641.067 802.911 641.587 803.56 641.868 804.321C641.89 804.768 641.818 805.215 641.657 805.633C641.496 806.052 641.249 806.432 640.933 806.749L636.033 813.262C635.396 814.268 634.522 815.102 633.486 815.69C631.595 816.572 629.37 815.69 627.285 815.776C625.2 815.862 623.105 817.034 620.934 817.195C619.411 817.223 617.891 817.035 616.421 816.636C613.573 816.045 610.478 815.712 607.877 817.001C605.277 818.291 603.579 821.773 605.126 824.234C603.428 826.609 600.15 827.382 597.27 826.974C590.489 826.028 584.815 820.193 577.927 824.707C572.339 828.446 578.045 836.119 572.736 839.483Z" fill="#585268"/>
<g opacity="0.1">
<path opacity="0.1" d="M632.111 784.505C633.056 788.599 634.002 792.973 636.259 796.401C635.213 793.605 634.394 790.73 633.809 787.804C633.145 784.279 631.88 780.895 630.069 777.799C630.934 779.974 631.617 782.217 632.111 784.505V784.505Z" fill="black"/>
<path opacity="0.1" d="M640.407 802.495L640.074 802.184C639.868 802.666 639.597 803.118 639.268 803.527L634.367 810.039C633.728 811.044 632.854 811.877 631.82 812.468C629.929 813.349 627.705 812.468 625.62 812.554C623.535 812.64 621.439 813.811 619.269 813.972C617.745 814 616.226 813.812 614.755 813.414C611.907 812.823 608.812 812.489 606.158 813.779C603.504 815.069 601.859 818.55 603.407 821.011C601.709 823.386 598.442 824.16 595.551 823.752C588.781 822.806 583.107 816.971 576.208 821.484C570.566 825.203 576.272 832.876 570.952 836.239C569.503 837.065 567.909 837.605 566.256 837.83C564.386 838.184 562.366 838.431 560.668 837.582C559.806 837.126 559.068 836.466 558.519 835.659C558.732 836.242 558.98 836.813 559.26 837.368C559.896 838.825 560.985 840.039 562.366 840.828C564.153 841.512 566.114 841.599 567.954 841.075C569.61 840.849 571.208 840.309 572.661 839.485C577.97 836.121 572.264 828.448 577.916 824.73C584.762 820.216 590.436 826.051 597.26 826.997C600.14 827.406 603.418 826.632 605.115 824.257C603.568 821.796 605.255 818.314 607.867 817.024C610.478 815.735 613.562 816.068 616.41 816.659C617.881 817.058 619.4 817.246 620.924 817.218C623.073 817.057 625.104 815.896 627.275 815.799C629.445 815.703 631.573 816.595 633.475 815.713C634.511 815.126 635.386 814.291 636.022 813.285L640.923 806.772C641.239 806.455 641.485 806.075 641.646 805.657C641.807 805.238 641.879 804.791 641.858 804.344C641.585 803.588 641.077 802.939 640.407 802.495V802.495Z" fill="black"/>
</g>
<path opacity="0.1" d="M891.52 788.277C891.52 788.277 899.912 803.322 898.129 805.816C896.345 808.309 891.52 788.277 891.52 788.277Z" fill="black"/>
<path opacity="0.1" d="M919.116 783.871C919.116 783.871 924.404 793.124 923.329 794.961Z" fill="black"/>
<path opacity="0.1" d="M950.797 762.475C950.797 762.475 956.912 766.773 954.644 769.567Z" fill="black"/>
<path opacity="0.1" d="M956.955 760.121C956.955 760.121 964.724 769.621 962.145 772.211Z" fill="black"/>
<path opacity="0.1" d="M1063.8 734.082C1063.8 734.082 1064.98 749.976 1069.65 748.622C1074.33 747.268 1063.8 734.082 1063.8 734.082Z" fill="black"/>
<path d="M1025.59 1126.92C1025.59 1126.92 1032.12 1104.77 1024.37 1088.47C1021.07 1081.65 1020.07 1073.94 1021.54 1066.5C1022.26 1062.98 1023.3 1059.54 1024.65 1056.21" stroke="#535461" stroke-width="2" stroke-miterlimit="10"/>
<path d="M1019.82 1045.92C1019.82 1048.63 1024.74 1056.51 1024.74 1056.51C1024.74 1056.51 1029.65 1048.63 1029.65 1045.92C1029.6 1044.66 1029.05 1043.47 1028.14 1042.59C1027.22 1041.72 1026 1041.23 1024.74 1041.23C1023.47 1041.23 1022.26 1041.72 1021.34 1042.59C1020.42 1043.47 1019.88 1044.66 1019.82 1045.92V1045.92Z" fill="#3B82F6"/>
<path d="M1011.7 1060.96C1013.18 1063.24 1021.58 1067.17 1021.58 1067.17C1021.58 1067.17 1021.42 1057.89 1019.95 1055.62C1019.24 1054.52 1018.12 1053.76 1016.84 1053.49C1015.56 1053.22 1014.23 1053.46 1013.14 1054.18C1012.04 1054.89 1011.28 1056.01 1011.01 1057.28C1010.74 1058.56 1010.98 1059.9 1011.7 1060.99V1060.96Z" fill="#3B82F6"/>
<path d="M1012.05 1086.65C1014.48 1087.88 1023.72 1087.03 1023.72 1087.03C1023.72 1087.03 1018.91 1079.1 1016.48 1077.87C1015.32 1077.36 1014.01 1077.3 1012.82 1077.73C1011.63 1078.15 1010.65 1079.02 1010.08 1080.15C1009.51 1081.28 1009.39 1082.59 1009.76 1083.8C1010.13 1085.01 1010.95 1086.03 1012.05 1086.65Z" fill="#3B82F6"/>
<path d="M1016.71 1106.03C1018.85 1107.64 1028.14 1108.37 1028.14 1108.37C1028.14 1108.37 1024.73 1099.77 1022.55 1098.13C1021.5 1097.35 1020.19 1097.03 1018.9 1097.22C1017.61 1097.41 1016.45 1098.11 1015.68 1099.16C1014.9 1100.2 1014.58 1101.52 1014.77 1102.81C1014.96 1104.09 1015.66 1105.25 1016.71 1106.03V1106.03Z" fill="#3B82F6"/>
<path d="M1031.88 1067.7C1029.93 1069.59 1020.86 1071.54 1020.86 1071.54C1020.86 1071.54 1023.08 1062.54 1025.03 1060.65C1025.97 1059.74 1027.23 1059.24 1028.53 1059.26C1029.83 1059.28 1031.07 1059.81 1031.98 1060.75C1032.89 1061.68 1033.39 1062.94 1033.37 1064.24C1033.35 1065.55 1032.81 1066.79 1031.88 1067.7Z" fill="#3B82F6"/>
<path d="M1037.05 1090.44C1034.62 1091.65 1025.38 1090.81 1025.38 1090.81C1025.38 1090.81 1030.19 1082.88 1032.62 1081.66C1033.78 1081.14 1035.09 1081.09 1036.28 1081.51C1037.47 1081.94 1038.45 1082.8 1039.02 1083.93C1039.59 1085.06 1039.71 1086.37 1039.34 1087.58C1038.97 1088.79 1038.15 1089.81 1037.05 1090.44V1090.44Z" fill="#3B82F6"/>
<path d="M1039.01 1113.22C1036.87 1114.83 1027.58 1115.56 1027.58 1115.56C1027.58 1115.56 1030.99 1106.96 1033.17 1105.31C1033.69 1104.89 1034.28 1104.59 1034.92 1104.41C1035.56 1104.23 1036.23 1104.18 1036.88 1104.26C1037.54 1104.35 1038.18 1104.56 1038.75 1104.9C1039.32 1105.24 1039.82 1105.68 1040.21 1106.22C1040.61 1106.75 1040.89 1107.36 1041.04 1108C1041.2 1108.65 1041.22 1109.32 1041.11 1109.97C1040.99 1110.63 1040.75 1111.25 1040.39 1111.81C1040.03 1112.37 1039.56 1112.85 1039.01 1113.22V1113.22Z" fill="#3B82F6"/>
<path d="M1184.81 1104.36C1184.81 1104.36 1191.34 1082.21 1183.59 1065.91C1180.29 1059.09 1179.3 1051.37 1180.76 1043.93C1181.48 1040.41 1182.52 1036.96 1183.87 1033.63" stroke="#535461" stroke-width="2" stroke-miterlimit="10"/>
<path d="M1179.04 1023.37C1179.04 1026.07 1183.96 1033.95 1183.96 1033.95C1183.96 1033.95 1188.87 1026.07 1188.87 1023.37C1188.91 1022.7 1188.8 1022.04 1188.57 1021.41C1188.34 1020.79 1187.98 1020.22 1187.52 1019.74C1187.06 1019.26 1186.51 1018.87 1185.89 1018.61C1185.28 1018.35 1184.62 1018.21 1183.96 1018.21C1183.29 1018.21 1182.63 1018.35 1182.02 1018.61C1181.41 1018.87 1180.86 1019.26 1180.4 1019.74C1179.94 1020.22 1179.58 1020.79 1179.35 1021.41C1179.11 1022.04 1179.01 1022.7 1179.04 1023.37V1023.37Z" fill="#3B82F6"/>
<path d="M1170.92 1038.4C1172.4 1040.68 1180.8 1044.61 1180.8 1044.61C1180.8 1044.61 1180.65 1035.34 1179.17 1033.06C1178.82 1032.52 1178.36 1032.05 1177.83 1031.69C1177.29 1031.32 1176.69 1031.06 1176.06 1030.93C1175.43 1030.79 1174.78 1030.79 1174.14 1030.91C1173.5 1031.02 1172.9 1031.27 1172.36 1031.62C1171.81 1031.97 1171.35 1032.43 1170.98 1032.96C1170.62 1033.5 1170.36 1034.1 1170.23 1034.73C1170.09 1035.36 1170.08 1036.01 1170.2 1036.65C1170.32 1037.28 1170.56 1037.89 1170.92 1038.43V1038.4Z" fill="#3B82F6"/>
<path d="M1171.28 1064.08C1173.7 1065.31 1182.94 1064.47 1182.94 1064.47C1182.94 1064.47 1178.13 1056.53 1175.7 1055.32C1175.12 1055 1174.49 1054.81 1173.83 1054.75C1173.18 1054.69 1172.52 1054.76 1171.9 1054.96C1171.27 1055.15 1170.69 1055.47 1170.19 1055.9C1169.69 1056.32 1169.28 1056.84 1168.99 1057.43C1168.69 1058.02 1168.52 1058.66 1168.47 1059.31C1168.43 1059.97 1168.51 1060.62 1168.73 1061.24C1168.94 1061.86 1169.28 1062.43 1169.72 1062.92C1170.16 1063.41 1170.69 1063.81 1171.28 1064.08V1064.08Z" fill="#3B82F6"/>
<path d="M1175.88 1083.47C1178.03 1085.08 1187.32 1085.82 1187.32 1085.82C1187.32 1085.82 1183.91 1077.22 1181.73 1075.56C1180.68 1074.85 1179.39 1074.57 1178.14 1074.79C1176.89 1075 1175.76 1075.69 1175.01 1076.71C1174.25 1077.73 1173.92 1079.01 1174.09 1080.27C1174.25 1081.53 1174.89 1082.68 1175.88 1083.47V1083.47Z" fill="#3B82F6"/>
<path d="M1191.12 1045.14C1189.17 1047.03 1180.1 1048.99 1180.1 1048.99C1180.1 1048.99 1182.33 1039.98 1184.27 1038.09C1185.21 1037.18 1186.47 1036.68 1187.77 1036.7C1189.07 1036.72 1190.31 1037.26 1191.22 1038.19C1192.13 1039.13 1192.63 1040.38 1192.61 1041.69C1192.59 1042.99 1192.05 1044.23 1191.12 1045.14V1045.14Z" fill="#3B82F6"/>
<path d="M1196.3 1067.87C1193.87 1069.09 1184.63 1068.24 1184.63 1068.24C1184.63 1068.24 1189.45 1060.31 1191.87 1059.1C1193.04 1058.51 1194.38 1058.41 1195.62 1058.82C1196.86 1059.22 1197.88 1060.11 1198.47 1061.27C1199.06 1062.43 1199.16 1063.78 1198.75 1065.02C1198.34 1066.25 1197.46 1067.28 1196.3 1067.87V1067.87Z" fill="#3B82F6"/>
<path d="M1198.23 1090.65C1196.09 1092.26 1186.8 1092.99 1186.8 1092.99C1186.8 1092.99 1190.21 1084.4 1192.39 1082.75C1192.91 1082.37 1193.5 1082.09 1194.12 1081.93C1194.75 1081.78 1195.4 1081.75 1196.04 1081.84C1196.68 1081.94 1197.29 1082.16 1197.84 1082.49C1198.39 1082.82 1198.88 1083.26 1199.26 1083.78C1199.64 1084.3 1199.92 1084.89 1200.08 1085.51C1200.23 1086.14 1200.27 1086.79 1200.17 1087.43C1200.08 1088.06 1199.86 1088.68 1199.52 1089.23C1199.19 1089.78 1198.75 1090.27 1198.23 1090.65V1090.65Z" fill="#3B82F6"/>
<path d="M1059.39 1102.21C1059.39 1102.21 1065.91 1080.06 1058.16 1063.76C1054.87 1056.94 1053.88 1049.22 1055.34 1041.79C1056.06 1038.27 1057.1 1034.82 1058.44 1031.49" stroke="#535461" stroke-width="2" stroke-miterlimit="10"/>
<path d="M1053.62 1021.22C1053.62 1023.93 1058.54 1031.8 1058.54 1031.8C1058.54 1031.8 1063.45 1023.93 1063.45 1021.22C1063.39 1019.95 1062.85 1018.76 1061.93 1017.89C1061.02 1017.01 1059.8 1016.53 1058.54 1016.53C1057.27 1016.53 1056.05 1017.01 1055.14 1017.89C1054.22 1018.76 1053.68 1019.95 1053.62 1021.22V1021.22Z" fill="#3B82F6"/>
<path d="M1045.5 1036.25C1046.98 1038.53 1055.38 1042.46 1055.38 1042.46C1055.38 1042.46 1055.23 1033.19 1053.75 1030.91C1053.04 1029.82 1051.92 1029.05 1050.64 1028.78C1049.36 1028.51 1048.03 1028.76 1046.94 1029.47C1045.84 1030.18 1045.07 1031.3 1044.8 1032.58C1044.53 1033.86 1044.78 1035.19 1045.5 1036.28V1036.25Z" fill="#3B82F6"/>
<path d="M1045.85 1061.95C1048.27 1063.17 1057.51 1062.32 1057.51 1062.32C1057.51 1062.32 1052.69 1054.39 1050.27 1053.17C1049.69 1052.88 1049.06 1052.7 1048.42 1052.66C1047.77 1052.61 1047.13 1052.69 1046.52 1052.89C1045.9 1053.09 1045.34 1053.41 1044.85 1053.84C1044.36 1054.26 1043.96 1054.77 1043.67 1055.35C1043.38 1055.92 1043.2 1056.55 1043.16 1057.2C1043.11 1057.84 1043.19 1058.49 1043.39 1059.1C1043.59 1059.71 1043.92 1060.28 1044.34 1060.77C1044.76 1061.26 1045.27 1061.66 1045.85 1061.95Z" fill="#3B82F6"/>
<path d="M1050.5 1081.32C1052.65 1082.93 1061.94 1083.66 1061.94 1083.66C1061.94 1083.66 1058.53 1075.07 1056.35 1073.42C1055.83 1073.04 1055.24 1072.76 1054.62 1072.61C1053.99 1072.45 1053.34 1072.42 1052.7 1072.51C1052.06 1072.61 1051.45 1072.83 1050.9 1073.16C1050.34 1073.49 1049.86 1073.93 1049.48 1074.45C1049.09 1074.97 1048.81 1075.56 1048.66 1076.18C1048.5 1076.81 1048.47 1077.46 1048.57 1078.1C1048.66 1078.74 1048.88 1079.35 1049.21 1079.9C1049.55 1080.46 1049.98 1080.94 1050.5 1081.32V1081.32Z" fill="#3B82F6"/>
<path d="M1065.7 1042.99C1063.75 1044.88 1054.68 1046.84 1054.68 1046.84C1054.68 1046.84 1056.91 1037.83 1058.85 1035.94C1059.79 1035.03 1061.04 1034.53 1062.35 1034.55C1063.65 1034.57 1064.89 1035.11 1065.8 1036.04C1066.71 1036.98 1067.21 1038.23 1067.19 1039.54C1067.17 1040.84 1066.63 1042.08 1065.7 1042.99V1042.99Z" fill="#3B82F6"/>
<path d="M1070.85 1065.73C1068.42 1066.94 1059.18 1066.1 1059.18 1066.1C1059.18 1066.1 1064 1058.17 1066.42 1056.95C1067.57 1056.43 1068.88 1056.38 1070.08 1056.8C1071.27 1057.23 1072.25 1058.1 1072.82 1059.23C1073.39 1060.36 1073.5 1061.66 1073.14 1062.87C1072.77 1064.08 1071.95 1065.11 1070.85 1065.73V1065.73Z" fill="#3B82F6"/>
<path d="M1072.81 1088.51C1070.66 1090.12 1061.38 1090.85 1061.38 1090.85C1061.38 1090.85 1064.78 1082.26 1066.97 1080.6C1067.48 1080.19 1068.08 1079.88 1068.72 1079.7C1069.36 1079.52 1070.02 1079.47 1070.68 1079.55C1071.34 1079.64 1071.97 1079.86 1072.55 1080.19C1073.12 1080.53 1073.62 1080.98 1074.01 1081.51C1074.4 1082.04 1074.69 1082.65 1074.84 1083.3C1074.99 1083.94 1075.02 1084.61 1074.9 1085.27C1074.79 1085.92 1074.55 1086.54 1074.19 1087.1C1073.83 1087.66 1073.36 1088.14 1072.81 1088.51V1088.51Z" fill="#3B82F6"/>
<path d="M1172.66 1125.78C1172.66 1126.73 1172.66 1127.66 1172.66 1128.57L1172.98 1128.31C1176.72 1125.16 1180.41 1121.96 1184.04 1118.71L1184.36 1118.42C1196.21 1107.82 1207.51 1096.63 1218.22 1084.89C1206.76 1064.95 1179.9 1064.84 1175.08 1064.99H1174.32C1174.32 1064.99 1172.59 1100.89 1172.66 1125.78Z" fill="#A8A8A8"/>
<path opacity="0.1" d="M1172.66 1125.78C1172.66 1126.73 1172.66 1127.66 1172.66 1128.57L1172.98 1128.31C1176.72 1125.16 1180.41 1121.96 1184.04 1118.71L1184.36 1118.42C1196.21 1107.82 1207.51 1096.63 1218.22 1084.89C1206.76 1064.95 1179.9 1064.84 1175.08 1064.99H1174.32C1174.32 1064.99 1172.59 1100.89 1172.66 1125.78Z" fill="#F8FAFC"/>
<path d="M1058.19 1087.49L1059.09 1093.44L1068.29 1153.94L1071.3 1173.77L1074.23 1193.05C1079.69 1190.32 1085.09 1187.5 1090.43 1184.58L1090.67 1184.46L1091.88 1183.79L1095 1182.06C1101.32 1178.53 1107.53 1174.89 1113.65 1171.12L1117.41 1168.79C1120.59 1166.79 1123.74 1164.76 1126.86 1162.69C1133.08 1158.6 1139.19 1154.38 1145.19 1150.01L1147.34 1148.42L1149.07 1147.14C1157.15 1141.17 1165.01 1134.98 1172.65 1128.56L1172.97 1128.29C1176.71 1125.15 1180.4 1121.95 1184.03 1118.7L1178.65 1091.03C1177.58 1085.42 1176.69 1079.8 1175.99 1074.15C1175.6 1071.1 1175.28 1068.04 1175.02 1064.98C1174.95 1064.25 1174.88 1063.5 1174.83 1062.77C1172.98 1039.7 1167.31 991.772 1151.39 980.499C1149.88 979.357 1148.11 978.589 1146.25 978.258C1144.38 977.928 1142.46 978.044 1140.64 978.597C1139.06 979.04 1137.51 979.571 1135.99 980.187C1124.83 984.658 1114.26 993.534 1105.5 1002.75C1092.94 1016.05 1082.76 1031.4 1075.41 1048.15L1059.29 1084.48L1059.24 1084.6L1059.09 1084.93L1058.19 1087.49Z" fill="#A8A8A8"/>
<path opacity="0.1" d="M1097.43 1149.51L1116.12 1085.59C1116.12 1085.59 1133.62 1132.6 1147.38 1148.43L1149.11 1147.15L1124.3 1085.85C1124.3 1085.85 1116.17 1050.91 1122.68 1038.19C1127.83 1028.08 1144.77 994.125 1151.53 980.499C1150.02 979.357 1148.25 978.589 1146.39 978.258C1144.52 977.928 1142.6 978.044 1140.78 978.597C1139.2 979.04 1137.65 979.571 1136.13 980.187C1127.53 993.814 1111.63 1021.02 1110.45 1037.91C1109.53 1052.67 1110.16 1067.49 1112.34 1082.13L1097.43 1149.51Z" fill="#F8FAFC"/>
<path d="M1012.16 1219.32C1019.97 1216.57 1027.69 1213.67 1035.32 1210.61C1048.6 1205.25 1061.57 1199.4 1074.23 1193.06C1079.69 1190.33 1085.09 1187.51 1090.43 1184.59L1090.67 1184.47L1090.05 1180.52L1089.37 1176.22L1087.15 1161.97C1087.15 1161.97 1076.8 1117.22 1065.86 1094.65C1064.24 1090.98 1062.1 1087.57 1059.51 1084.51C1059.35 1084.33 1059.18 1084.17 1059 1084.01C1056.76 1082.59 1054.12 1081.95 1051.48 1082.18C1048 1082.57 1044.75 1084.1 1042.23 1086.53C1036.85 1091.32 1031 1100.89 1025.97 1119.21C1018.22 1147.3 1014.19 1188.84 1012.16 1219.32Z" fill="#A8A8A8"/>
<path opacity="0.1" d="M1035.32 1210.61C1048.6 1205.25 1061.57 1199.4 1074.23 1193.06C1079.69 1190.33 1085.09 1187.51 1090.43 1184.6C1090.37 1183.26 1090.24 1181.91 1090.05 1180.52C1090.05 1180.52 1088.68 1173 1074.25 1173.57C1073.26 1173.57 1072.27 1173.69 1071.3 1173.81C1063.74 1174.75 1056.59 1177.78 1050.66 1182.55C1044.73 1187.33 1040.24 1193.65 1037.69 1200.83C1036.52 1203.99 1035.73 1207.27 1035.32 1210.61V1210.61Z" fill="#F8FAFC"/>
<path opacity="0.1" d="M1054.38 1105.09C1054.87 1092.33 1047.93 1087.95 1042.21 1086.49C1044.72 1084.06 1047.98 1082.53 1051.46 1082.14C1055.45 1085.48 1058.27 1089.99 1059.53 1095.03L1074.16 1166.26C1074.16 1166.26 1053.57 1126.49 1054.38 1105.09Z" fill="#F8FAFC"/>
<path d="M1117.65 1165.66L1113.65 1171.13L1117.41 1168.8C1120.59 1166.8 1123.74 1164.77 1126.86 1162.7L1120.74 1161.43L1117.65 1165.66Z" fill="#A8A8A8"/>
<path opacity="0.1" d="M1117.41 1168.8C1120.59 1166.8 1123.74 1164.77 1126.86 1162.71C1133.07 1158.61 1139.19 1154.39 1145.19 1150.02C1140.97 1147.02 1136.95 1144.93 1134.15 1145.18C1134.15 1145.18 1119.83 1146.16 1117.65 1165.66C1117.54 1166.66 1117.45 1167.7 1117.41 1168.8Z" fill="#F8FAFC"/>
<path opacity="0.1" d="M1058.98 1083.97L1059.3 1084.96L1089.39 1176.21L1091.9 1183.8L1095.03 1182.07C1091.26 1151.27 1081.35 1121.54 1065.88 1094.64C1062.79 1089.37 1060.43 1085.97 1059.43 1084.62C1059.2 1084.28 1059.05 1084.07 1058.98 1084V1083.97Z" fill="black"/>
<path opacity="0.1" d="M1172.66 1125.78C1172.75 1126.62 1172.87 1127.46 1172.99 1128.31C1176.73 1125.16 1180.42 1121.96 1184.05 1118.71L1184.37 1118.42L1176.05 1074.16L1174.33 1065.02C1170.63 1085.06 1170.06 1105.56 1172.66 1125.78Z" fill="black"/>
<path opacity="0.1" d="M779.788 430.311H793.501C791.01 430.228 788.649 429.18 786.916 427.388C785.184 425.597 784.215 423.202 784.215 420.709C784.215 418.217 785.184 415.822 786.916 414.031C788.649 412.239 791.01 411.191 793.501 411.107H904.576C907.067 411.191 909.429 412.239 911.161 414.031C912.894 415.822 913.863 418.217 913.863 420.709C913.863 423.202 912.894 425.597 911.161 427.388C909.429 429.18 907.067 430.228 904.576 430.311H890.864C893.409 430.311 895.85 431.322 897.65 433.122C899.45 434.922 900.461 437.363 900.461 439.908C900.461 442.453 899.45 444.894 897.65 446.694C895.85 448.493 893.409 449.505 890.864 449.505H910.057C912.548 449.588 914.909 450.636 916.642 452.428C918.375 454.219 919.343 456.614 919.343 459.107C919.343 461.599 918.375 463.994 916.642 465.785C914.909 467.577 912.548 468.625 910.057 468.708H798.982C796.491 468.625 794.13 467.577 792.397 465.785C790.664 463.994 789.696 461.599 789.696 459.107C789.696 456.614 790.664 454.219 792.397 452.428C794.13 450.636 796.491 449.588 798.982 449.505H779.788C777.243 449.505 774.802 448.493 773.003 446.694C771.203 444.894 770.192 442.453 770.192 439.908C770.192 437.363 771.203 434.922 773.003 433.122C774.802 431.322 777.243 430.311 779.788 430.311V430.311Z" fill="#3B82F6"/>
<path opacity="0.1" d="M938.116 577.398H951.829C949.283 577.398 946.843 576.387 945.043 574.588C943.243 572.788 942.232 570.347 942.232 567.802C942.232 565.257 943.243 562.816 945.043 561.016C946.843 559.216 949.283 558.205 951.829 558.205H1062.9C1065.45 558.205 1067.89 559.216 1069.69 561.016C1071.49 562.816 1072.5 565.257 1072.5 567.802C1072.5 570.347 1071.49 572.788 1069.69 574.588C1067.89 576.387 1065.45 577.398 1062.9 577.398H1049.19C1051.74 577.398 1054.18 578.409 1055.98 580.209C1057.78 582.009 1058.79 584.45 1058.79 586.995C1058.79 589.54 1057.78 591.981 1055.98 593.781C1054.18 595.58 1051.74 596.591 1049.19 596.591H1068.42C1070.91 596.675 1073.27 597.723 1075 599.515C1076.73 601.306 1077.7 603.701 1077.7 606.193C1077.7 608.686 1076.73 611.081 1075 612.872C1073.27 614.664 1070.91 615.712 1068.42 615.795H957.309C954.818 615.712 952.457 614.664 950.725 612.872C948.992 611.081 948.023 608.686 948.023 606.193C948.023 603.701 948.992 601.306 950.725 599.515C952.457 597.723 954.818 596.675 957.309 596.591H938.116C935.571 596.591 933.13 595.58 931.33 593.781C929.531 591.981 928.52 589.54 928.52 586.995C928.52 584.45 929.531 582.009 931.33 580.209C933.13 578.409 935.571 577.398 938.116 577.398V577.398Z" fill="#3B82F6"/>
<path opacity="0.1" d="M777.188 1036.71H783.636C782.43 1036.71 781.274 1036.24 780.421 1035.38C779.569 1034.53 779.09 1033.37 779.09 1032.17C779.09 1030.96 779.569 1029.81 780.421 1028.95C781.274 1028.1 782.43 1027.62 783.636 1027.62H836.293C837.499 1027.62 838.655 1028.1 839.508 1028.95C840.36 1029.81 840.839 1030.96 840.839 1032.17C840.839 1033.37 840.36 1034.53 839.508 1035.38C838.655 1036.24 837.499 1036.71 836.293 1036.71H829.846C831.051 1036.71 832.207 1037.19 833.06 1038.05C833.912 1038.9 834.391 1040.05 834.391 1041.26C834.391 1042.47 833.912 1043.62 833.06 1044.47C832.207 1045.33 831.051 1045.81 829.846 1045.81H838.926C840.132 1045.81 841.288 1046.28 842.141 1047.14C842.993 1047.99 843.472 1049.15 843.472 1050.35C843.472 1051.56 842.993 1052.71 842.141 1053.57C841.288 1054.42 840.132 1054.9 838.926 1054.9H786.279C785.074 1054.9 783.917 1054.42 783.065 1053.57C782.213 1052.71 781.734 1051.56 781.734 1050.35C781.734 1049.15 782.213 1047.99 783.065 1047.14C783.917 1046.28 785.074 1045.81 786.279 1045.81H777.188C775.982 1045.81 774.826 1045.33 773.973 1044.47C773.121 1043.62 772.642 1042.47 772.642 1041.26C772.642 1040.05 773.121 1038.9 773.973 1038.05C774.826 1037.19 775.982 1036.71 777.188 1036.71Z" fill="#3B82F6"/>
<path opacity="0.1" d="M632.422 1113.97H637.602C636.674 1113.92 635.801 1113.52 635.162 1112.84C634.523 1112.17 634.167 1111.27 634.167 1110.34C634.167 1109.41 634.523 1108.52 635.162 1107.85C635.801 1107.17 636.674 1106.77 637.602 1106.72H679.578C680.505 1106.77 681.379 1107.17 682.017 1107.85C682.656 1108.52 683.012 1109.41 683.012 1110.34C683.012 1111.27 682.656 1112.17 682.017 1112.84C681.379 1113.52 680.505 1113.92 679.578 1113.97H674.398C675.326 1114.02 676.199 1114.43 676.838 1115.1C677.477 1115.77 677.833 1116.67 677.833 1117.6C677.833 1118.53 677.477 1119.42 676.838 1120.1C676.199 1120.77 675.326 1121.17 674.398 1121.22H681.652C682.579 1121.28 683.453 1121.68 684.092 1122.35C684.73 1123.03 685.086 1123.92 685.086 1124.85C685.086 1125.78 684.73 1126.67 684.092 1127.35C683.453 1128.02 682.579 1128.43 681.652 1128.48H639.633C639.14 1128.51 638.647 1128.43 638.183 1128.26C637.72 1128.09 637.296 1127.83 636.938 1127.49C636.579 1127.15 636.294 1126.74 636.099 1126.29C635.904 1125.83 635.803 1125.35 635.803 1124.85C635.803 1124.36 635.904 1123.87 636.099 1123.42C636.294 1122.96 636.579 1122.55 636.938 1122.21C637.296 1121.87 637.72 1121.61 638.183 1121.44C638.647 1121.27 639.14 1121.2 639.633 1121.22H632.379C631.886 1121.25 631.393 1121.18 630.93 1121.01C630.466 1120.84 630.042 1120.57 629.684 1120.23C629.326 1119.9 629.04 1119.49 628.845 1119.03C628.65 1118.58 628.549 1118.09 628.549 1117.6C628.549 1117.1 628.65 1116.62 628.845 1116.16C629.04 1115.71 629.326 1115.3 629.684 1114.96C630.042 1114.62 630.466 1114.36 630.93 1114.19C631.393 1114.02 631.886 1113.94 632.379 1113.97H632.422Z" fill="#3B82F6"/>
<path opacity="0.1" d="M454.987 978.779H461.489C460.283 978.779 459.127 978.3 458.275 977.448C457.422 976.595 456.943 975.439 456.943 974.233C456.943 973.028 457.422 971.871 458.275 971.019C459.127 970.166 460.283 969.688 461.489 969.688H514.071C515.277 969.688 516.433 970.166 517.286 971.019C518.138 971.871 518.617 973.028 518.617 974.233C518.617 975.439 518.138 976.595 517.286 977.448C516.433 978.3 515.277 978.779 514.071 978.779H507.624C508.829 978.779 509.985 979.258 510.838 980.11C511.69 980.963 512.169 982.119 512.169 983.325C512.169 984.53 511.69 985.687 510.838 986.539C509.985 987.392 508.829 987.871 507.624 987.871H516.715C517.921 987.871 519.077 988.349 519.929 989.202C520.782 990.054 521.261 991.211 521.261 992.416C521.261 993.622 520.782 994.778 519.929 995.631C519.077 996.483 517.921 996.962 516.715 996.962H464.079C462.873 996.962 461.717 996.483 460.865 995.631C460.012 994.778 459.533 993.622 459.533 992.416C459.533 991.211 460.012 990.054 460.865 989.202C461.717 988.349 462.873 987.871 464.079 987.871H454.987C453.782 987.871 452.626 987.392 451.773 986.539C450.921 985.687 450.442 984.53 450.442 983.325C450.442 982.119 450.921 980.963 451.773 980.11C452.626 979.258 453.782 978.779 454.987 978.779Z" fill="#3B82F6"/>
<path opacity="0.1" d="M913.668 1120.88H920.116C918.91 1120.88 917.754 1120.4 916.901 1119.55C916.049 1118.7 915.57 1117.54 915.57 1116.33C915.57 1115.13 916.049 1113.97 916.901 1113.12C917.754 1112.27 918.91 1111.79 920.116 1111.79H972.773C973.979 1111.79 975.135 1112.27 975.988 1113.12C976.84 1113.97 977.319 1115.13 977.319 1116.33C977.319 1117.54 976.84 1118.7 975.988 1119.55C975.135 1120.4 973.979 1120.88 972.773 1120.88H966.326C967.531 1120.88 968.687 1121.36 969.54 1122.21C970.392 1123.06 970.871 1124.22 970.871 1125.43C970.871 1126.63 970.392 1127.79 969.54 1128.64C968.687 1129.49 967.531 1129.97 966.326 1129.97H975.417C976.583 1130.03 977.682 1130.53 978.488 1131.38C979.293 1132.22 979.742 1133.35 979.742 1134.51C979.742 1135.68 979.293 1136.8 978.488 1137.65C977.682 1138.49 976.583 1139 975.417 1139.05H922.738C922.123 1139.08 921.508 1138.99 920.932 1138.77C920.355 1138.56 919.827 1138.23 919.382 1137.8C918.936 1137.38 918.581 1136.87 918.339 1136.3C918.096 1135.74 917.971 1135.13 917.971 1134.51C917.971 1133.9 918.096 1133.29 918.339 1132.72C918.581 1132.16 918.936 1131.65 919.382 1131.22C919.827 1130.8 920.355 1130.47 920.932 1130.25C921.508 1130.04 922.123 1129.94 922.738 1129.97H913.668C912.462 1129.97 911.306 1129.49 910.453 1128.64C909.601 1127.79 909.122 1126.63 909.122 1125.43C909.122 1124.22 909.601 1123.06 910.453 1122.21C911.306 1121.36 912.462 1120.88 913.668 1120.88Z" fill="#3B82F6"/>
<path opacity="0.3" d="M986.744 680.704C987.093 680.04 987.184 679.271 987.002 678.544C986.82 677.816 986.376 677.181 985.755 676.76C985.66 676.697 985.573 676.621 985.498 676.535V676.535C985.276 676.291 985.139 675.983 985.106 675.655C985.073 675.327 985.146 674.998 985.315 674.715C985.483 674.432 985.738 674.211 986.042 674.084C986.346 673.957 986.682 673.931 987.002 674.009C987.114 674.039 987.222 674.082 987.324 674.138C987.989 674.489 988.759 674.582 989.488 674.402C990.217 674.222 990.854 673.78 991.279 673.16C991.342 673.061 991.418 672.971 991.505 672.892V672.892C991.75 672.673 992.058 672.539 992.385 672.509C992.712 672.478 993.04 672.553 993.321 672.722C993.602 672.892 993.821 673.147 993.947 673.45C994.073 673.753 994.098 674.088 994.019 674.407C993.986 674.518 993.943 674.626 993.891 674.729C993.542 675.393 993.45 676.162 993.632 676.89C993.815 677.617 994.259 678.252 994.879 678.673C994.976 678.739 995.066 678.815 995.148 678.899C995.366 679.144 995.5 679.452 995.531 679.779C995.561 680.106 995.486 680.434 995.317 680.715C995.148 680.996 994.893 681.215 994.59 681.341C994.287 681.467 993.951 681.492 993.633 681.414V681.414C993.519 681.388 993.41 681.345 993.31 681.285C992.644 680.938 991.874 680.847 991.145 681.029C990.417 681.211 989.78 681.654 989.355 682.273C989.296 682.372 989.224 682.462 989.141 682.542C988.896 682.765 988.587 682.904 988.257 682.937C987.928 682.97 987.597 682.895 987.313 682.725C987.03 682.555 986.808 682.298 986.683 681.992C986.557 681.686 986.533 681.347 986.615 681.027V681.027C986.649 680.916 986.692 680.808 986.744 680.704V680.704Z" fill="#3B82F6"/>
<path opacity="0.3" d="M1327.06 499.433C1327.41 498.769 1327.51 497.999 1327.32 497.271C1327.14 496.543 1326.7 495.908 1326.07 495.489C1325.98 495.423 1325.89 495.347 1325.82 495.263C1325.59 495.019 1325.45 494.709 1325.42 494.38C1325.39 494.051 1325.46 493.72 1325.63 493.436C1325.8 493.152 1326.06 492.931 1326.37 492.805C1326.67 492.679 1327.01 492.656 1327.33 492.738V492.738C1327.44 492.77 1327.54 492.813 1327.64 492.867C1328.31 493.218 1329.08 493.312 1329.81 493.129C1330.54 492.947 1331.18 492.501 1331.6 491.878C1331.66 491.785 1331.74 491.698 1331.82 491.62V491.62C1332.07 491.402 1332.38 491.268 1332.7 491.237C1333.03 491.207 1333.36 491.282 1333.64 491.451C1333.92 491.62 1334.14 491.875 1334.27 492.178C1334.39 492.481 1334.42 492.817 1334.34 493.135V493.135C1334.31 493.245 1334.27 493.351 1334.21 493.447C1333.86 494.113 1333.77 494.883 1333.95 495.612C1334.14 496.341 1334.58 496.977 1335.2 497.402C1335.3 497.468 1335.39 497.543 1335.47 497.627V497.627C1335.69 497.872 1335.82 498.181 1335.85 498.508C1335.88 498.834 1335.81 499.162 1335.64 499.443C1335.47 499.724 1335.21 499.944 1334.91 500.07C1334.61 500.195 1334.27 500.221 1333.95 500.142V500.142C1333.84 500.113 1333.73 500.07 1333.63 500.013C1332.96 499.667 1332.2 499.576 1331.47 499.759C1330.74 499.941 1330.11 500.383 1329.69 501.002C1329.62 501.096 1329.54 501.186 1329.46 501.271V501.271C1329.22 501.494 1328.91 501.632 1328.58 501.665C1328.25 501.698 1327.92 501.624 1327.63 501.454C1327.35 501.284 1327.13 501.026 1327 500.72C1326.88 500.414 1326.85 500.076 1326.93 499.755C1326.97 499.644 1327.01 499.536 1327.06 499.433V499.433Z" fill="#3B82F6"/>
<path opacity="0.3" d="M1332.3 986.313C1332.65 985.649 1332.74 984.879 1332.55 984.152C1332.37 983.425 1331.93 982.79 1331.31 982.369C1331.21 982.305 1331.13 982.229 1331.05 982.143V982.143C1330.83 981.901 1330.68 981.592 1330.65 981.264C1330.62 980.935 1330.69 980.605 1330.86 980.321C1331.03 980.038 1331.29 979.817 1331.59 979.692C1331.9 979.567 1332.23 979.545 1332.55 979.628V979.628C1332.67 979.654 1332.78 979.697 1332.88 979.757C1333.54 980.104 1334.31 980.195 1335.04 980.013C1335.77 979.831 1336.41 979.388 1336.83 978.769C1336.89 978.67 1336.96 978.58 1337.05 978.5V978.5C1337.29 978.277 1337.6 978.138 1337.93 978.105C1338.26 978.072 1338.59 978.146 1338.87 978.317C1339.16 978.487 1339.38 978.744 1339.5 979.05C1339.63 979.356 1339.65 979.695 1339.57 980.015C1339.54 980.126 1339.49 980.234 1339.44 980.338C1339.09 981.002 1339 981.771 1339.18 982.498C1339.37 983.226 1339.81 983.86 1340.43 984.282C1340.53 984.345 1340.61 984.421 1340.69 984.507V984.507C1340.89 984.749 1341.01 985.047 1341.03 985.36C1341.06 985.673 1340.99 985.986 1340.83 986.257C1340.67 986.527 1340.43 986.741 1340.14 986.871C1339.86 987 1339.54 987.038 1339.23 986.979V986.979C1339.11 986.957 1339.01 986.917 1338.91 986.861C1338.24 986.51 1337.47 986.417 1336.74 986.597C1336.01 986.777 1335.38 987.219 1334.95 987.839C1334.89 987.937 1334.81 988.028 1334.73 988.107V988.107C1334.48 988.326 1334.17 988.46 1333.85 988.49C1333.52 988.521 1333.19 988.446 1332.91 988.276C1332.63 988.107 1332.41 987.852 1332.28 987.549C1332.16 987.246 1332.13 986.911 1332.21 986.592C1332.23 986.497 1332.26 986.404 1332.3 986.313V986.313Z" fill="#3B82F6"/>
<path opacity="0.3" d="M278.96 390.84C279.309 390.174 279.401 389.404 279.219 388.674C279.037 387.945 278.593 387.308 277.971 386.885C277.876 386.822 277.789 386.746 277.713 386.66V386.66C277.489 386.418 277.348 386.109 277.314 385.781C277.28 385.452 277.353 385.121 277.522 384.838C277.692 384.554 277.949 384.334 278.255 384.209C278.56 384.084 278.898 384.061 279.218 384.145V384.145C279.33 384.175 279.438 384.218 279.54 384.274C280.206 384.623 280.977 384.715 281.706 384.533C282.435 384.351 283.072 383.907 283.495 383.285C283.561 383.188 283.637 383.098 283.721 383.017V383.017C283.966 382.798 284.274 382.664 284.601 382.634C284.928 382.603 285.255 382.678 285.537 382.847C285.818 383.017 286.037 383.272 286.163 383.575C286.289 383.878 286.314 384.213 286.235 384.532V384.532C286.206 384.644 286.162 384.752 286.106 384.854C285.757 385.52 285.665 386.291 285.847 387.02C286.03 387.749 286.474 388.386 287.095 388.809C287.192 388.871 287.282 388.943 287.364 389.024V389.024C287.587 389.268 287.725 389.578 287.758 389.907C287.791 390.236 287.717 390.567 287.547 390.851C287.377 391.135 287.12 391.356 286.814 391.482C286.507 391.608 286.169 391.631 285.849 391.549C285.736 391.52 285.628 391.476 285.526 391.42C284.86 391.071 284.09 390.979 283.36 391.161C282.631 391.344 281.994 391.788 281.571 392.409C281.512 392.504 281.439 392.591 281.356 392.667V392.667C281.113 392.888 280.804 393.026 280.477 393.058C280.149 393.091 279.82 393.018 279.537 392.85C279.254 392.681 279.033 392.426 278.906 392.122C278.779 391.819 278.752 391.482 278.831 391.162V391.162C278.861 391.05 278.904 390.942 278.96 390.84V390.84Z" fill="#3B82F6"/>
<path opacity="0.3" d="M227.646 358.203C227.994 357.539 228.086 356.77 227.904 356.043C227.721 355.315 227.278 354.68 226.657 354.259C226.561 354.196 226.475 354.12 226.399 354.034V354.034C226.178 353.79 226.041 353.482 226.008 353.154C225.975 352.826 226.048 352.497 226.217 352.214C226.385 351.931 226.64 351.71 226.944 351.583C227.247 351.456 227.584 351.43 227.904 351.508V351.508C228.016 351.538 228.124 351.581 228.226 351.637C228.89 351.987 229.66 352.081 230.389 351.901C231.119 351.721 231.756 351.279 232.181 350.659C232.244 350.563 232.316 350.473 232.396 350.391V350.391C232.638 350.174 232.942 350.04 233.265 350.008C233.588 349.975 233.913 350.046 234.193 350.209C234.474 350.373 234.695 350.621 234.826 350.918C234.957 351.215 234.99 351.546 234.921 351.863V351.863C234.889 351.971 234.846 352.075 234.792 352.175C234.434 352.843 234.336 353.622 234.519 354.358C234.702 355.095 235.151 355.737 235.781 356.161C235.876 356.225 235.963 356.301 236.039 356.387C236.278 356.63 236.428 356.946 236.467 357.284C236.506 357.623 236.43 357.964 236.252 358.255C236.074 358.545 235.804 358.768 235.485 358.887C235.166 359.006 234.816 359.015 234.491 358.913V358.913C234.377 358.887 234.269 358.844 234.169 358.784C233.503 358.437 232.733 358.346 232.004 358.528C231.275 358.71 230.639 359.153 230.214 359.772C230.151 359.871 230.075 359.961 229.988 360.041C229.743 360.259 229.435 360.394 229.108 360.424C228.782 360.454 228.454 360.38 228.173 360.21C227.891 360.041 227.672 359.786 227.546 359.483C227.421 359.18 227.395 358.844 227.474 358.526V358.526C227.521 358.413 227.579 358.305 227.646 358.203V358.203Z" fill="#3B82F6"/>
<path opacity="0.3" d="M636.409 595.217C636.758 594.553 636.85 593.784 636.667 593.056C636.485 592.329 636.041 591.694 635.42 591.273C635.325 591.209 635.238 591.134 635.162 591.047V591.047C634.941 590.804 634.804 590.495 634.771 590.168C634.738 589.84 634.811 589.511 634.98 589.228C635.148 588.945 635.403 588.724 635.707 588.596C636.011 588.469 636.347 588.443 636.667 588.522V588.522C636.779 588.552 636.888 588.595 636.989 588.651C637.654 589.001 638.424 589.095 639.153 588.915C639.882 588.734 640.519 588.292 640.944 587.673C641.004 587.574 641.076 587.484 641.159 587.404V587.404C641.403 587.181 641.713 587.043 642.042 587.01C642.371 586.977 642.703 587.051 642.986 587.221C643.27 587.391 643.491 587.648 643.617 587.954C643.743 588.26 643.766 588.599 643.684 588.919V588.919C643.653 589.028 643.609 589.132 643.555 589.231C643.206 589.897 643.114 590.668 643.296 591.397C643.479 592.126 643.923 592.763 644.544 593.186C644.64 593.249 644.726 593.325 644.802 593.411C645.027 593.654 645.167 593.962 645.201 594.291C645.236 594.619 645.163 594.95 644.993 595.233C644.824 595.517 644.567 595.738 644.261 595.862C643.955 595.987 643.617 596.01 643.298 595.926V595.926C643.184 595.901 643.075 595.857 642.975 595.797C642.309 595.45 641.539 595.359 640.81 595.542C640.082 595.724 639.445 596.166 639.02 596.786C638.957 596.885 638.881 596.975 638.795 597.055C638.55 597.273 638.241 597.407 637.915 597.438C637.588 597.468 637.26 597.393 636.979 597.224C636.698 597.054 636.478 596.8 636.353 596.496C636.227 596.193 636.201 595.858 636.28 595.539V595.539C636.314 595.428 636.357 595.32 636.409 595.217V595.217Z" fill="#3B82F6"/>
<path opacity="0.3" d="M446.874 721.477C447.222 720.813 447.314 720.044 447.132 719.316C446.949 718.589 446.505 717.954 445.885 717.533C445.789 717.469 445.703 717.393 445.627 717.307V717.307C445.402 717.065 445.262 716.757 445.228 716.428C445.193 716.099 445.266 715.769 445.436 715.485C445.605 715.202 445.862 714.981 446.168 714.856C446.474 714.731 446.812 714.709 447.131 714.792V714.792C447.245 714.818 447.354 714.861 447.454 714.921C448.12 715.268 448.89 715.359 449.619 715.177C450.347 714.995 450.984 714.552 451.409 713.933C451.472 713.836 451.544 713.747 451.624 713.664V713.664C451.868 713.441 452.178 713.302 452.507 713.269C452.836 713.236 453.167 713.31 453.451 713.481C453.734 713.651 453.956 713.908 454.081 714.214C454.207 714.52 454.231 714.859 454.149 715.179V715.179C454.115 715.29 454.072 715.398 454.02 715.502C453.671 716.166 453.58 716.935 453.762 717.662C453.944 718.39 454.388 719.024 455.009 719.446C455.104 719.509 455.191 719.585 455.267 719.671C455.491 719.913 455.632 720.222 455.666 720.55C455.7 720.879 455.627 721.21 455.458 721.493C455.288 721.777 455.031 721.997 454.725 722.122C454.42 722.247 454.082 722.27 453.762 722.186V722.186C453.648 722.161 453.539 722.117 453.44 722.057C452.774 721.71 452.003 721.619 451.275 721.801C450.546 721.983 449.91 722.426 449.485 723.046C449.422 723.142 449.35 723.232 449.27 723.314V723.314C449.026 723.537 448.716 723.676 448.387 723.709C448.058 723.742 447.727 723.668 447.443 723.498C447.159 723.327 446.938 723.07 446.812 722.764C446.686 722.458 446.663 722.12 446.745 721.799V721.799C446.778 721.688 446.821 721.58 446.874 721.477V721.477Z" fill="#3B82F6"/>
<path opacity="0.3" d="M743.476 556.357C743.746 555.656 743.748 554.881 743.483 554.18C743.217 553.478 742.702 552.899 742.036 552.552C741.932 552.501 741.834 552.436 741.746 552.359V552.359C741.493 552.145 741.316 551.855 741.243 551.531C741.17 551.208 741.203 550.87 741.339 550.567C741.475 550.265 741.706 550.015 741.997 549.856C742.287 549.696 742.622 549.636 742.95 549.683V549.683C743.065 549.695 743.177 549.724 743.283 549.769C743.985 550.037 744.761 550.038 745.464 549.773C746.167 549.508 746.748 548.994 747.098 548.329C747.152 548.226 747.217 548.129 747.291 548.039C747.509 547.792 747.8 547.622 748.122 547.554C748.444 547.485 748.779 547.521 749.078 547.657C749.378 547.793 749.626 548.021 749.786 548.309C749.946 548.596 750.009 548.927 749.967 549.253V549.253C749.945 549.367 749.913 549.479 749.871 549.586C749.604 550.288 749.605 551.063 749.872 551.765C750.14 552.466 750.655 553.045 751.321 553.391C751.421 553.445 751.515 553.51 751.601 553.584V553.584C751.846 553.801 752.015 554.091 752.084 554.412C752.153 554.732 752.118 555.066 751.983 555.365C751.849 555.664 751.622 555.912 751.337 556.073C751.052 556.234 750.722 556.299 750.397 556.26V556.26C750.283 556.243 750.172 556.214 750.064 556.174C749.364 555.904 748.589 555.902 747.887 556.168C747.185 556.434 746.606 556.948 746.26 557.614C746.203 557.716 746.138 557.813 746.066 557.904V557.904C745.849 558.151 745.557 558.321 745.236 558.39C744.914 558.458 744.579 558.422 744.279 558.286C743.98 558.15 743.732 557.922 743.572 557.635C743.412 557.347 743.348 557.016 743.39 556.69V556.69C743.404 556.575 743.433 556.463 743.476 556.357V556.357Z" fill="#3B82F6"/>
<path opacity="0.3" d="M1226.96 888.359C1227.92 887.945 1228.68 887.193 1229.12 886.247C1229.56 885.302 1229.63 884.229 1229.32 883.233C1229.28 883.079 1229.25 882.92 1229.24 882.76C1229.23 882.312 1229.36 881.872 1229.61 881.502C1229.86 881.131 1230.22 880.849 1230.64 880.693C1231.06 880.538 1231.52 880.518 1231.95 880.637C1232.39 880.755 1232.77 881.005 1233.05 881.352C1233.15 881.482 1233.23 881.623 1233.29 881.771C1233.7 882.727 1234.46 883.496 1235.4 883.932C1236.35 884.369 1237.42 884.441 1238.42 884.136C1238.57 884.087 1238.73 884.055 1238.89 884.039V884.039C1239.34 884.026 1239.78 884.154 1240.16 884.406C1240.53 884.659 1240.81 885.022 1240.97 885.445C1241.13 885.868 1241.14 886.329 1241.02 886.763C1240.9 887.198 1240.65 887.583 1240.3 887.865C1240.17 887.96 1240.03 888.039 1239.88 888.101C1238.93 888.526 1238.17 889.28 1237.74 890.222C1237.3 891.164 1237.22 892.231 1237.51 893.227C1237.57 893.38 1237.6 893.539 1237.61 893.7V893.7C1237.62 894.151 1237.49 894.594 1237.24 894.967C1236.99 895.341 1236.63 895.625 1236.2 895.781C1235.78 895.937 1235.32 895.955 1234.89 895.835C1234.45 895.714 1234.07 895.46 1233.78 895.108C1233.69 894.98 1233.61 894.839 1233.56 894.689C1233.14 893.733 1232.39 892.964 1231.45 892.528C1230.5 892.092 1229.43 892.019 1228.43 892.324C1228.28 892.372 1228.12 892.405 1227.96 892.421V892.421C1227.51 892.435 1227.07 892.306 1226.69 892.054C1226.32 891.801 1226.03 891.438 1225.88 891.015C1225.72 890.592 1225.7 890.131 1225.82 889.697C1225.95 889.262 1226.2 888.877 1226.55 888.595C1226.68 888.502 1226.82 888.423 1226.96 888.359V888.359Z" fill="#3B82F6"/>
<path opacity="0.3" d="M572.564 929.067C573.511 928.641 574.271 927.888 574.706 926.946C575.14 926.004 575.219 924.936 574.928 923.941C574.876 923.791 574.843 923.636 574.832 923.478V923.478C574.816 923.027 574.943 922.582 575.194 922.207C575.446 921.831 575.809 921.545 576.232 921.388C576.656 921.231 577.118 921.211 577.554 921.332C577.989 921.453 578.375 921.707 578.657 922.06V922.06C578.751 922.191 578.83 922.331 578.894 922.479C579.306 923.436 580.058 924.207 581.004 924.643C581.95 925.08 583.024 925.151 584.02 924.843C584.169 924.793 584.325 924.764 584.482 924.757C584.93 924.747 585.37 924.877 585.74 925.128C586.111 925.38 586.394 925.742 586.549 926.162C586.704 926.582 586.724 927.04 586.606 927.473C586.487 927.905 586.237 928.289 585.89 928.572C585.764 928.668 585.627 928.747 585.481 928.809C584.526 929.223 583.757 929.975 583.32 930.92C582.884 931.866 582.812 932.939 583.117 933.935C583.162 934.089 583.191 934.247 583.203 934.408V934.408C583.214 934.855 583.084 935.295 582.832 935.666C582.58 936.036 582.219 936.319 581.799 936.474C581.378 936.629 580.92 936.649 580.488 936.531C580.056 936.413 579.671 936.163 579.388 935.815C579.293 935.686 579.214 935.545 579.152 935.396C578.727 934.45 577.973 933.689 577.031 933.255C576.089 932.82 575.022 932.741 574.026 933.032C573.872 933.081 573.713 933.113 573.553 933.129V933.129C573.102 933.142 572.659 933.014 572.286 932.761C571.912 932.509 571.627 932.146 571.472 931.723C571.316 931.3 571.297 930.838 571.418 930.404C571.539 929.97 571.793 929.585 572.145 929.303C572.275 929.208 572.416 929.128 572.564 929.067V929.067Z" fill="#3B82F6"/>
<path opacity="0.3" d="M777.113 939.502C778.068 939.087 778.838 938.336 779.274 937.39C779.71 936.444 779.782 935.371 779.477 934.376C779.429 934.221 779.397 934.063 779.38 933.903C779.367 933.452 779.495 933.009 779.748 932.635C780 932.262 780.363 931.977 780.786 931.822C781.209 931.666 781.671 931.647 782.105 931.768C782.539 931.889 782.924 932.143 783.206 932.495C783.301 932.625 783.381 932.765 783.442 932.914C783.858 933.868 784.611 934.635 785.556 935.069C786.502 935.503 787.574 935.574 788.568 935.268C788.723 935.222 788.881 935.194 789.041 935.182C789.489 935.171 789.929 935.301 790.3 935.553C790.67 935.805 790.953 936.166 791.108 936.586C791.263 937.006 791.283 937.465 791.165 937.897C791.047 938.329 790.796 938.714 790.449 938.997C790.319 939.092 790.179 939.171 790.03 939.233C789.074 939.647 788.305 940.399 787.869 941.345C787.433 942.29 787.36 943.363 787.666 944.359C787.713 944.513 787.746 944.672 787.762 944.832V944.832C787.776 945.282 787.647 945.726 787.395 946.099C787.143 946.473 786.779 946.757 786.356 946.913C785.933 947.069 785.472 947.087 785.038 946.967C784.604 946.846 784.219 946.591 783.937 946.24C783.841 946.11 783.762 945.969 783.7 945.821C783.275 944.874 782.522 944.114 781.58 943.679C780.638 943.245 779.57 943.165 778.574 943.456C778.422 943.51 778.263 943.543 778.101 943.553C777.653 943.564 777.214 943.434 776.843 943.182C776.472 942.93 776.19 942.569 776.035 942.148C775.88 941.728 775.86 941.27 775.978 940.838C776.096 940.406 776.346 940.021 776.694 939.738C776.823 939.643 776.964 939.563 777.113 939.502V939.502Z" fill="#3B82F6"/>
<path opacity="0.1" d="M356.958 478.713C366.751 478.713 374.69 470.775 374.69 460.982C374.69 451.189 366.751 443.25 356.958 443.25C347.165 443.25 339.227 451.189 339.227 460.982C339.227 470.775 347.165 478.713 356.958 478.713Z" fill="#3B82F6"/>
<path opacity="0.1" d="M1241.16 496.446C1250.95 496.446 1258.89 488.507 1258.89 478.714C1258.89 468.921 1250.95 460.982 1241.16 460.982C1231.36 460.982 1223.42 468.921 1223.42 478.714C1223.42 488.507 1231.36 496.446 1241.16 496.446Z" fill="#3B82F6"/>
<path opacity="0.1" d="M440.781 382.619C446.122 382.619 450.453 378.289 450.453 372.947C450.453 367.606 446.122 363.275 440.781 363.275C435.439 363.275 431.109 367.606 431.109 372.947C431.109 378.289 435.439 382.619 440.781 382.619Z" fill="#3B82F6"/>
<path opacity="0.1" d="M1366 664.08C1371.34 664.08 1375.67 659.75 1375.67 654.408C1375.67 649.067 1371.34 644.736 1366 644.736C1360.66 644.736 1356.33 649.067 1356.33 654.408C1356.33 659.75 1360.66 664.08 1366 664.08Z" fill="#3B82F6"/>
<path opacity="0.1" d="M374.69 1159.18C380.031 1159.18 384.362 1154.85 384.362 1149.51C384.362 1144.17 380.031 1139.84 374.69 1139.84C369.348 1139.84 365.018 1144.17 365.018 1149.51C365.018 1154.85 369.348 1159.18 374.69 1159.18Z" fill="#3B82F6"/>
<path opacity="0.1" d="M411.765 1202.74C417.107 1202.74 421.437 1198.41 421.437 1193.06C421.437 1187.72 417.107 1183.39 411.765 1183.39C406.423 1183.39 402.093 1187.72 402.093 1193.06C402.093 1198.41 406.423 1202.74 411.765 1202.74Z" fill="#3B82F6"/>
<path opacity="0.1" d="M339.227 1228.99C344.568 1228.99 348.898 1224.66 348.898 1219.32C348.898 1213.98 344.568 1209.65 339.227 1209.65C333.885 1209.65 329.555 1213.98 329.555 1219.32C329.555 1224.66 333.885 1228.99 339.227 1228.99Z" fill="#3B82F6"/>
<defs>
<linearGradient id="paint0_linear_207_647" x1="853.046" y1="850.294" x2="833.873" y2="730.055" gradientUnits="userSpaceOnUse">
<stop stop-color="#808080" stop-opacity="0.25"/>
<stop offset="0.54" stop-color="#808080" stop-opacity="0.12"/>
<stop offset="1" stop-color="#808080" stop-opacity="0.1"/>
</linearGradient>
<linearGradient id="paint1_linear_207_647" x1="24530" y1="18990.4" x2="28163.6" y2="18990.4" gradientUnits="userSpaceOnUse">
<stop stop-color="#808080" stop-opacity="0.25"/>
<stop offset="0.54" stop-color="#808080" stop-opacity="0.12"/>
<stop offset="1" stop-color="#808080" stop-opacity="0.1"/>
</linearGradient>
</defs>
</svg>
