<svg width="1600" height="1600" viewBox="0 0 1600 1600" fill="none" xmlns="http://www.w3.org/2000/svg">
<rect width="1600" height="1600" rx="8" fill="#F8FAFC"/>
<path d="M1295.73 1163.69C1306.26 1182.29 1297.33 1245.12 1297.33 1245.12C1297.33 1245.12 1238.89 1220.38 1228.37 1201.79C1223.33 1192.85 1222.04 1182.29 1224.78 1172.4C1227.53 1162.52 1234.09 1154.13 1243.02 1149.08C1251.94 1144.04 1262.51 1142.74 1272.4 1145.47C1282.28 1148.21 1290.68 1154.76 1295.73 1163.69V1163.69Z" fill="#F1F1F1"/>
<path d="M1298.18 1245.04L1296.94 1245.3C1284.98 1188.49 1243.22 1149.97 1242.8 1149.58L1243.66 1148.64C1244.08 1149.03 1286.14 1187.82 1298.18 1245.04Z" fill="#F8FAFC"/>
<path d="M1391.36 1184.87C1377.08 1210.78 1296.56 1245.87 1296.56 1245.87C1296.56 1245.87 1283.29 1159.05 1297.56 1133.15C1304.42 1120.71 1315.94 1111.51 1329.58 1107.56C1343.23 1103.62 1357.88 1105.25 1370.32 1112.11C1382.76 1118.97 1391.96 1130.49 1395.91 1144.13C1399.86 1157.78 1398.22 1172.43 1391.36 1184.87Z" fill="#F1F1F1"/>
<path d="M1297.27 1246.81L1296.06 1245.54C1354.33 1190.21 1369.41 1113.03 1369.56 1112.26L1371.28 1112.58C1371.13 1113.36 1355.96 1191.08 1297.27 1246.81Z" fill="#F8FAFC"/>
<path d="M482.129 988.698C472.914 988.668 463.74 987.481 454.821 985.166L453.063 984.68L451.432 983.863C392.475 954.303 342.736 915.258 303.596 867.813C271.197 828.308 245.937 783.454 228.952 735.268C208.641 677.578 198.87 616.705 200.104 555.556C200.129 554.273 200.15 553.282 200.15 552.599C200.15 522.874 216.649 496.792 242.184 486.153C261.728 478.01 439.171 405.127 451.991 399.861C476.136 387.763 501.894 397.861 506.016 399.626C515.262 403.407 679.297 470.499 714.745 487.378C751.278 504.775 761.025 536.027 761.025 551.75C761.025 622.935 748.697 689.463 724.382 749.486C704.745 798.071 676.914 842.924 642.101 882.091C574.932 957.679 507.746 984.476 507.097 984.712C499.068 987.475 490.62 988.824 482.129 988.698ZM466.329 949.561C472.154 950.867 485.564 952.826 494.305 949.637C505.409 945.588 561.643 916.427 614.192 857.291C686.797 775.586 723.636 672.875 723.69 552.013C723.56 549.564 721.821 532.1 698.694 521.087C663.933 504.534 493.433 434.817 491.714 434.114L491.243 433.915C487.67 432.417 476.299 429.263 468.46 433.371L466.891 434.103C464.99 434.883 276.633 512.246 256.544 520.616C242.492 526.471 237.485 540.976 237.485 552.599C237.485 553.448 237.463 554.684 237.432 556.28C235.826 638.979 254.963 842.475 466.329 949.561Z" fill="#3F3D56"/>
<path d="M459.799 416.834C459.799 416.834 269.729 494.898 249.364 503.383C229 511.869 218.818 532.233 218.818 552.598C218.818 572.963 203.544 838.693 459.799 967.174C459.799 967.174 483.056 973.609 500.702 967.174C518.347 960.739 742.358 852.127 742.358 551.749C742.358 551.749 742.358 521.203 706.72 504.232C671.082 487.261 498.778 416.834 498.778 416.834C498.778 416.834 477.618 407.5 459.799 416.834Z" fill="#3B82F6"/>
<path opacity="0.1" d="M480.163 477.928V894.373C480.163 894.373 288.397 802.064 290.094 559.386L480.163 477.928Z" fill="black"/>
<path d="M482.664 777.233L421.577 698.688L457.102 671.058L486.027 708.247L583.739 605.098L616.415 636.056L482.664 777.233Z" fill="#F8FAFC"/>
<path d="M1398.54 1249.6H840.345C839.956 1249.6 839.584 1249.44 839.309 1249.17C839.034 1248.89 838.88 1248.52 838.88 1248.13C838.88 1247.74 839.034 1247.37 839.309 1247.1C839.584 1246.82 839.956 1246.67 840.345 1246.67H1398.54C1398.92 1246.67 1399.3 1246.82 1399.57 1247.1C1399.85 1247.37 1400 1247.74 1400 1248.13C1400 1248.52 1399.85 1248.89 1399.57 1249.17C1399.3 1249.44 1398.92 1249.6 1398.54 1249.6Z" fill="#CACACA"/>
<path d="M1001.7 1226.5L1024.36 1226.5L1035.14 1139.11L1001.7 1139.11L1001.7 1226.5Z" fill="#FFB8B8"/>
<path d="M995.92 1219.11L1040.54 1219.11H1040.54C1048.09 1219.11 1055.32 1222.1 1060.65 1227.43C1065.98 1232.77 1068.98 1240 1068.98 1247.54V1248.47L995.922 1248.47L995.92 1219.11Z" fill="#2F2E41"/>
<path d="M1077.88 1226.5L1100.54 1226.5L1111.32 1139.11L1077.88 1139.11L1077.88 1226.5Z" fill="#FFB8B8"/>
<path d="M1072.1 1219.11L1116.73 1219.11H1116.73C1124.27 1219.11 1131.5 1222.1 1136.84 1227.43C1142.17 1232.77 1145.16 1240 1145.17 1247.54V1248.47L1072.11 1248.47L1072.1 1219.11Z" fill="#2F2E41"/>
<path d="M1037.31 919.592L1042.75 1196.86L998.781 1194.13L968.278 1017.53L958.644 897.115L1037.31 919.592Z" fill="#2F2E41"/>
<path d="M1112.77 873.034L1118.93 1201.25L1067.66 1199.79L1056.58 1004.68L1037.31 934.042L958.645 897.116L971.489 808.814L1087.08 807.209L1112.77 873.034Z" fill="#2F2E41"/>
<path d="M1024.36 579.231C1046.08 579.231 1063.68 561.627 1063.68 539.912C1063.68 518.196 1046.08 500.592 1024.36 500.592C1002.65 500.592 985.045 518.196 985.045 539.912C985.045 561.627 1002.65 579.231 1024.36 579.231Z" fill="#FFB8B8"/>
<path d="M1056.98 595.795L1063 604.919L1079.06 649.872L1066.21 824.868L990.754 826.475L981.123 625.789L1001.3 600.567L1056.98 595.795Z" fill="#CCCCCC"/>
<path d="M950.617 630.607L937.773 629.002C937.773 629.002 934.562 630.607 932.957 641.846C931.351 653.084 912.085 752.624 912.085 752.624L937.773 874.64L966.672 836.109L949.011 768.679L966.672 701.249L950.617 630.607Z" fill="#2F2E41"/>
<path d="M1114.38 629.004H1124.01L1148.09 759.046L1125.61 860.191L1103.14 823.266L1109.56 783.129L1106.35 747.809L1095.11 726.936L1114.38 629.004Z" fill="#2F2E41"/>
<path d="M1047.6 539.91L1040.45 538.123C1040.45 538.123 1035.09 507.74 1022.58 511.314C1010.07 514.889 977.896 518.463 977.896 504.165C977.896 489.867 1008.28 477.356 1026.15 479.143C1044.03 480.931 1066.85 486.86 1072.62 513.101C1081.87 555.168 1053.54 565.793 1053.54 565.793L1054.01 564.262C1055.32 560.009 1055.41 555.475 1054.28 551.172C1053.15 546.868 1050.83 542.968 1047.6 539.91V539.91Z" fill="#2F2E41"/>
<path d="M939.379 629.002L990.754 608.131L1002.8 599.301L1038.92 759.046L1055.78 594.484L1122.4 629.002L1099.93 738.175L1096.72 779.917L1106.35 813.632C1106.35 813.632 1140.06 837.714 1128.83 863.402C1117.59 889.09 1104.74 890.695 1104.74 890.695C1104.74 890.695 1050.16 839.32 1046.95 826.476C1043.74 813.632 1038.92 791.155 1038.92 791.155C1038.92 791.155 1011.63 893.906 979.516 892.301C947.407 890.695 947.407 856.98 947.407 856.98L955.434 821.659L968.278 784.733L961.856 723.725L939.379 629.002Z" fill="#2F2E41"/>
</svg>
