<svg width="1600" height="1600" viewBox="0 0 1600 1600" fill="none" xmlns="http://www.w3.org/2000/svg">
<rect width="1600" height="1600" rx="8" fill="#F8FAFC"/>
<path d="M1207.52 1038.5L1250.69 1045.25C1265.3 1027.56 1275.37 1006.57 1280.03 984.098C1248.47 1009.94 1200.46 996.205 1162.19 1010.31C1150.28 1014.8 1139.54 1021.92 1130.76 1031.12C1121.98 1040.33 1115.38 1051.39 1111.46 1063.5L1090.36 1086.19C1109.46 1093.75 1129.97 1097.08 1150.48 1095.95C1170.98 1094.83 1191 1089.26 1209.15 1079.65C1219.28 1074.16 1228.68 1067.41 1237.12 1059.57C1222.02 1050.06 1207.52 1038.5 1207.52 1038.5Z" fill="#F2F2F2"/>
<path d="M1192.2 969.478L1233.85 956.264C1239.04 933.912 1238.69 910.631 1232.84 888.443C1216.11 925.647 1167.03 934.766 1139.06 964.461C1130.41 973.79 1123.97 984.946 1120.21 997.102C1116.46 1009.26 1115.49 1022.1 1117.37 1034.69L1108.61 1064.41C1129.08 1062.66 1148.92 1056.5 1166.77 1046.34C1184.62 1036.18 1200.06 1022.28 1212.02 1005.58C1218.64 996.145 1224.04 985.915 1228.1 975.132C1210.34 973.356 1192.2 969.478 1192.2 969.478Z" fill="#F2F2F2"/>
<path d="M1280.27 1099.98C1280.27 1100.2 1280.22 1100.42 1280.14 1100.63C1280.05 1100.83 1279.93 1101.02 1279.77 1101.18C1279.62 1101.33 1279.43 1101.46 1279.22 1101.54C1279.02 1101.63 1278.8 1101.67 1278.57 1101.67H319.695C319.245 1101.67 318.814 1101.49 318.496 1101.17C318.179 1100.86 318 1100.43 318 1099.98C318 1099.53 318.179 1099.1 318.496 1098.78C318.814 1098.46 319.245 1098.28 319.695 1098.28H1278.57C1278.8 1098.28 1279.02 1098.32 1279.22 1098.41C1279.43 1098.49 1279.62 1098.62 1279.77 1098.78C1279.93 1098.93 1280.05 1099.12 1280.14 1099.33C1280.22 1099.53 1280.27 1099.75 1280.27 1099.98V1099.98Z" fill="#CCCCCC"/>
<path d="M715.339 1027.71C884.447 1027.71 1021.54 890.618 1021.54 721.511C1021.54 552.403 884.447 415.314 715.339 415.314C546.231 415.314 409.143 552.403 409.143 721.511C409.143 890.618 546.231 1027.71 715.339 1027.71Z" fill="#E6E6E6"/>
<path d="M978.808 721.506C978.839 762.617 969.235 803.164 950.768 839.893C932.3 876.623 905.483 908.514 872.465 933.009C870.258 934.661 868.008 936.27 865.743 937.837C821.592 968.528 769.108 984.977 715.337 984.977C661.566 984.977 609.083 968.528 564.931 937.837C562.666 936.27 560.416 934.661 558.209 933.009C525.214 908.493 498.413 876.597 479.948 839.872C461.483 803.147 451.866 762.612 451.866 721.506C451.866 680.4 461.483 639.865 479.948 603.14C498.413 566.415 525.214 534.519 558.209 510.003C560.416 508.351 562.666 506.742 564.931 505.175C609.083 474.484 661.566 458.035 715.337 458.035C769.108 458.035 821.592 474.484 865.743 505.175C868.008 506.742 870.258 508.351 872.465 510.003C905.483 534.498 932.3 566.389 950.768 603.119C969.235 639.849 978.839 680.395 978.808 721.506V721.506Z" fill="#F8FAFC"/>
<path d="M715.337 962.212C848.263 962.212 956.021 854.454 956.021 721.528C956.021 588.602 848.263 480.844 715.337 480.844C582.41 480.844 474.652 588.602 474.652 721.528C474.652 854.454 582.41 962.212 715.337 962.212Z" fill="#3B82F6"/>
<path opacity="0.2" d="M715.971 481.496C712.323 481.496 708.696 481.592 705.088 481.752C765.919 487.098 822.444 515.367 863.211 560.832C903.978 606.298 925.938 665.56 924.642 726.612C923.346 787.665 898.891 845.942 856.232 889.636C813.573 933.331 755.899 959.176 694.896 961.936C701.842 962.539 708.868 962.865 715.971 962.865C779.805 962.865 841.024 937.507 886.161 892.37C931.298 847.233 956.656 786.014 956.656 722.181C956.656 658.347 931.298 597.128 886.161 551.991C841.024 506.854 779.805 481.496 715.971 481.496V481.496Z" fill="black"/>
<path d="M716.051 463.736C713.975 463.74 711.985 464.566 710.516 466.035C709.048 467.503 708.222 469.493 708.218 471.569V505.749C708.218 507.827 709.043 509.819 710.512 511.288C711.981 512.757 713.974 513.582 716.051 513.582C718.129 513.582 720.121 512.757 721.59 511.288C723.059 509.819 723.884 507.827 723.884 505.749V471.569C723.88 469.493 723.054 467.503 721.586 466.035C720.118 464.566 718.127 463.74 716.051 463.736V463.736Z" fill="#F8FAFC"/>
<path d="M872.469 510.012C870.262 508.36 868.012 506.751 865.747 505.185C864.388 505.096 863.03 505.363 861.806 505.96C860.582 506.557 859.535 507.463 858.769 508.588L839.528 536.83C838.359 538.546 837.92 540.657 838.307 542.698C838.695 544.738 839.877 546.541 841.593 547.71C843.31 548.879 845.421 549.318 847.461 548.931C849.502 548.544 851.305 547.362 852.474 545.645L871.714 517.404C872.446 516.332 872.899 515.095 873.031 513.804C873.163 512.513 872.97 511.21 872.469 510.012V510.012Z" fill="#F8FAFC"/>
<path d="M959.888 638.787C959.501 637.834 958.93 636.968 958.208 636.236C957.486 635.505 956.627 634.923 955.68 634.523C954.733 634.124 953.717 633.915 952.689 633.908C951.661 633.902 950.643 634.098 949.691 634.486L918.017 647.346C916.095 648.129 914.562 649.643 913.755 651.556C912.948 653.469 912.934 655.624 913.716 657.547C914.497 659.471 916.01 661.005 917.922 661.813C919.834 662.622 921.989 662.638 923.913 661.858L955.587 648.998C957.508 648.211 959.04 646.694 959.846 644.78C960.652 642.867 960.667 640.711 959.888 638.787Z" fill="#F8FAFC"/>
<path d="M591.15 536.83L571.91 508.588C571.143 507.463 570.096 506.557 568.872 505.96C567.649 505.363 566.29 505.096 564.931 505.185C562.667 506.751 560.417 508.36 558.209 510.012C557.709 511.21 557.516 512.513 557.648 513.804C557.78 515.095 558.232 516.332 558.964 517.404L578.205 545.645C579.374 547.362 581.177 548.544 583.217 548.931C585.258 549.318 587.369 548.879 589.085 547.71C590.802 546.541 591.984 544.738 592.371 542.698C592.758 540.657 592.319 538.546 591.15 536.83V536.83Z" fill="#F8FAFC"/>
<path d="M512.666 647.344L480.992 634.484C479.068 633.702 476.912 633.717 474.999 634.525C473.085 635.333 471.571 636.868 470.789 638.792C470.008 640.716 470.022 642.872 470.83 644.786C471.637 646.699 473.172 648.214 475.096 648.996L506.77 661.856C508.694 662.636 510.849 662.62 512.761 661.811C514.673 661.003 516.186 659.469 516.967 657.545C517.749 655.622 517.734 653.467 516.928 651.554C516.121 649.641 514.588 648.127 512.666 647.344V647.344Z" fill="#F8FAFC"/>
<path d="M716.051 929.414C713.975 929.418 711.985 930.244 710.516 931.712C709.048 933.18 708.222 935.171 708.218 937.247V971.427C708.218 973.504 709.043 975.497 710.512 976.966C711.981 978.435 713.974 979.26 716.051 979.26C718.129 979.26 720.121 978.435 721.59 976.966C723.059 975.497 723.884 973.504 723.884 971.427V937.247C723.88 935.171 723.054 933.18 721.586 931.712C720.118 930.244 718.127 929.418 716.051 929.414V929.414Z" fill="#F8FAFC"/>
<path d="M871.714 925.614L852.474 897.373C851.895 896.523 851.154 895.795 850.294 895.231C849.434 894.667 848.472 894.278 847.461 894.087C846.451 893.895 845.413 893.904 844.406 894.113C843.399 894.323 842.443 894.729 841.593 895.307C840.743 895.886 840.016 896.627 839.452 897.487C838.888 898.347 838.499 899.31 838.307 900.32C838.116 901.331 838.125 902.369 838.334 903.376C838.544 904.382 838.949 905.338 839.528 906.188L858.769 934.429C859.535 935.555 860.582 936.46 861.806 937.057C863.03 937.654 864.388 937.922 865.747 937.833C868.012 936.267 870.262 934.657 872.469 933.005C872.97 931.808 873.163 930.505 873.031 929.214C872.899 927.923 872.447 926.685 871.714 925.614Z" fill="#F8FAFC"/>
<path d="M955.586 794.041L923.913 781.181C921.988 780.4 919.832 780.414 917.919 781.222C916.006 782.03 914.492 783.565 913.71 785.49C912.928 787.414 912.943 789.57 913.75 791.483C914.558 793.397 916.092 794.911 918.017 795.693L949.69 808.553C951.614 809.333 953.769 809.317 955.681 808.509C957.593 807.7 959.106 806.166 959.888 804.243C960.669 802.319 960.655 800.164 959.848 798.252C959.042 796.339 957.509 794.824 955.586 794.041V794.041Z" fill="#F8FAFC"/>
<path d="M589.085 895.307C587.368 894.138 585.258 893.699 583.217 894.087C581.177 894.474 579.374 895.656 578.205 897.372L558.964 925.613C558.232 926.684 557.78 927.922 557.648 929.213C557.516 930.504 557.709 931.807 558.209 933.004C560.417 934.657 562.667 936.266 564.931 937.832C566.29 937.921 567.649 937.654 568.872 937.057C570.096 936.46 571.143 935.554 571.91 934.429L591.15 906.187C591.729 905.337 592.135 904.382 592.345 903.375C592.554 902.368 592.563 901.33 592.371 900.319C592.18 899.309 591.791 898.346 591.227 897.486C590.663 896.626 589.935 895.886 589.085 895.307V895.307Z" fill="#F8FAFC"/>
<path d="M516.966 785.484C516.579 784.532 516.009 783.665 515.287 782.933C514.565 782.202 513.706 781.62 512.759 781.22C511.812 780.821 510.796 780.612 509.768 780.606C508.74 780.599 507.721 780.795 506.769 781.183L475.096 794.043C473.173 794.826 471.64 796.341 470.834 798.254C470.027 800.166 470.013 802.321 470.794 804.245C471.576 806.168 473.089 807.702 475.001 808.511C476.913 809.319 479.068 809.335 480.992 808.555L512.665 795.695C514.587 794.908 516.119 793.391 516.925 791.478C517.731 789.564 517.746 787.409 516.966 785.484V785.484Z" fill="#F8FAFC"/>
<path d="M726.205 717.601C726.929 721.883 725.924 726.277 723.412 729.818C720.9 733.36 717.085 735.761 712.806 736.494L573.809 760.137C571.689 760.498 569.518 760.437 567.422 759.959C565.325 759.481 563.342 758.594 561.588 757.35C559.834 756.106 558.342 754.528 557.197 752.707C556.052 750.886 555.278 748.858 554.917 746.737C554.556 744.617 554.617 742.446 555.095 740.349C555.573 738.252 556.46 736.27 557.704 734.516C558.948 732.762 560.526 731.269 562.347 730.125C564.168 728.98 566.196 728.205 568.317 727.845L707.313 704.202C711.594 703.479 715.988 704.483 719.53 706.995C723.072 709.507 725.472 713.322 726.205 717.601V717.601Z" fill="#3F3D56"/>
<path d="M872.499 871.602C870.503 873.61 867.791 874.744 864.959 874.756C862.127 874.767 859.407 873.654 857.394 871.662L707.767 723.208C705.759 721.212 704.625 718.501 704.615 715.67C704.605 712.838 705.72 710.119 707.714 708.109C709.708 706.1 712.418 704.964 715.25 704.951C718.081 704.939 720.801 706.051 722.812 708.043L872.44 856.497C874.448 858.493 875.582 861.205 875.593 864.037C875.605 866.869 874.492 869.59 872.499 871.602V871.602Z" fill="#3F3D56"/>
<path d="M715.344 740.003C725.569 740.003 733.858 731.714 733.858 721.489C733.858 711.264 725.569 702.975 715.344 702.975C705.119 702.975 696.83 711.264 696.83 721.489C696.83 731.714 705.119 740.003 715.344 740.003Z" fill="#CCCCCC"/>
<path d="M587.807 400.472C559.388 445.152 516.027 474.803 462.552 494.283C461.495 495.074 460.293 495.65 459.014 495.977C457.735 496.303 456.404 496.375 455.097 496.187C453.791 496 452.533 495.557 451.398 494.883C450.262 494.21 449.271 493.319 448.479 492.263V492.263C419.432 453.479 425.991 398.05 464.327 368.415C473.595 361.262 484.192 356.022 495.502 352.999C506.812 349.975 518.61 349.229 530.211 350.802C541.812 352.375 552.985 356.237 563.081 362.164C573.177 368.091 581.996 375.964 589.024 385.327L589.828 386.399C590.619 387.456 591.194 388.658 591.521 389.937C591.848 391.216 591.92 392.547 591.732 393.854C591.544 395.161 591.101 396.418 590.428 397.554C589.755 398.689 588.864 399.681 587.807 400.472V400.472Z" fill="#E6E6E6"/>
<path d="M841.649 385.327C848.677 375.964 857.496 368.091 867.592 362.164C877.688 356.237 888.861 352.375 900.462 350.802C912.063 349.229 923.861 349.975 935.171 352.999C946.481 356.022 957.078 361.262 966.346 368.415C1004.68 398.05 1011.24 453.479 982.194 492.263C981.402 493.319 980.411 494.21 979.275 494.883C978.14 495.557 976.882 496 975.576 496.187C974.269 496.375 972.938 496.303 971.659 495.977C970.38 495.65 969.177 495.074 968.121 494.283C918.478 475.277 877.768 442.387 842.865 400.472C840.731 398.874 839.32 396.493 838.941 393.854C838.562 391.215 839.247 388.533 840.845 386.399L841.649 385.327Z" fill="#E6E6E6"/>
<path d="M829.189 986.758C827.379 987.775 826.046 989.468 825.482 991.467C824.918 993.465 825.168 995.605 826.179 997.419L871.385 1078.2C872.4 1080.01 874.093 1081.35 876.092 1081.91C878.091 1082.48 880.232 1082.22 882.044 1081.21C883.857 1080.2 885.193 1078.5 885.757 1076.5C886.322 1074.51 886.07 1072.36 885.056 1070.55L839.85 989.769C838.833 987.958 837.14 986.625 835.142 986.061C833.143 985.497 831.003 985.747 829.189 986.758V986.758Z" fill="#E6E6E6"/>
<path d="M590.82 989.767L545.615 1070.55C544.601 1072.36 544.349 1074.5 544.913 1076.5C545.478 1078.5 546.813 1080.19 548.626 1081.21C550.439 1082.22 552.58 1082.48 554.579 1081.91C556.578 1081.35 558.271 1080.01 559.286 1078.2L604.491 997.417C604.994 996.52 605.315 995.532 605.436 994.51C605.556 993.488 605.475 992.453 605.195 991.463C604.916 990.473 604.444 989.548 603.807 988.74C603.17 987.932 602.38 987.258 601.482 986.755C600.584 986.253 599.596 985.932 598.574 985.812C597.553 985.691 596.517 985.773 595.527 986.053C594.537 986.333 593.612 986.805 592.804 987.442C591.997 988.079 591.323 988.869 590.821 989.767H590.82Z" fill="#E6E6E6"/>
<path d="M880.542 1098.94C893.914 1098.94 904.753 1088.1 904.753 1074.73C904.753 1061.36 893.914 1050.52 880.542 1050.52C867.171 1050.52 856.332 1061.36 856.332 1074.73C856.332 1088.1 867.171 1098.94 880.542 1098.94Z" fill="#E6E6E6"/>
<path d="M897.637 479.416C911.008 479.416 921.848 468.576 921.848 455.205C921.848 441.834 911.008 430.994 897.637 430.994C884.265 430.994 873.426 441.834 873.426 455.205C873.426 468.576 884.265 479.416 897.637 479.416Z" fill="#E6E6E6"/>
<path d="M713.918 422.406C727.29 422.406 738.129 411.567 738.129 398.195C738.129 384.824 727.29 373.984 713.918 373.984C700.547 373.984 689.708 384.824 689.708 398.195C689.708 411.567 700.547 422.406 713.918 422.406Z" fill="#E6E6E6"/>
<path d="M538.736 476.564C552.107 476.564 562.947 465.725 562.947 452.353C562.947 438.982 552.107 428.143 538.736 428.143C525.364 428.143 514.525 438.982 514.525 452.353C514.525 465.725 525.364 476.564 538.736 476.564Z" fill="#E6E6E6"/>
<path d="M554.414 1098.94C567.785 1098.94 578.625 1088.1 578.625 1074.73C578.625 1061.36 567.785 1050.52 554.414 1050.52C541.043 1050.52 530.203 1061.36 530.203 1074.73C530.203 1088.1 541.043 1098.94 554.414 1098.94Z" fill="#E6E6E6"/>
<path d="M861.558 857.974C862.512 859.469 863.783 860.736 865.28 861.686C866.777 862.636 868.464 863.247 870.222 863.474C871.981 863.702 873.768 863.541 875.457 863.004C877.147 862.466 878.698 861.565 880.001 860.363L917.992 880.719L915.954 858.414L880.191 842.503C878.026 840.447 875.183 839.257 872.199 839.157C869.216 839.058 866.299 840.056 864.002 841.963C861.706 843.87 860.188 846.553 859.738 849.504C859.287 852.455 859.935 855.469 861.558 857.974H861.558Z" fill="#FFB7B7"/>
<path d="M889.222 865.785L904.109 845.234L975.83 879.139L1065.08 862.393C1069.49 861.565 1074.03 861.719 1078.37 862.843C1082.72 863.967 1086.77 866.034 1090.22 868.897C1093.68 871.761 1096.46 875.35 1098.38 879.41C1100.29 883.47 1101.29 887.901 1101.3 892.39V892.39C1101.3 900.497 1098.09 908.275 1092.37 914.018C1086.65 919.762 1078.88 923 1070.77 923.024L968.495 923.214L889.222 865.785Z" fill="#3F3D56"/>
<path d="M866.301 1220.72L851.237 1213.52L871.929 1150.56L894.159 1161.19L866.301 1220.72Z" fill="#FFB7B7"/>
<path d="M967.278 1210.55C966.183 1211.23 965.087 1211.91 963.981 1212.58C961.779 1213.93 959.555 1215.26 957.332 1216.57C956.214 1217.22 955.086 1217.87 953.968 1218.51V1218.55L953.902 1218.56L953.88 1218.57L952.176 1218.99L949.731 1212.53L948.602 1209.55L947.009 1205.34L944.088 1197.63L928.709 1157.02L952.618 1151.12L953.514 1154.79H953.526L953.968 1156.6L962.321 1190.48L964.025 1197.4L964.081 1197.61L965.11 1201.75L965.995 1205.34L966.979 1209.34L967.278 1210.55Z" fill="#FFB7B7"/>
<path d="M1109.91 1067.96C1108.4 1070.4 1106.85 1072.82 1105.29 1075.22C1102.39 1079.69 1099.41 1084.09 1096.36 1088.43C1096.36 1088.44 1096.35 1088.44 1096.34 1088.45C1094.56 1090.1 1092.59 1091.54 1090.47 1092.74C1090.39 1092.8 1090.29 1092.85 1090.2 1092.9C1088.64 1093.76 1086.98 1094.43 1085.26 1094.88C1084.64 1095.04 1084.01 1095.19 1083.39 1095.35C1081.16 1095.88 1078.95 1096.33 1076.74 1096.73C1072.83 1097.43 1068.95 1097.92 1065.1 1098.23C1064.79 1098.27 1064.48 1098.29 1064.17 1098.31C1048.34 1099.47 1032.93 1097.6 1016.84 1094.54C1008.9 1093.03 1000.79 1091.23 992.392 1089.36C989.648 1088.74 986.893 1088.13 984.105 1087.52C983.895 1087.48 983.673 1087.43 983.452 1087.38C979.469 1086.51 975.42 1085.64 971.271 1084.79C966.049 1083.72 960.66 1082.68 955.062 1081.69L955.46 1089.58C955.792 1095.65 957.053 1101.63 959.2 1107.32C961.59 1114.31 963.482 1119.84 959.488 1131.36L957.562 1136.94C958.56 1139.71 958.903 1142.67 958.563 1145.59C958.223 1148.52 957.21 1151.32 955.604 1153.79L955.217 1154.37L971.271 1194.99L972.311 1197.62H964.09L953.978 1197.63H936.84L912.112 1148.02L910.928 1145.65V1145.53L913.483 1050.19C913.517 1049.35 913.583 1048.5 913.694 1047.66C914.144 1043.84 915.352 1040.14 917.246 1036.79C919.14 1033.44 921.682 1030.5 924.725 1028.14C927.64 1025.87 930.979 1024.19 934.548 1023.21C938.117 1022.24 941.845 1021.98 945.514 1022.46L953.978 1023.55L971.271 1025.79L983.452 1027.37L983.696 1027.4L1019.62 1032.05L1022.2 1021.54L1022.67 1021.36L1037.8 1015.82L1090.11 996.645L1090.24 996.601L1093.68 995.34L1094.09 996.004C1094.21 996.203 1094.34 996.402 1094.45 996.601C1097.85 1002.7 1100.62 1009.13 1102.71 1015.79C1106.23 1026.67 1109.13 1037.74 1111.4 1048.94C1111.5 1049.43 1111.58 1049.87 1111.66 1050.27L1111.69 1050.39C1111.73 1050.58 1111.75 1050.7 1111.76 1050.74C1112.97 1055.76 1112.13 1061.89 1109.91 1067.96Z" fill="#2F2E41"/>
<path d="M1112.13 1032.84C1111.96 1032.13 1111.75 1031.41 1111.53 1030.72C1109.77 1025.44 1107.73 1020.26 1105.4 1015.2C1102.79 1009.45 1099.66 1003.29 1095.93 996.617C1094.13 993.387 1092.19 990.027 1090.11 986.538C1089.07 984.79 1087.99 983.009 1086.87 981.194C1086.82 981.111 1086.78 981.03 1086.72 980.951L1086.4 980.42L1034.65 987.346L1015.37 989.924L1014.22 999.527L1013.95 1001.91C1013.93 1001.91 1013.93 1001.91 1013.95 1001.92L1013.17 1008.4V1008.41L1012.14 1016.98L1012.05 1016.96L983.454 1013.26L953.979 1009.44L938.147 1007.39C934.477 1006.92 930.75 1007.17 927.181 1008.15C923.612 1009.13 920.272 1010.8 917.357 1013.08C914.316 1015.44 911.774 1018.38 909.88 1021.73C907.986 1025.08 906.778 1028.78 906.327 1032.6C906.227 1033.37 906.161 1034.17 906.127 1034.95L891.191 1070.35C882.253 1091.52 876.561 1113.91 874.307 1136.78L863.354 1171.79L864.914 1171.94L888.126 1174.1L894.256 1174.67L907.754 1154.97C909.292 1152.72 910.752 1150.41 912.113 1148.04C914.353 1144.17 916.345 1140.17 918.076 1136.05L947.274 1066.56C949.531 1066.95 951.766 1067.32 953.979 1067.67C964.213 1069.33 974.038 1070.68 983.453 1071.73C1014.07 1075.15 1040.58 1075.42 1064.18 1072.52C1070.8 1071.71 1077.21 1070.65 1083.39 1069.33C1085.66 1068.85 1087.9 1068.34 1090.11 1067.79C1090.63 1067.67 1091.14 1067.55 1091.65 1067.42C1096.22 1066.24 1100.42 1063.93 1103.87 1060.71C1107.32 1057.48 1109.91 1053.44 1111.4 1048.96C1113.17 1043.77 1113.42 1038.17 1112.13 1032.84V1032.84Z" fill="#2F2E41"/>
<path d="M871.112 1210.45L854.815 1202.64L852.259 1201.41L848.177 1211.44L819.676 1217.71C818.267 1218.02 816.993 1218.77 816.041 1219.85C815.09 1220.94 814.51 1222.3 814.386 1223.74C814.263 1225.17 814.602 1226.61 815.355 1227.84C816.107 1229.07 817.234 1230.03 818.57 1230.58L846.418 1241.94L855.258 1233.98L853.089 1244.66L863.578 1248.94L875.073 1212.35L871.112 1210.45Z" fill="#2F2E41"/>
<path d="M971.264 1195.03L972.305 1197.66H971.264V1195.03Z" fill="#2F2E41"/>
<path d="M965.594 1198.21L948.517 1204.13L945.837 1205.05L949.989 1215.05L934.151 1239.56C933.367 1240.77 932.991 1242.2 933.078 1243.64C933.164 1245.08 933.709 1246.46 934.633 1247.57C935.556 1248.67 936.81 1249.46 938.211 1249.8C939.612 1250.15 941.086 1250.04 942.419 1249.48L970.202 1237.96L970.886 1226.09L976.858 1235.2L987.323 1230.86L969.747 1196.78L965.594 1198.21Z" fill="#2F2E41"/>
<path d="M1107.87 1048.91C1106.85 1048.91 1105.86 1048.66 1104.96 1048.19L1014.85 1001.1L1013.8 996.838L1011.84 983.349L1011.87 983.222L1020.44 943.712C1020.28 943.372 1019.95 942.816 1019.58 942.187C1015.76 935.705 1004.11 915.975 1026.34 888.809L1065.35 843.322L1098.84 841.881L1099.22 842.362C1108.17 853.6 1114.21 866.877 1116.8 881.011C1119.38 895.146 1118.44 909.7 1114.04 923.381L1110.56 986.353L1114.3 999.07C1116.48 1006.54 1116.12 1014.53 1113.27 1021.78L1114.13 1042.37C1114.16 1043.21 1114.02 1044.06 1113.72 1044.85C1113.42 1045.64 1112.97 1046.36 1112.39 1046.97C1111.8 1047.58 1111.1 1048.06 1110.32 1048.4C1109.55 1048.73 1108.71 1048.91 1107.87 1048.91L1107.87 1048.91Z" fill="#3F3D56"/>
<path d="M1029.69 1100.8C1031.22 1099.9 1032.53 1098.67 1033.53 1097.21C1034.53 1095.74 1035.2 1094.08 1035.49 1092.33C1035.78 1090.58 1035.68 1088.79 1035.2 1087.08C1034.72 1085.37 1033.88 1083.79 1032.72 1082.45L1054.39 1045.19L1032.02 1046.45L1014.88 1081.64C1012.75 1083.73 1011.46 1086.53 1011.26 1089.51C1011.05 1092.49 1011.95 1095.44 1013.77 1097.8C1015.6 1100.16 1018.23 1101.77 1021.16 1102.32C1024.1 1102.88 1027.13 1102.33 1029.69 1100.8L1029.69 1100.8Z" fill="#FFB7B7"/>
<path d="M1038.45 1073.44L1018.43 1057.84L1054.8 987.345L1041.17 897.568C1040.5 893.131 1040.81 888.599 1042.09 884.296C1043.36 879.992 1045.57 876.022 1048.55 872.666C1051.53 869.311 1055.21 866.654 1059.34 864.882C1063.46 863.111 1067.93 862.269 1072.41 862.417V862.417C1080.51 862.693 1088.18 866.171 1093.72 872.09C1099.26 878.008 1102.22 885.883 1101.97 893.986L1098.6 996.209L1038.45 1073.44Z" fill="#3F3D56"/>
<path d="M1043.86 824.413V791.278C1043.85 779.502 1048.53 768.205 1056.85 759.873C1065.17 751.54 1076.46 746.855 1088.24 746.848C1100.01 746.84 1111.31 751.511 1119.64 759.832C1127.97 768.154 1132.66 779.444 1132.66 791.22V791.278C1140.49 807.585 1135.59 815.338 1132.66 824.413C1132.66 825.994 1132.03 827.508 1130.92 828.626C1129.8 829.743 1128.28 830.372 1126.7 830.375H1049.83C1048.25 830.373 1046.73 829.745 1045.61 828.627C1044.49 827.509 1043.86 825.994 1043.86 824.413V824.413Z" fill="#2F2E41"/>
<path d="M1073.71 828.206C1092.07 828.206 1106.95 813.326 1106.95 794.97C1106.95 776.615 1092.07 761.734 1073.71 761.734C1055.36 761.734 1040.48 776.615 1040.48 794.97C1040.48 813.326 1055.36 828.206 1073.71 828.206Z" fill="#FFB7B7"/>
<path d="M1108.49 803.706C1108.19 803.658 1107.88 803.595 1107.58 803.547C1102.4 802.628 1097.21 801.724 1092.05 800.789L1091.57 789.073L1085.31 799.568C1071.02 804.308 1057.66 801.629 1045.09 795.715C1040.94 793.747 1036.92 791.528 1033.04 789.073C1034.09 782.593 1036.58 776.431 1040.33 771.038C1044.07 765.645 1048.98 761.157 1054.68 757.903C1055.15 757.634 1055.61 757.396 1056.09 757.158C1056.09 757.158 1056.09 757.158 1056.1 757.157C1056.1 757.156 1056.1 757.155 1056.1 757.153C1056.1 757.152 1056.1 757.15 1056.1 757.148C1056.1 757.146 1056.1 757.144 1056.1 757.142C1056.91 756.762 1057.74 756.397 1058.56 756.064C1065.02 753.542 1072.05 752.903 1078.86 754.222C1085.66 755.541 1091.95 758.764 1096.99 763.516C1107.14 773.203 1111.71 789.199 1108.49 803.706Z" fill="#2F2E41"/>
</svg>
