<svg width="1600" height="1600" viewBox="0 0 1600 1600" fill="none" xmlns="http://www.w3.org/2000/svg">
<rect width="1600" height="1600" rx="8" fill="#F8FAFC"/>
<path d="M332.977 711.665C329.126 711.65 325.379 710.409 322.28 708.123L296.501 689.395C294.363 687.833 291.783 686.991 289.134 686.991C286.486 686.991 283.906 687.833 281.767 689.395L255.989 708.123C252.88 710.382 249.136 711.598 245.293 711.598C241.45 711.599 237.706 710.382 234.597 708.124C231.488 705.865 229.174 702.681 227.986 699.026C226.798 695.371 226.798 691.435 227.985 687.78L237.831 657.476C238.655 654.959 238.657 652.245 237.839 649.726C237.021 647.207 235.424 645.013 233.279 643.46L207.5 624.731C204.392 622.472 202.078 619.287 200.89 615.632C199.703 611.977 199.703 608.04 200.891 604.386C202.078 600.731 204.392 597.546 207.501 595.287C210.61 593.028 214.355 591.812 218.197 591.812H250.06C252.708 591.816 255.29 590.98 257.432 589.424C259.574 587.867 261.167 585.671 261.981 583.151L271.828 552.848C273.015 549.192 275.329 546.007 278.438 543.747C281.547 541.488 285.292 540.271 289.135 540.271C292.978 540.271 296.723 541.488 299.832 543.747C302.941 546.007 305.255 549.192 306.442 552.848L316.288 583.151C317.102 585.671 318.695 587.868 320.838 589.424C322.98 590.98 325.561 591.816 328.21 591.812H360.073C363.916 591.812 367.66 593.028 370.769 595.287C373.878 597.546 376.192 600.731 377.379 604.386C378.567 608.04 378.567 611.977 377.38 615.632C376.192 619.287 373.879 622.472 370.77 624.731L344.992 643.46C342.846 645.012 341.248 647.206 340.43 649.726C339.612 652.245 339.614 654.959 340.437 657.476L350.284 687.78C351.515 691.431 351.537 695.381 350.346 699.046C349.155 702.71 346.815 705.893 343.673 708.123C340.574 710.409 336.828 711.65 332.977 711.665V711.665Z" fill="#3B82F6"/>
<path d="M556.583 711.665C552.732 711.65 548.987 710.409 545.888 708.123L520.109 689.395C517.969 687.836 515.389 686.997 512.742 686.997C510.094 686.997 507.514 687.836 505.374 689.395L479.595 708.123C476.487 710.382 472.743 711.599 468.9 711.599C465.057 711.599 461.313 710.382 458.204 708.124C455.095 705.865 452.781 702.681 451.593 699.026C450.405 695.371 450.405 691.434 451.593 687.78L461.438 657.476C462.261 654.959 462.264 652.245 461.446 649.726C460.627 647.207 459.03 645.013 456.885 643.46L431.107 624.731C427.998 622.472 425.684 619.287 424.497 615.632C423.31 611.977 423.31 608.04 424.497 604.386C425.685 600.731 427.999 597.546 431.108 595.287C434.217 593.028 437.961 591.812 441.804 591.812H473.667C476.315 591.816 478.896 590.98 481.039 589.424C483.181 587.868 484.774 585.671 485.588 583.151L495.434 552.848C496.622 549.192 498.936 546.007 502.045 543.747C505.154 541.488 508.898 540.271 512.742 540.271C516.585 540.271 520.329 541.488 523.439 543.747C526.548 546.007 528.862 549.192 530.049 552.848L539.896 583.151C540.709 585.671 542.302 587.867 544.445 589.424C546.587 590.98 549.168 591.816 551.816 591.812H583.679C587.522 591.812 591.266 593.028 594.375 595.287C597.484 597.546 599.798 600.731 600.986 604.386C602.173 608.04 602.173 611.977 600.986 615.632C599.799 619.287 597.485 622.472 594.376 624.731L568.598 643.46C566.453 645.013 564.856 647.207 564.037 649.726C563.219 652.245 563.222 654.959 564.045 657.476L573.89 687.78C575.121 691.431 575.143 695.381 573.952 699.045C572.762 702.71 570.422 705.893 567.28 708.123C564.181 710.409 560.435 711.65 556.583 711.665V711.665Z" fill="#3B82F6"/>
<path d="M695.876 712.72C691.647 712.703 687.533 711.342 684.129 708.833C680.677 706.383 678.106 702.886 676.798 698.86C675.49 694.834 675.513 690.494 676.865 686.482L686.713 656.18C687.418 654.022 687.42 651.697 686.719 649.539C686.017 647.38 684.649 645.5 682.81 644.169L657.031 625.439C653.616 622.958 651.074 619.459 649.77 615.444C648.465 611.43 648.465 607.105 649.77 603.09C651.074 599.076 653.616 595.577 657.031 593.096C660.447 590.615 664.559 589.279 668.781 589.279H700.645C702.914 589.283 705.127 588.566 706.963 587.232C708.799 585.898 710.164 584.015 710.861 581.855L720.709 551.552C722.013 547.537 724.555 544.039 727.97 541.558C731.385 539.077 735.498 537.74 739.719 537.74C743.94 537.74 748.053 539.077 751.468 541.558C754.883 544.039 757.425 547.537 758.73 551.552L768.576 581.855C769.273 584.015 770.638 585.898 772.474 587.232C774.311 588.566 776.523 589.283 778.793 589.279H810.657C814.878 589.279 818.99 590.615 822.405 593.096C825.82 595.578 828.362 599.076 829.667 603.091C830.971 607.105 830.971 611.43 829.667 615.444C828.363 619.459 825.821 622.958 822.406 625.439L796.628 644.169C794.789 645.499 793.42 647.379 792.718 649.538C792.017 651.697 792.019 654.022 792.724 656.18L802.571 686.482C803.876 690.497 803.875 694.822 802.571 698.836C801.266 702.851 798.724 706.35 795.309 708.831C791.894 711.312 787.781 712.648 783.56 712.648C779.338 712.648 775.226 711.312 771.81 708.831L746.033 690.103C744.199 688.765 741.988 688.044 739.718 688.044C737.448 688.044 735.237 688.765 733.403 690.103L707.625 708.831C704.221 711.341 700.106 712.704 695.876 712.72V712.72ZM739.719 678.794C743.941 678.795 748.054 680.136 751.466 682.623L777.245 701.351C779.08 702.685 781.291 703.403 783.56 703.404C785.829 703.404 788.039 702.686 789.875 701.353C791.711 700.019 793.077 698.138 793.778 695.98C794.479 693.822 794.479 691.498 793.778 689.34L783.932 659.037C782.619 655.023 782.615 650.696 783.92 646.679C785.226 642.663 787.773 639.165 791.194 636.689L816.971 617.959C818.807 616.625 820.173 614.745 820.874 612.587C821.575 610.429 821.575 608.105 820.874 605.948C820.173 603.79 818.807 601.91 816.971 600.576C815.136 599.243 812.925 598.524 810.657 598.524H778.793C774.57 598.532 770.454 597.199 767.037 594.716C763.621 592.234 761.081 588.731 759.783 584.712L749.936 554.41C749.235 552.252 747.869 550.371 746.033 549.038C744.198 547.704 741.987 546.986 739.718 546.986C737.449 546.986 735.239 547.704 733.403 549.038C731.568 550.371 730.202 552.252 729.501 554.41L719.654 584.712C718.356 588.731 715.817 592.234 712.4 594.717C708.984 597.199 704.868 598.532 700.645 598.524H668.781C666.512 598.524 664.302 599.242 662.466 600.576C660.63 601.909 659.264 603.789 658.563 605.947C657.862 608.105 657.862 610.429 658.563 612.587C659.264 614.745 660.63 616.625 662.465 617.959L688.245 636.689C691.666 639.165 694.212 642.663 695.517 646.68C696.822 650.696 696.818 655.023 695.506 659.037L685.658 689.34C684.957 691.498 684.957 693.822 685.658 695.98C686.359 698.138 687.726 700.018 689.561 701.351C691.397 702.685 693.607 703.403 695.876 703.403C698.145 703.403 700.355 702.684 702.191 701.351L727.97 682.623C731.383 680.136 735.496 678.795 739.719 678.794Z" fill="#3F3D56"/>
<path d="M1180.88 759.191L1117.55 813.632L1018.29 898.925L1004.88 910.459C1003.65 911.504 1002.64 912.783 1001.91 914.222C1001.18 915.66 1000.75 917.229 1000.63 918.838C1000.46 921.173 1000.95 923.509 1002.06 925.573C1002.48 926.351 1002.98 927.082 1003.56 927.751L1010.75 936.131L1021.71 948.874C1021.91 949.1 1022.1 949.31 1022.32 949.524C1024.51 951.714 1027.44 952.998 1030.54 953.117C1033.63 953.236 1036.65 952.183 1039 950.167L1151.55 853.461L1215.02 798.914C1217.48 796.789 1218.99 793.775 1219.24 790.533C1219.48 787.291 1218.43 784.085 1216.31 781.618L1212.48 777.165L1198.17 760.509C1197.12 759.285 1195.84 758.28 1194.41 757.552C1192.97 756.823 1191.4 756.385 1189.8 756.262C1188.19 756.14 1186.58 756.335 1185.04 756.838C1183.51 757.34 1182.1 758.14 1180.88 759.191V759.191Z" fill="#3B82F6"/>
<path d="M1229.14 713.387C1284.9 713.387 1330.1 668.184 1330.1 612.422C1330.1 556.661 1284.9 511.457 1229.14 511.457C1173.38 511.457 1128.17 556.661 1128.17 612.422C1128.17 668.184 1173.38 713.387 1229.14 713.387Z" fill="#3B82F6"/>
<path d="M1236.56 1004.5V1236.56C1236.56 1239.82 1237.85 1242.93 1240.15 1245.23C1242.45 1247.53 1245.57 1248.82 1248.82 1248.83H1276.67C1279.92 1248.82 1283.03 1247.53 1285.33 1245.23C1287.63 1242.93 1288.93 1239.82 1288.93 1236.56V1004.5C1288.93 1001.25 1287.63 998.134 1285.33 995.835C1283.03 993.536 1279.92 992.243 1276.67 992.24H1248.82C1245.57 992.243 1242.45 993.536 1240.15 995.835C1237.85 998.134 1236.56 1001.25 1236.56 1004.5Z" fill="#2F2E41"/>
<path d="M1177.72 1004.5V1236.56C1177.72 1238.17 1178.03 1239.77 1178.65 1241.26C1179.27 1242.74 1180.17 1244.1 1181.31 1245.23C1182.45 1246.37 1183.8 1247.28 1185.29 1247.89C1186.78 1248.51 1188.37 1248.83 1189.98 1248.83H1217.82C1221.08 1248.82 1224.19 1247.53 1226.49 1245.23C1228.79 1242.93 1230.08 1239.82 1230.09 1236.56V1004.5C1230.08 1001.25 1228.79 998.134 1226.49 995.835C1224.19 993.536 1221.08 992.243 1217.82 992.24H1189.98C1188.37 992.24 1186.78 992.557 1185.29 993.173C1183.8 993.79 1182.45 994.693 1181.31 995.832C1180.17 996.97 1179.27 998.322 1178.65 999.81C1178.03 1001.3 1177.72 1002.89 1177.72 1004.5V1004.5Z" fill="#2F2E41"/>
<path d="M1189.02 1036.29C1178.54 1036.28 1168.2 1033.91 1158.77 1029.36C1149.33 1024.81 1141.04 1018.19 1134.51 1010C1127.98 1001.8 1123.38 992.242 1121.05 982.027C1118.72 971.812 1118.72 961.203 1121.05 950.988L1152.55 812.913C1152.57 798.632 1156.53 784.632 1163.99 772.453C1171.45 760.274 1182.12 750.385 1194.83 743.875C1207.54 737.364 1221.8 734.482 1236.04 735.546C1250.28 736.61 1263.95 741.579 1275.56 749.906C1285.59 757.106 1293.76 766.587 1299.4 777.567C1305.05 788.547 1308 800.711 1308.02 813.057C1308.06 814.304 1312.46 942.712 1314.3 1002.05C1314.42 1006.11 1313.74 1010.15 1312.3 1013.95C1310.86 1017.75 1308.68 1021.22 1305.89 1024.18C1303.1 1027.13 1299.76 1029.5 1296.05 1031.15C1292.34 1032.81 1288.34 1033.72 1284.28 1033.82L1191.27 1036.26C1190.52 1036.28 1189.77 1036.29 1189.02 1036.29Z" fill="#2F2E41"/>
<path d="M1143.88 657.054L1143.98 653.281C1136.96 653.086 1130.77 652.646 1126.12 649.249C1124.81 648.231 1123.72 646.941 1122.95 645.467C1122.17 643.993 1121.72 642.369 1121.63 640.706C1121.55 639.69 1121.7 638.668 1122.08 637.721C1122.46 636.774 1123.05 635.927 1123.81 635.245C1126.89 632.638 1131.86 633.482 1135.48 635.142L1138.6 636.573L1132.62 592.824L1128.88 593.336L1133.97 630.551C1129.05 629.105 1124.49 629.727 1121.37 632.364C1120.17 633.41 1119.23 634.72 1118.62 636.19C1118.01 637.66 1117.75 639.251 1117.86 640.838C1117.97 643.073 1118.57 645.256 1119.61 647.235C1120.65 649.214 1122.12 650.942 1123.9 652.296C1129.87 656.662 1137.64 656.879 1143.88 657.054Z" fill="#2F2E41"/>
<path d="M1174.53 596.545H1154.21V600.318H1174.53V596.545Z" fill="#2F2E41"/>
<path d="M1255.52 778.045L1258.99 861.486L1264.4 992.241L1265.14 1009.92C1265.2 1011.53 1265.58 1013.11 1266.25 1014.58C1266.93 1016.04 1267.89 1017.36 1269.08 1018.44C1270.81 1020.03 1272.95 1021.09 1275.25 1021.5C1276.12 1021.65 1277.01 1021.71 1277.89 1021.67L1288.93 1021.22L1305.72 1020.52C1306.02 1020.5 1306.3 1020.48 1306.61 1020.44C1309.68 1020.08 1312.51 1018.58 1314.52 1016.22C1316.53 1013.87 1317.58 1010.84 1317.45 1007.75L1311.32 859.486L1307.85 775.875C1307.71 772.627 1306.28 769.568 1303.89 767.369C1301.5 765.169 1298.33 764.008 1295.08 764.141L1289.21 764.386L1267.27 765.292C1265.66 765.355 1264.08 765.736 1262.62 766.412C1261.15 767.087 1259.84 768.045 1258.75 769.23C1257.66 770.414 1256.81 771.803 1256.26 773.315C1255.7 774.828 1255.45 776.435 1255.52 778.045V778.045Z" fill="#3B82F6"/>
<path d="M1247.05 785.1V849.242C1247.05 852.436 1248.3 855.504 1250.53 857.791C1252.76 860.078 1255.8 861.404 1258.99 861.485C1259.1 861.502 1259.2 861.508 1259.31 861.504H1304.59C1305.31 861.502 1306.04 861.433 1306.76 861.297C1308.39 861.012 1309.94 860.395 1311.32 859.485C1313.02 858.366 1314.41 856.845 1315.37 855.058C1316.34 853.271 1316.84 851.273 1316.85 849.242V785.1C1316.84 775.847 1313.16 766.977 1306.61 760.434C1300.07 753.891 1291.2 750.21 1281.95 750.199C1279.55 750.193 1277.16 750.44 1274.82 750.935C1266.97 752.583 1259.93 756.877 1254.88 763.096C1249.82 769.316 1247.06 777.085 1247.05 785.1V785.1Z" fill="#2F2E41"/>
<path d="M1114.76 811.87C1115.23 813.394 1115.99 814.81 1117.01 816.039L1145.69 851.072C1146.2 851.719 1146.79 852.302 1147.44 852.807C1149.63 854.593 1152.37 855.566 1155.2 855.563C1158.02 855.559 1160.76 854.579 1162.95 852.789L1212.58 812.172C1216.13 809.268 1219.07 805.694 1221.23 801.655C1223.4 797.615 1224.75 793.188 1225.2 788.627C1225.66 784.067 1225.21 779.461 1223.88 775.073C1222.56 770.686 1220.38 766.602 1217.48 763.056C1214.57 759.509 1211 756.569 1206.96 754.404C1202.92 752.239 1198.49 750.89 1193.93 750.436C1189.37 749.981 1184.77 750.429 1180.38 751.755C1175.99 753.08 1171.91 755.257 1168.36 758.16L1118.73 798.777C1116.85 800.325 1115.47 802.394 1114.76 804.724C1114.06 807.054 1114.06 809.54 1114.76 811.87V811.87Z" fill="#2F2E41"/>
<path d="M1213.68 553.056C1196.86 560.059 1178.75 567.806 1160.11 565.659C1144.83 563.901 1130.16 554.972 1126.64 539.195C1123.28 524.118 1130.23 508.391 1141.3 498.292C1153.83 486.868 1171.12 481.342 1187.63 479.01C1197.6 477.602 1208.68 477.511 1217.87 482.178C1225.23 485.915 1231.85 492.67 1232.99 501.162L1240.06 499.246C1235.06 490.774 1237.45 480.506 1242.98 472.896C1249.63 463.745 1260.79 459.935 1271.75 459.616C1294.05 458.969 1316.86 469.315 1334.81 481.837C1352.49 494.214 1367.05 510.54 1377.32 529.521C1388.84 550.842 1395.19 576.337 1391.31 600.53C1387.37 625.153 1371.44 648.519 1346.78 655.931C1342.12 657.334 1344.1 664.661 1348.8 663.25C1372.34 656.174 1389.72 635.793 1396.4 612.55C1404.07 585.84 1398.8 556.589 1387.02 531.892C1376.59 510.304 1361.01 491.609 1341.66 477.448C1322.32 463.19 1297.25 451.72 1272.81 452.005C1258.77 452.169 1245.18 457.173 1236.68 468.722C1229.42 478.583 1227.1 492.216 1233.5 503.077C1235.26 506.058 1241.1 505.081 1240.57 501.162C1237.91 481.29 1218.68 471.075 1200.16 470.634C1189.71 470.594 1179.31 472.131 1169.32 475.195C1160.07 477.727 1151.3 481.738 1143.33 487.073C1128.38 497.425 1117.86 513.957 1118.28 532.574C1118.7 551.146 1131.21 565.412 1148.55 570.905C1171.44 578.154 1194.65 569.139 1215.7 560.374C1216.65 560.078 1217.45 559.431 1217.94 558.564C1218.44 557.697 1218.58 556.675 1218.35 555.706C1218.08 554.739 1217.43 553.917 1216.56 553.421C1215.68 552.925 1214.65 552.794 1213.68 553.056L1213.68 553.056Z" fill="#2F2E41"/>
<path d="M905.595 925.079C901.366 925.062 897.252 923.701 893.847 921.193C890.396 918.742 887.825 915.245 886.517 911.219C885.208 907.193 885.232 902.853 886.584 898.842L896.432 868.539C897.137 866.382 897.139 864.056 896.437 861.898C895.736 859.739 894.368 857.859 892.529 856.528L866.75 837.798C863.335 835.317 860.793 831.818 859.488 827.804C858.184 823.789 858.184 819.464 859.488 815.45C860.793 811.435 863.335 807.936 866.75 805.455C870.165 802.974 874.278 801.638 878.5 801.638H910.363C912.633 801.642 914.845 800.926 916.681 799.591C918.517 798.257 919.882 796.374 920.579 794.214L930.427 763.911C931.732 759.897 934.274 756.398 937.689 753.917C941.104 751.436 945.217 750.1 949.438 750.1C953.659 750.1 957.772 751.436 961.187 753.917C964.602 756.398 967.144 759.897 968.449 763.911L978.295 794.214C978.992 796.374 980.357 798.257 982.193 799.591C984.03 800.925 986.242 801.642 988.512 801.638H1020.38C1024.6 801.638 1028.71 802.975 1032.12 805.456C1035.54 807.937 1038.08 811.436 1039.39 815.45C1040.69 819.465 1040.69 823.789 1039.39 827.804C1038.08 831.818 1035.54 835.317 1032.13 837.798L1006.35 856.528C1004.51 857.859 1003.14 859.739 1002.44 861.897C1001.74 864.056 1001.74 866.382 1002.44 868.539L1012.29 898.842C1013.59 902.857 1013.59 907.181 1012.29 911.196C1010.99 915.21 1008.44 918.709 1005.03 921.19C1001.61 923.671 997.5 925.008 993.279 925.008C989.057 925.008 984.944 923.671 981.529 921.19L955.752 902.462C953.918 901.125 951.707 900.404 949.437 900.404C947.167 900.404 944.956 901.125 943.122 902.462L917.344 921.19C913.94 923.701 909.825 925.063 905.595 925.079V925.079ZM949.438 891.154C953.66 891.155 957.773 892.495 961.185 894.982L986.963 913.71C988.799 915.044 991.009 915.763 993.278 915.763C995.547 915.764 997.758 915.046 999.594 913.712C1001.43 912.378 1002.8 910.498 1003.5 908.34C1004.2 906.182 1004.2 903.857 1003.5 901.699L993.65 871.397C992.338 867.382 992.334 863.055 993.639 859.039C994.944 855.022 997.491 851.524 1000.91 849.048L1026.69 830.318C1028.53 828.984 1029.89 827.104 1030.59 824.946C1031.29 822.789 1031.29 820.465 1030.59 818.307C1029.89 816.149 1028.53 814.269 1026.69 812.935C1024.85 811.602 1022.64 810.884 1020.38 810.884H988.512C984.289 810.891 980.172 809.558 976.756 807.076C973.339 804.594 970.799 801.091 969.502 797.072L959.655 766.769C958.954 764.611 957.588 762.731 955.752 761.397C953.917 760.063 951.706 759.345 949.437 759.345C947.168 759.345 944.958 760.063 943.122 761.397C941.287 762.731 939.92 764.611 939.219 766.769L929.372 797.072C928.075 801.091 925.535 804.594 922.119 807.076C918.703 809.558 914.586 810.892 910.363 810.884H878.5C876.231 810.883 874.02 811.602 872.185 812.935C870.349 814.268 868.983 816.149 868.282 818.306C867.581 820.464 867.581 822.788 868.282 824.946C868.983 827.104 870.349 828.984 872.184 830.318L897.963 849.048C901.384 851.524 903.931 855.023 905.236 859.039C906.541 863.056 906.537 867.383 905.225 871.397L895.377 901.699C894.676 903.857 894.676 906.182 895.377 908.339C896.078 910.497 897.444 912.377 899.28 913.711C901.115 915.044 903.326 915.763 905.595 915.762C907.864 915.762 910.074 915.044 911.91 913.71L937.689 894.982C941.102 892.495 945.215 891.155 949.438 891.154V891.154Z" fill="#3F3D56"/>
</svg>
