<svg xmlns="http://www.w3.org/2000/svg" viewBox="0 0 676.77 732.86"><defs><style>.cls-1{fill:#38bdf8;}.cls-2{fill:#fff;}</style></defs><g id="Layer_2" data-name="Layer 2"><g id="Layer_1-2" data-name="Layer 1"><path class="cls-1" d="M272.51,415.52c-6.73,2-13,4.56-19.53,5.67a56.18,56.18,0,0,1-64.88-47.14c-3.95-26.39,10.23-51.15,35.26-61.1,3.69-1.47,5.64-3.24,6.76-7.27a56,56,0,0,1,55.71-41.15c4.7.12,9.41,1.2,14,2.17a5.91,5.91,0,0,0,5.35-1.09c28.09-20.7,64.44-17.78,88.92,7.16a6,6,0,0,0,5.85,2A56.67,56.67,0,0,1,464,325.15c.25,2.59,1.55,3.92,3.36,5.36A56.73,56.73,0,0,1,471,417.07a53.78,53.78,0,0,1-23.67,13c-2.72.69-3.81,2-4.33,4.71-4.57,23.94-23,41.59-47.27,45.54-23,3.75-46.3-7.58-58-28.5-1.61-2.88-3.2-3.8-6.46-3.71-24.9.66-43.91-9.91-57.43-30.67C273.3,416.6,272.73,415.83,272.51,415.52Zm74.55,30.25c5.95,16.14,29.23,27.5,48.48,23.82C414.33,466,432.31,448.1,431.86,433c-3.6.2-7.2.6-10.79.56a9.74,9.74,0,0,0-7.39,2.87c-4.46,4.19-9.91,5-15.58,2.55a13.74,13.74,0,0,1-8.73-12.34c-.39-6.14,2.13-10.89,7.54-13.91,7.54-4.21,16.78-1.05,20.51,6.93.67,1.44.71,3.45,3.11,3.29,4.13-.29,8.26-.54,12.57-.82.33-8.14-2.68-14.74-5.77-21.53l9.28-5.34c1.76,4.37,3.55,8.15,4.8,12.11s2,8.08,2.91,12.11c14.3-1.78,29.37-17.33,33.19-33.91,4.47-19.39-5-37.82-13.8-43.53-1.36,3.92-2.45,8-4.18,11.75a71.6,71.6,0,0,1-6.3,10.85,11.67,11.67,0,0,0-2.42,7.24c.06,8.84-7.14,15.07-16,14.27A14.61,14.61,0,1,1,440,357.5c1.45.37,2.85.9,4.18,1.33,12.56-15.09,12.88-38.24.93-54.9-9.52-13.29-30.1-22.47-41.06-18.16a72.58,72.58,0,0,1,8.43,25.33c.17,1.22,1.56,2.52,2.7,3.31,5.82,4,8.36,10.39,6.46,16.77a14.72,14.72,0,0,1-27.94.68,14.19,14.19,0,0,1,5.69-16.95c2.18-1.45,2.47-2.79,2.08-5.14a56.63,56.63,0,0,0-64-46.55c-27.28,3.87-47.36,26.66-48.47,55-1,26.11,18.43,50.61,44.52,56.25,2.49.54,3.94.23,5.55-2A14.36,14.36,0,0,1,359.12,369c5.15,3.69,7.19,8.78,6,15-1.13,6-5.66,10.3-11.9,11.5a14.17,14.17,0,0,1-14.75-6.62,7.35,7.35,0,0,0-5.48-3.81c-48-9.06-70.47-65.74-41.81-105.23.8-1.1,1.56-2.24,2.65-3.81a23.28,23.28,0,0,0-4.52-.89c-4.73.1-9.57-.15-14.18.7-30.18,5.6-46.36,39.76-31.89,66.88,1.18,2.22,2.44,3.35,5.2,3.07a16.44,16.44,0,0,1,7,.76A14.44,14.44,0,0,1,264,364.8c-2.3,7-10.66,11.29-18,9.15a14.25,14.25,0,0,1-9.7-17.21,9.07,9.07,0,0,0-1.14-7.77,52.24,52.24,0,0,1-6.94-21.81c-.14-1.57-.58-3.11-.92-4.86a29,29,0,0,0-2.94,1c-17.37,8.63-26.61,22.74-27.2,42-.57,18.79,12.29,37,30,43.53a45.94,45.94,0,0,0,37.82-2.11c2.23-1.11,3.13-2.35,2.13-4.93a30.63,30.63,0,0,1-1.6-6.93c-.47-3.36-.66-6.76-1-10.12h10.21c.12,1,.23,1.71.28,2.39,2.14,30.25,27,52.12,57.14,50.34,25.73-1.51,47.43-22.55,49.62-48.08,2.3-26.94-15.14-51.31-40.93-57.31-2.71-.64-4.42-.56-6.27,2.11-3.81,5.51-10.59,7.15-16.86,4.8a14.6,14.6,0,0,1,1.21-27.71,14.15,14.15,0,0,1,16.38,6.23,7.42,7.42,0,0,0,5.49,3.78A64.06,64.06,0,0,1,351.69,444ZM254.31,360a4.16,4.16,0,0,0-4.31-4.15,4.53,4.53,0,0,0-4.07,4.08,4.44,4.44,0,0,0,4.22,4.35A4.13,4.13,0,0,0,254.31,360ZM440.4,371.79a4.27,4.27,0,0,0-3.85-4.18,4.31,4.31,0,0,0-4.29,3.74,4.08,4.08,0,1,0,8.14.44Zm-36.32,57.82a4,4,0,0,0-.21-8.09,4.13,4.13,0,0,0-3.86,4.17A4,4,0,0,0,404.08,429.61Zm-81-100.2a4,4,0,0,0,0-8.07,4,4,0,1,0,0,8.07Zm88.44-2.51a4,4,0,0,0-4.08-3.92,4,4,0,0,0,.21,8.06A4,4,0,0,0,411.53,326.9Zm-56.72,54.17a4,4,0,1,0-4,4A4.19,4.19,0,0,0,354.81,381.07Z"/><path class="cls-1" d="M553.59,560.25c89.82-106.2,89.61-261-6.23-366.6L577.63,147c124.67,111.22,136,331.08,9.62,458.26Z"/><path class="cls-1" d="M319.07,51.65c-2.45,19-4.77,36.95-7.19,55.73-140.35,28.35-221,114.07-240.42,257.9-8.79,0-18.11-.72-27.25.21-8.74.88-17.31,3.48-26,5.33C13,240.9,122.66,68.44,319.07,51.65Z"/><path class="cls-1" d="M354.34,655.55c4.8,19,9.22,36.39,13.62,53.78-110.93,12.08-241.11-49-301.5-154.92l50.73-22.36C205.87,629.87,228.1,641.49,354.34,655.55Z"/><path class="cls-1" d="M447.77,0h3c.37.06.74.14,1.11.17,3.42.28,6.86.47,10.28.84a81.62,81.62,0,0,1,16.26,3.6,96.29,96.29,0,0,1,67,88.09c0,.65.15,1.29.22,1.94V98c-.14,1.83-.3,3.67-.41,5.51A88.13,88.13,0,0,1,543,118.08a93.56,93.56,0,0,1-20,40c-17.82,20.9-40.52,32.29-67.91,34.29a89.74,89.74,0,0,1-15.2-.3A91.41,91.41,0,0,1,423.16,189a96.39,96.39,0,0,1-69.94-86.72,93.75,93.75,0,0,1,.5-17.16,91.46,91.46,0,0,1,3.74-17.57,95.18,95.18,0,0,1,39.41-51.85A93.62,93.62,0,0,1,445.54.22C446.29.19,447,.08,447.77,0ZM396.12,43.62c.16,2,.3,3.85.47,5.71.29,3.27.59,6.54.88,9.81.28,3.09.55,6.17.82,9.26s.59,6.35.87,9.53.55,6.29.83,9.44.58,6.35.87,9.53.54,6.29.82,9.44.59,6.29.87,9.44.52,6.29.81,9.44c.41,4.51.84,9,1.25,13.54.38,4.12.78,8.23,1.09,12.34a1.25,1.25,0,0,0,1.11,1.32q20.83,5.75,41.67,11.52a2.85,2.85,0,0,0,1.45,0q7.59-2.06,15.18-4.17l26.65-7.37c.66-.18,1.05-.4,1.09-1.23.11-2.18.37-4.36.57-6.54.29-3.24.6-6.48.89-9.72.28-3.08.53-6.17.8-9.25l.9-9.91c.27-3,.53-6,.8-9.07.29-3.3.6-6.6.89-9.9.27-3,.53-6,.8-9.07.29-3.24.6-6.48.89-9.72.28-3.08.53-6.17.8-9.25.35-3.86.72-7.72,1.08-11.59q.45-5,.89-10c.11-1.17.17-2.34.26-3.56Z"/><path class="cls-1" d="M420.26,112.32h2.22c3.26,0,6.52,0,9.78,0,.77,0,1.14.11,1.21,1,.2,3.09.56,6.17.82,9.25a1,1,0,0,0,.88,1c4.5,1.19,9,2.43,13.49,3.61a2.81,2.81,0,0,0,1.38,0c4.41-1.17,8.81-2.38,13.22-3.56a1.17,1.17,0,0,0,1-1.18c.19-2.43.43-4.86.66-7.29l.69-7.66c0-.19,0-.38.05-.56.16-.84-.19-1.07-1-1.06q-14,0-27.94,0c-5.33,0-10.66,0-16,0-.79,0-1.11-.14-1.18-1.06-.28-3.87-.69-7.73-1-11.59-.28-3-.53-6.11-.8-9.16-.29-3.21-.6-6.42-.88-9.62-.25-2.8-.48-5.61-.72-8.48h66.28c-.1,1.41-.19,2.81-.32,4.2-.22,2.46-.49,4.91-.68,7.38-.11,1.4-.07,1.41-1.53,1.41H431.82c-1.53,0-1.47,0-1.31,1.52.32,3,.56,6,.83,9.06.08.87.1,1.76.25,2.61,0,.26.41.51.7.64a2.08,2.08,0,0,0,.83,0H480c-.13,1.66-.25,3.21-.38,4.75-.23,2.5-.47,5-.7,7.48q-.45,4.9-.89,9.81-.4,4.48-.8,9c-.26,3-.49,6-.81,9.07,0,.3-.56.69-.93.79-3.75,1.08-7.52,2.11-11.29,3.15-4.7,1.29-9.4,2.6-14.11,3.86a3.49,3.49,0,0,1-1.73,0c-8.44-2.3-16.87-4.65-25.31-7-.76-.21-1-.54-1.05-1.34-.3-3.86-.7-7.72-1-11.58C420.74,118,420.51,115.26,420.26,112.32Z"/><circle class="cls-1" cx="449.27" cy="98" r="80.07"/><path class="cls-2" d="M452.32,118.37c2.91,1,5.62,2.15,8.42,3a35.6,35.6,0,0,0,16.1,1.47,15,15,0,0,0,4.69-1.6,7.93,7.93,0,0,0,1.36-13,25.93,25.93,0,0,0-8.68-4.57c-5.21-1.87-10.33-3.91-14.85-7.2-7.19-5.24-10.95-12.11-9.69-21.17,1.22-8.7,6.48-14.35,14.22-17.89,6.54-3,13.5-3.58,20.59-3.13A45.86,45.86,0,0,1,500,57.81c.32.14.63.29.94.45.07,0,.12.13.26.3l-4.11,14.37c-2.81-.88-5.47-1.87-8.21-2.54a28.4,28.4,0,0,0-13.8-.38c-3,.75-5.52,2.25-6.41,5.43a6.2,6.2,0,0,0,2.7,7.37,65.93,65.93,0,0,0,9.34,4.72c4.36,1.85,8.83,3.41,12.84,6,7.72,4.94,11.62,11.92,11,21.12-.62,9.49-5.54,16.15-14.08,20.15-7.09,3.32-14.67,4-22.36,3.5a52.93,52.93,0,0,1-17.86-4.09c-1.75-.76-1.74-.78-1.26-2.68C450.14,127.15,451.23,122.78,452.32,118.37Z"/><path class="cls-2" d="M417.83,55.49h18.34c0,.51.07,1,.07,1.44q0,25.07,0,50.12a45,45,0,0,1-2.48,15.89c-3.29,8.8-9.89,13.44-18.92,14.91a48.57,48.57,0,0,1-19.06-.76c-1.91-.45-1.93-.47-1.67-2.37q.81-6,1.66-12c.05-.34.16-.67.21-.92,2.72.38,5.38.89,8.06,1.06a20,20,0,0,0,5.61-.38c5-1.1,7.11-4.79,7.87-9.43a40.74,40.74,0,0,0,.52-6.8c0-16.31-.13-32.62-.2-48.94Z"/><path class="cls-1" d="M53.65,403.77h1.7c.21,0,.42.08.63.1,1.94.16,3.89.26,5.82.48a46.06,46.06,0,0,1,9.21,2,53.83,53.83,0,0,1,26.73,18.81,53.24,53.24,0,0,1,11.19,31.07c0,.37.08.74.13,1.11v1.91c-.08,1-.17,2.08-.24,3.12a48.78,48.78,0,0,1-1.23,8.24A53,53,0,0,1,96.26,493.3,53.83,53.83,0,0,1,57.8,512.71a50.57,50.57,0,0,1-8.61-.17,51.77,51.77,0,0,1-9.48-1.77A54,54,0,0,1,9.83,489.51,53.52,53.52,0,0,1,.11,461.67,52.67,52.67,0,0,1,.39,452,51.26,51.26,0,0,1,2.51,442a53.88,53.88,0,0,1,22.32-29.36,52.9,52.9,0,0,1,27.56-8.74C52.81,403.88,53.23,403.82,53.65,403.77ZM24.4,428.48c.09,1.12.17,2.17.26,3.23l.51,5.55c.15,1.75.3,3.5.46,5.24s.33,3.6.49,5.4.31,3.57.47,5.35.33,3.59.49,5.39.31,3.57.47,5.35.33,3.56.49,5.34.3,3.57.46,5.35c.23,2.56.47,5.11.71,7.67.21,2.33.44,4.66.61,7a.71.71,0,0,0,.63.74l23.6,6.53a1.63,1.63,0,0,0,.82,0l8.6-2.36,15.09-4.18c.37-.1.59-.22.62-.69.06-1.24.2-2.47.32-3.71.16-1.83.34-3.67.5-5.5s.3-3.49.46-5.24.34-3.74.5-5.61c.16-1.71.3-3.42.46-5.13.16-1.87.34-3.74.5-5.61.16-1.71.3-3.43.45-5.14l.51-5.5.45-5.24c.2-2.19.41-4.37.61-6.56l.51-5.66c.06-.66.1-1.33.14-2Z"/><path class="cls-1" d="M38.07,467.37h6.79c.44,0,.65.06.69.59.11,1.75.31,3.49.46,5.24a.56.56,0,0,0,.5.56c2.55.68,5.09,1.37,7.64,2a1.58,1.58,0,0,0,.78,0l7.49-2a.67.67,0,0,0,.59-.67c.11-1.38.24-2.75.37-4.13l.39-4.34c0-.1,0-.21,0-.31.09-.48-.11-.6-.58-.6H38.35c-.45,0-.63-.07-.67-.59-.16-2.19-.39-4.38-.59-6.57-.16-1.73-.3-3.46-.45-5.18s-.34-3.64-.5-5.45c-.14-1.59-.27-3.18-.41-4.8H73.26c-.06.8-.11,1.58-.18,2.37-.12,1.4-.27,2.79-.39,4.18-.06.8,0,.8-.86.8H44.61c-.86,0-.82,0-.73.86.17,1.71.31,3.42.46,5.13,0,.5.06,1,.14,1.48,0,.15.24.29.4.36a1.21,1.21,0,0,0,.47,0H71.91c-.07.94-.13,1.81-.21,2.69-.13,1.41-.27,2.82-.4,4.23q-.26,2.78-.5,5.55l-.45,5.09c-.15,1.71-.28,3.42-.46,5.13,0,.17-.32.39-.53.45-2.12.61-4.26,1.19-6.39,1.78-2.66.73-5.32,1.47-8,2.19a2,2,0,0,1-1,0c-4.78-1.3-9.55-2.63-14.33-3.94a.69.69,0,0,1-.6-.76c-.17-2.19-.39-4.37-.59-6.56C38.34,470.61,38.21,469,38.07,467.37Z"/><circle class="cls-1" cx="54.5" cy="459.27" r="45.34"/><path class="cls-2" d="M56.66,419.36c.63.05,1.26.07,1.89.15,2.05.27,4.14.44,6.16.87A10.59,10.59,0,0,1,72.14,426a7.82,7.82,0,0,1,.85,3.67c0,5.91,0,11.81,0,17.72a9.07,9.07,0,0,1-4.66,8.26,9.85,9.85,0,0,1-5.07,1.24c-5.87,0-11.74,0-17.61,0a11.57,11.57,0,0,0-10,5.23,11.07,11.07,0,0,0-2,6.36q0,4,0,7.94v.47l-.21,0c-2.3,0-4.59,0-6.89-.08a8.32,8.32,0,0,1-6.66-3.68,16.38,16.38,0,0,1-2.49-5.75,34.58,34.58,0,0,1-1.23-10.9,30,30,0,0,1,2.07-10.27,10.88,10.88,0,0,1,10-7c2.7-.16,5.4-.07,8.1-.07H54.39v-2.34H36.58c-.65,0-.67,0-.66-.68,0-2.32,0-4.64,0-7a13.18,13.18,0,0,1,.41-3.42,6.39,6.39,0,0,1,4.24-4.42,28.78,28.78,0,0,1,6-1.43c1.9-.25,3.81-.38,5.71-.57a1.19,1.19,0,0,0,.26-.05ZM44,432.15a3.53,3.53,0,1,0-3.45-3.52A3.5,3.5,0,0,0,44,432.15Z"/><path class="cls-2" d="M75.3,439.25l.42,0H82a8.29,8.29,0,0,1,5.27,1.63,10.6,10.6,0,0,1,3.12,4.33,33.57,33.57,0,0,1,1.89,6.95,33.17,33.17,0,0,1,.63,8,28,28,0,0,1-4.1,13.41,7,7,0,0,1-6,3.36c-2.31.1-4.62,0-6.92,0H54.55v2.32H72.91v.47c0,2.32,0,4.64,0,7a7.16,7.16,0,0,1-1.83,4.9A12.19,12.19,0,0,1,66.18,495a32.63,32.63,0,0,1-9,2.15,29.54,29.54,0,0,1-14.42-2.22,15,15,0,0,1-4.63-3.07,7.18,7.18,0,0,1-2.19-5.48q0-8.74,0-17.49a9.34,9.34,0,0,1,1.1-4.61,8.89,8.89,0,0,1,7.07-4.84,46.09,46.09,0,0,1,5.39-.15c4.69,0,9.38.05,14.07,0a12,12,0,0,0,11.58-9.95,12.7,12.7,0,0,0,.14-1.85c0-2.57,0-5.15,0-7.72ZM61.44,487.52a3.47,3.47,0,1,0,3.5-3.48A3.44,3.44,0,0,0,61.44,487.52Z"/><path class="cls-1" d="M474.74,574.68h2.47a9.07,9.07,0,0,0,.91.14c2.81.23,5.63.38,8.44.69a67.14,67.14,0,0,1,13.36,3,79.12,79.12,0,0,1,55,72.36c0,.53.11,1.06.18,1.59v2.79c-.12,1.5-.25,3-.34,4.52A71.85,71.85,0,0,1,553,671.66a76.7,76.7,0,0,1-16.44,32.87c-14.64,17.16-33.28,26.53-55.78,28.17a80.45,80.45,0,0,1-26.24-2.82,78.92,78.92,0,0,1-57-85.32,76.28,76.28,0,0,1,3.07-14.43,78.21,78.21,0,0,1,32.38-42.59,76.86,76.86,0,0,1,40-12.68C473.52,574.84,474.13,574.74,474.74,574.68Zm-42.43,35.83c.13,1.62.25,3.16.38,4.69.24,2.68.49,5.37.73,8.06.23,2.53.45,5.06.68,7.6s.48,5.22.71,7.82.45,5.18.68,7.76.48,5.22.71,7.83.44,5.17.68,7.75.48,5.17.71,7.75.43,5.18.67,7.76c.33,3.71.69,7.42,1,11.13.3,3.37.63,6.75.89,10.13a1,1,0,0,0,.91,1.08l34.22,9.47a2.44,2.44,0,0,0,1.2,0c4.16-1.12,8.31-2.27,12.47-3.42q10.93-3,21.89-6.06c.54-.15.86-.33.89-1,.09-1.79.3-3.58.47-5.37.24-2.66.49-5.32.73-8s.44-5.07.66-7.6q.36-4.08.74-8.14c.22-2.48.43-5,.65-7.45.24-2.71.5-5.42.74-8.13.22-2.49.43-5,.65-7.45.24-2.66.5-5.32.73-8s.43-5.07.66-7.6c.29-3.18.59-6.35.88-9.52.25-2.74.5-5.47.74-8.21.09-1,.14-1.92.21-2.92Z"/><path class="cls-1" d="M452.14,666.93H454c2.68,0,5.35,0,8,0,.64,0,.94.09,1,.86.17,2.54.46,5.07.68,7.6a.81.81,0,0,0,.72.82c3.7,1,7.39,2,11.09,3a2.4,2.4,0,0,0,1.13,0c3.62-1,7.23-2,10.85-2.93a1,1,0,0,0,.86-1c.16-2,.36-4,.54-6l.57-6.29c0-.16,0-.31,0-.46.13-.69-.16-.88-.83-.87-7.65,0-15.3,0-22.95,0-4.38,0-8.76,0-13.14,0-.65,0-.91-.11-1-.87-.23-3.17-.56-6.34-.85-9.52-.23-2.5-.44-5-.66-7.52s-.49-5.27-.72-7.91c-.21-2.3-.4-4.6-.6-7h54.45c-.09,1.16-.16,2.31-.27,3.45-.18,2-.4,4-.56,6.06-.09,1.16-.05,1.16-1.25,1.16H461.63c-1.25,0-1.2,0-1.07,1.25.26,2.48.46,5,.68,7.44.06.72.08,1.44.2,2.15,0,.21.35.42.58.52a1.71,1.71,0,0,0,.68,0h38.53c-.11,1.36-.2,2.63-.31,3.9-.19,2-.39,4.1-.57,6.14-.25,2.69-.5,5.37-.74,8.06-.22,2.46-.44,4.91-.65,7.37s-.4,5-.67,7.45c0,.25-.46.56-.76.65-3.08.88-6.18,1.73-9.28,2.58-3.86,1.07-7.72,2.14-11.59,3.17a2.85,2.85,0,0,1-1.42,0l-20.79-5.72c-.62-.17-.81-.44-.86-1.1-.24-3.17-.57-6.34-.85-9.52C452.53,671.63,452.35,669.35,452.14,666.93Z"/><circle class="cls-1" cx="475.97" cy="655.18" r="65.77"/><path class="cls-2" d="M434.51,611.76h83c-.07,1-.12,1.86-.2,2.77q-.34,3.91-.7,7.81c-.28,3-.57,6-.84,9-.22,2.41-.41,4.82-.63,7.23s-.46,5.06-.69,7.59c-.21,2.36-.41,4.72-.62,7.08-.23,2.57-.47,5.15-.7,7.73l-.63,7.08c-.23,2.58-.47,5.15-.7,7.73-.21,2.41-.41,4.82-.62,7.23s-.47,5.06-.7,7.59c-.16,1.7-.35,3.4-.44,5.1,0,.65-.34.82-.85,1l-20.81,5.76c-3.95,1.09-7.9,2.19-11.86,3.26a2.28,2.28,0,0,1-1.13,0l-32.53-9a1,1,0,0,1-.87-1c-.24-3.21-.55-6.42-.85-9.63-.32-3.52-.66-7-1-10.57-.22-2.46-.41-4.92-.63-7.38s-.46-4.91-.68-7.36-.42-4.92-.64-7.38-.46-5-.68-7.44-.42-4.91-.64-7.37-.46-5-.68-7.44-.42-4.82-.64-7.23-.47-5.1-.69-7.66C434.75,614.76,434.64,613.3,434.51,611.76Zm18.85,53.63c.2,2.3.38,4.47.57,6.63.27,3,.58,6,.81,9.05.05.62.23.88.82,1,6.59,1.8,13.17,3.64,19.76,5.43a2.69,2.69,0,0,0,1.35,0c3.68-1,7.35-2,11-3,2.94-.81,5.89-1.62,8.82-2.46.29-.08.7-.38.72-.62.25-2.35.43-4.72.64-7.08s.41-4.67.62-7q.35-3.84.7-7.66c.17-2,.36-3.89.54-5.84.11-1.2.19-2.41.3-3.71H463.4a1.76,1.76,0,0,1-.65,0c-.22-.1-.51-.3-.55-.5-.11-.67-.13-1.36-.19-2-.21-2.36-.4-4.72-.64-7.08-.13-1.19-.18-1.19,1-1.19h37.53c1.14,0,1.11,0,1.19-1.1.16-1.92.37-3.84.54-5.76.09-1.09.16-2.17.25-3.27H450.13c.19,2.24.37,4.43.57,6.61.22,2.51.46,5,.68,7.52s.42,4.77.63,7.15c.28,3,.6,6,.82,9,.05.71.29.83.92.82,4.16,0,8.32,0,12.48,0,7.27,0,14.54,0,21.81,0,.65,0,.92.17.8.83,0,.14,0,.29,0,.43l-.54,6c-.18,1.89-.36,3.79-.51,5.69a.93.93,0,0,1-.82.92c-3.44.92-6.87,1.87-10.32,2.78a2.16,2.16,0,0,1-1.07,0c-3.52-.92-7-1.88-10.54-2.81a.77.77,0,0,1-.69-.78c-.2-2.41-.48-4.81-.64-7.22-.05-.73-.34-.82-.94-.82-2.55,0-5.09,0-7.64,0Z"/><path class="cls-1" d="M453.36,665.39h1.73c2.55,0,5.09,0,7.64,0,.6,0,.89.09.94.82.16,2.41.44,4.81.64,7.22a.77.77,0,0,0,.69.78c3.51.93,7,1.89,10.54,2.81a2.16,2.16,0,0,0,1.07,0c3.45-.91,6.88-1.86,10.32-2.78a.93.93,0,0,0,.82-.92c.15-1.9.33-3.8.51-5.69l.54-6c0-.14,0-.29,0-.43.12-.66-.15-.83-.8-.83-7.27,0-14.54,0-21.81,0-4.16,0-8.32,0-12.48,0-.63,0-.87-.11-.92-.82-.22-3-.54-6-.82-9-.21-2.38-.41-4.77-.63-7.15s-.46-5-.68-7.52c-.2-2.18-.38-4.37-.57-6.61h51.76c-.09,1.1-.16,2.18-.25,3.27-.17,1.92-.38,3.84-.54,5.76-.08,1.1-.05,1.1-1.19,1.1H462.38c-1.19,0-1.14,0-1,1.19.24,2.36.43,4.72.64,7.08.06.68.08,1.37.19,2,0,.2.33.4.55.5a1.76,1.76,0,0,0,.65,0H500c-.11,1.3-.19,2.51-.3,3.71-.18,2-.37,3.89-.54,5.84q-.36,3.82-.7,7.66c-.21,2.33-.42,4.67-.62,7s-.39,4.73-.64,7.08c0,.24-.43.54-.72.62-2.93.84-5.88,1.65-8.82,2.46-3.67,1-7.34,2-11,3a2.69,2.69,0,0,1-1.35,0c-6.59-1.79-13.17-3.63-19.76-5.43-.59-.16-.77-.42-.82-1-.23-3-.54-6-.81-9.05C453.74,669.86,453.56,667.69,453.36,665.39Z"/></g></g></svg>