<svg xmlns="http://www.w3.org/2000/svg" viewBox="0 0 1029.59 192.58"><defs><style>.cls-1{fill:#38bdf8;}.cls-2{fill:#fff;}.cls-3{fill:#0f172a;}</style></defs><g id="Layer_2" data-name="Layer 2"><g id="Layer_1-2" data-name="Layer 1"><path class="cls-1" d="M71.61,109.19a44.53,44.53,0,0,1-5.13,1.49,14.83,14.83,0,0,1-7.79-28.44,2.58,2.58,0,0,0,1.78-1.91A14.72,14.72,0,0,1,75.11,69.51a22.11,22.11,0,0,1,3.69.57,1.56,1.56,0,0,0,1.41-.28,17.48,17.48,0,0,1,23.36,1.88,1.59,1.59,0,0,0,1.54.51,14.88,14.88,0,0,1,16.83,13.25,1.94,1.94,0,0,0,.88,1.41,14.91,14.91,0,0,1,.94,22.75,14.09,14.09,0,0,1-6.22,3.4,1.35,1.35,0,0,0-1.14,1.24,14.9,14.9,0,0,1-27.66,4.48,1.6,1.6,0,0,0-1.69-1c-6.55.18-11.54-2.6-15.1-8A5.64,5.64,0,0,0,71.61,109.19Zm19.59,8c1.56,4.24,7.68,7.23,12.74,6.26s9.66-5.65,9.54-9.61c-.94,0-1.89.15-2.83.14a2.52,2.52,0,0,0-1.94.76,3.57,3.57,0,0,1-4.1.67,3.61,3.61,0,0,1-2.29-3.24,3.66,3.66,0,0,1,2-3.66,3.84,3.84,0,0,1,5.39,1.82c.18.38.19.91.82.86l3.3-.21a12.1,12.1,0,0,0-1.52-5.66l2.44-1.4c.46,1.15.93,2.14,1.26,3.18s.52,2.12.77,3.18c3.76-.46,7.72-4.55,8.72-8.91,1.18-5.09-1.31-9.94-3.63-11.44A32.28,32.28,0,0,1,120.76,93a19.26,19.26,0,0,1-1.66,2.85,3.15,3.15,0,0,0-.64,1.9,3.71,3.71,0,0,1-4.21,3.76,3.84,3.84,0,1,1,1.37-7.54c.38.1.75.24,1.1.35A12,12,0,0,0,117,79.87c-2.5-3.49-7.91-5.91-10.79-4.77a19.07,19.07,0,0,1,2.22,6.65,1.6,1.6,0,0,0,.71.87A3.91,3.91,0,0,1,110.79,87a3.87,3.87,0,0,1-7.34.18,3.75,3.75,0,0,1,1.5-4.46,1.11,1.11,0,0,0,.54-1.35,14.88,14.88,0,1,0-17.86,17,1.2,1.2,0,0,0,1.46-.53,3.77,3.77,0,0,1,5.28-.9,3.71,3.71,0,0,1,1.58,4,3.78,3.78,0,0,1-3.13,3,3.72,3.72,0,0,1-3.88-1.74,1.92,1.92,0,0,0-1.43-1,17.68,17.68,0,0,1-11-27.65c.21-.29.41-.59.7-1A6.93,6.93,0,0,0,76,72.31a23.08,23.08,0,0,0-3.73.19,12.14,12.14,0,0,0-8.38,17.57,1.23,1.23,0,0,0,1.37.81,4.37,4.37,0,0,1,1.83.2,3.79,3.79,0,0,1,2.25,4.78,3.94,3.94,0,0,1-4.74,2.41,3.74,3.74,0,0,1-2.54-4.53,2.4,2.4,0,0,0-.31-2A13.77,13.77,0,0,1,60,86a11.36,11.36,0,0,0-.24-1.28A5.8,5.8,0,0,0,59,85,12,12,0,0,0,51.8,96a12.2,12.2,0,0,0,7.88,11.44,12.07,12.07,0,0,0,9.94-.55c.59-.3.82-.62.56-1.3a7.9,7.9,0,0,1-.42-1.82c-.12-.88-.17-1.78-.26-2.66h2.69c0,.27.06.45.07.63a14.07,14.07,0,1,0,17.3-14.47,1.3,1.3,0,0,0-1.65.56,3.68,3.68,0,0,1-4.43,1.26,3.84,3.84,0,0,1,.32-7.28,3.71,3.71,0,0,1,4.3,1.63,2,2,0,0,0,1.45,1,16.83,16.83,0,0,1,2.87,32.22ZM66.83,94.59a1.1,1.1,0,0,0-1.14-1.09,1.17,1.17,0,0,0-1.06,1.07,1.14,1.14,0,0,0,1.1,1.14A1.08,1.08,0,0,0,66.83,94.59Zm48.9,3.11a1.07,1.07,0,1,0-1.08,1A1.12,1.12,0,0,0,115.73,97.7Zm-9.55,15.19a1.06,1.06,0,0,0-.05-2.12,1.08,1.08,0,0,0-1,1.09A1.06,1.06,0,0,0,106.18,112.89ZM84.9,86.56a1.06,1.06,0,0,0,0-2.12,1.06,1.06,0,1,0,0,2.12Zm23.24-.66a1.06,1.06,0,0,0-1.07-1,1.06,1.06,0,0,0,.05,2.12A1,1,0,0,0,108.14,85.9Zm-14.9,14.24a1.11,1.11,0,0,0-1.06-1.06,1.06,1.06,0,1,0,0,2.11A1.11,1.11,0,0,0,93.24,100.14Z"/><path class="cls-1" d="M145.47,147.22a72.57,72.57,0,0,0-1.64-96.33l8-12.26c32.76,29.23,35.75,87,2.53,120.42Z"/><path class="cls-1" d="M83.84,13.57c-.64,5-1.25,9.71-1.88,14.65C45.08,35.67,23.87,58.19,18.78,96a71.43,71.43,0,0,0-7.16.05,65.14,65.14,0,0,0-6.83,1.4C3.43,63.3,32.23,18,83.84,13.57Z"/><path class="cls-1" d="M93.11,172.26c1.27,5,2.43,9.57,3.58,14.14-29.15,3.17-63.36-12.88-79.23-40.71l13.33-5.88C54.1,165.52,59.94,168.57,93.11,172.26Z"/><path class="cls-1" d="M117.67,0h.79l.29.05c.9.07,1.8.12,2.7.22a20.74,20.74,0,0,1,4.27.94,25.3,25.3,0,0,1,17.6,23.15c0,.17,0,.34.06.51v.89c0,.48-.08,1-.11,1.45A23.48,23.48,0,0,1,142.7,31a24.64,24.64,0,0,1-5.26,10.51,25,25,0,0,1-17.85,9,25.1,25.1,0,0,1-8.39-.9A25.25,25.25,0,0,1,93,22.36a24.2,24.2,0,0,1,1-4.62A25,25,0,0,1,104.29,4.12,24.49,24.49,0,0,1,117.08.06C117.28.05,117.47,0,117.67,0ZM104.09,11.46c0,.52.08,1,.13,1.5.07.86.15,1.72.23,2.58l.21,2.43c.08.84.16,1.67.23,2.51s.14,1.65.22,2.48.15,1.67.23,2.5l.21,2.48c.08.83.16,1.66.23,2.48L106,32.9c.11,1.19.23,2.38.33,3.56s.21,2.16.29,3.25a.32.32,0,0,0,.29.34l10.95,3a.81.81,0,0,0,.38,0l4-1.1,7-1.94c.17,0,.27-.1.28-.32,0-.57.1-1.15.15-1.72l.24-2.55c.07-.81.13-1.62.21-2.43s.15-1.74.23-2.61l.21-2.38.24-2.6c.07-.8.13-1.59.21-2.39s.15-1.7.23-2.55l.21-2.43c.09-1,.19-2,.28-3.05L132,12.4c0-.31,0-.62.07-.94Z"/><path class="cls-1" d="M110.44,29.51h3.15c.2,0,.3,0,.32.28,0,.81.14,1.62.21,2.43a.26.26,0,0,0,.23.26l3.55,1a.73.73,0,0,0,.36,0l3.47-.94a.31.31,0,0,0,.28-.31c0-.64.11-1.28.17-1.91l.18-2s0-.1,0-.14c0-.22,0-.28-.27-.28H110.57c-.21,0-.3,0-.31-.27-.08-1-.19-2-.28-3.05l-.21-2.41c-.07-.84-.16-1.68-.23-2.52s-.13-1.48-.19-2.23h17.42c0,.37,0,.74-.09,1.1-.05.65-.12,1.29-.18,1.94,0,.37,0,.37-.4.37H113.47c-.4,0-.38,0-.34.4.08.79.15,1.59.22,2.38,0,.23,0,.46.06.69,0,.07.11.13.19.17a.81.81,0,0,0,.22,0h12.32c0,.44-.06.84-.1,1.25l-.18,2-.24,2.58c-.07.79-.14,1.57-.2,2.36s-.13,1.59-.22,2.38c0,.08-.15.18-.24.21L122,36l-3.71,1a.86.86,0,0,1-.45,0l-6.65-1.83c-.2,0-.26-.14-.28-.35-.08-1-.18-2-.27-3C110.56,31,110.5,30.29,110.44,29.51Z"/><circle class="cls-1" cx="118.06" cy="25.75" r="21.04"/><path class="cls-2" d="M118.86,31.1c.76.28,1.48.57,2.21.79a9.35,9.35,0,0,0,4.23.39,4.13,4.13,0,0,0,1.24-.42,2.08,2.08,0,0,0,.35-3.42,6.57,6.57,0,0,0-2.28-1.2,15.29,15.29,0,0,1-3.9-1.89,5.59,5.59,0,0,1-2.55-5.57,5.93,5.93,0,0,1,3.74-4.7,11,11,0,0,1,5.41-.82,12,12,0,0,1,4.09.93l.25.12s0,0,.07.08l-1.08,3.77c-.74-.23-1.44-.49-2.16-.66a7.44,7.44,0,0,0-3.63-.1,2.07,2.07,0,0,0-1.68,1.42,1.62,1.62,0,0,0,.71,1.94A16.09,16.09,0,0,0,126.33,23a23.05,23.05,0,0,1,3.38,1.57,5.8,5.8,0,0,1,2.89,5.56,6,6,0,0,1-3.7,5.29,11.83,11.83,0,0,1-5.88.92,13.88,13.88,0,0,1-4.69-1.08c-.46-.19-.45-.2-.33-.7C118.29,33.41,118.57,32.26,118.86,31.1Z"/><path class="cls-2" d="M109.8,14.58h4.82c0,.14,0,.26,0,.38q0,6.59,0,13.17a11.69,11.69,0,0,1-.65,4.18,5.9,5.9,0,0,1-5,3.91,12.45,12.45,0,0,1-5-.2c-.5-.11-.51-.12-.44-.62.14-1,.29-2.1.44-3.15,0-.09,0-.17,0-.24.72.1,1.42.23,2.12.28a5.16,5.16,0,0,0,1.47-.1,2.67,2.67,0,0,0,2.07-2.48,10.6,10.6,0,0,0,.14-1.78q0-6.43,0-12.86Z"/><path class="cls-1" d="M14.1,106.1h.45l.16,0,1.53.12a11.77,11.77,0,0,1,2.42.54,14.08,14.08,0,0,1,7,4.94,14,14,0,0,1,2.95,8.17c0,.09,0,.19,0,.29v.5c0,.27-.05.55-.06.82a13.11,13.11,0,0,1-.33,2.16,14,14,0,0,1-3,6,14.18,14.18,0,0,1-10.11,5.1,13.13,13.13,0,0,1-2.26,0,13.85,13.85,0,0,1-2.49-.47,14.2,14.2,0,0,1-7.86-5.59A14,14,0,0,1,0,121.32a14.23,14.23,0,0,1,.63-5.17,14.18,14.18,0,0,1,5.86-7.72,14,14,0,0,1,7.25-2.29Zm-7.69,6.49c0,.3,0,.58.07.85,0,.49.09,1,.13,1.46s.08.92.13,1.38l.12,1.42c0,.47.09.94.13,1.4s.08,1,.13,1.42l.12,1.41c0,.47.09.93.13,1.4l.12,1.41c.06.67.12,1.34.19,2s.11,1.23.16,1.84a.18.18,0,0,0,.16.19l6.2,1.72a.41.41,0,0,0,.22,0l2.26-.62,4-1.1a.18.18,0,0,0,.17-.18c0-.32.05-.65.08-1,0-.48.09-1,.13-1.45l.12-1.38c.05-.49.09-1,.14-1.47s.07-.9.11-1.35.09-1,.14-1.47l.12-1.35c0-.48.09-1,.13-1.45l.12-1.37c.05-.58.11-1.15.16-1.73s.09-1,.13-1.49c0-.17,0-.34,0-.53Z"/><path class="cls-1" d="M10,122.82h1.79c.11,0,.17,0,.18.15,0,.46.08.92.12,1.38a.14.14,0,0,0,.13.14c.67.18,1.34.37,2,.54a.5.5,0,0,0,.21,0l2-.53c.1,0,.15-.07.16-.18l.09-1.08c0-.38.07-.76.11-1.14a.28.28,0,0,1,0-.09c0-.12,0-.15-.16-.15H10.08c-.12,0-.17,0-.18-.16,0-.57-.1-1.15-.15-1.72l-.12-1.36c-.05-.48-.09-1-.13-1.44s-.07-.83-.11-1.26h9.86c0,.21,0,.42-.05.63,0,.36-.07.73-.1,1.09,0,.21,0,.21-.22.21H11.72c-.22,0-.21,0-.19.23.05.45.08.9.12,1.35,0,.13,0,.26,0,.39s.06.07.1.09a.29.29,0,0,0,.13,0h7l-.06.7c0,.37-.07.74-.1,1.12s-.09,1-.14,1.46-.08.89-.11,1.33l-.12,1.35s-.09.1-.14.12l-1.68.47-2.1.57a.57.57,0,0,1-.26,0l-3.77-1c-.11,0-.14-.08-.15-.2,0-.57-.11-1.15-.16-1.72C10.08,123.67,10,123.26,10,122.82Z"/><circle class="cls-1" cx="14.32" cy="120.69" r="11.91"/><path class="cls-2" d="M14.89,110.2l.49,0c.55.07,1.09.11,1.62.23A2.78,2.78,0,0,1,19,112a2.14,2.14,0,0,1,.22,1c0,1.56,0,3.11,0,4.66A2.38,2.38,0,0,1,18,119.74a2.58,2.58,0,0,1-1.33.33H12a3,3,0,0,0-2.64,1.37,3,3,0,0,0-.52,1.67v2.21H8.77c-.6,0-1.2,0-1.81,0a2.19,2.19,0,0,1-1.75-1,4.33,4.33,0,0,1-.65-1.51A8.89,8.89,0,0,1,4.24,120a8,8,0,0,1,.54-2.7,2.85,2.85,0,0,1,2.63-1.83c.71,0,1.42,0,2.13,0h4.75v-.62H9.61c-.17,0-.17,0-.17-.17,0-.61,0-1.22,0-1.83a3,3,0,0,1,.11-.9,1.64,1.64,0,0,1,1.11-1.16,8,8,0,0,1,1.59-.38c.5-.06,1-.1,1.5-.15h1.13Zm-3.33,3.36a.93.93,0,1,0-.9-.92A.92.92,0,0,0,11.56,113.56Z"/><path class="cls-2" d="M19.79,115.43h1.77a2.16,2.16,0,0,1,1.38.43,2.74,2.74,0,0,1,.82,1.14,10.42,10.42,0,0,1,.66,3.93,7.32,7.32,0,0,1-1.07,3.52,1.84,1.84,0,0,1-1.57.88c-.61,0-1.22,0-1.82,0H14.34v.6h4.82v.13c0,.61,0,1.22,0,1.83a1.89,1.89,0,0,1-.48,1.28,3.07,3.07,0,0,1-1.29.88,8.46,8.46,0,0,1-2.37.57,7.82,7.82,0,0,1-3.79-.58,4,4,0,0,1-1.22-.81,1.9,1.9,0,0,1-.57-1.44v-4.6A2.54,2.54,0,0,1,9.73,122a2.35,2.35,0,0,1,1.86-1.27,11.23,11.23,0,0,1,1.42,0H16.7a3.15,3.15,0,0,0,3.05-2.62,3.87,3.87,0,0,0,0-.48c0-.68,0-1.36,0-2Zm-3.65,12.68a.92.92,0,1,0,1.83,0,.92.92,0,0,0-.91-.92A.9.9,0,0,0,16.14,128.11Z"/><path class="cls-1" d="M124.75,151h.65l.24,0c.74.06,1.48.1,2.22.18a17.63,17.63,0,0,1,3.51.78,20.56,20.56,0,0,1,10.19,7.17A20.34,20.34,0,0,1,145.82,171c0,.14,0,.28.05.42v.73l-.09,1.19a18.45,18.45,0,0,1-.47,3.14,20.17,20.17,0,0,1-4.32,8.64,20.49,20.49,0,0,1-14.66,7.4,18.94,18.94,0,0,1-3.28-.07,20.14,20.14,0,0,1-3.61-.67,20.82,20.82,0,0,1-15.1-18.72,20.81,20.81,0,0,1,.11-3.7,19.53,19.53,0,0,1,.81-3.79,20.61,20.61,0,0,1,8.5-11.2,20.28,20.28,0,0,1,10.51-3.33A3.91,3.91,0,0,0,124.75,151Zm-11.15,9.42c0,.43.07.83.1,1.23.07.71.13,1.41.19,2.12l.18,2c.06.68.13,1.37.19,2.05l.18,2,.18,2.06c.07.68.12,1.36.18,2s.13,1.35.19,2,.11,1.36.17,2c.09,1,.19,2,.28,2.93s.16,1.77.23,2.66a.26.26,0,0,0,.24.28l9,2.49a.58.58,0,0,0,.32,0q1.64-.43,3.27-.9l5.76-1.59c.14,0,.22-.08.23-.26,0-.47.08-.94.12-1.41.07-.7.13-1.4.2-2.1s.11-1.33.17-2,.13-1.43.19-2.14.12-1.3.17-1.95.13-1.43.2-2.14.11-1.31.17-2,.13-1.4.19-2.1l.18-2c.07-.84.15-1.67.23-2.51s.13-1.43.19-2.15l.06-.77Z"/><path class="cls-1" d="M118.81,175.26h2.59c.17,0,.25,0,.26.23,0,.67.12,1.33.18,2a.21.21,0,0,0,.19.21l2.91.78a.61.61,0,0,0,.3,0l2.85-.76a.26.26,0,0,0,.23-.26c0-.53.09-1.05.14-1.57l.15-1.66a.49.49,0,0,1,0-.12c0-.18,0-.23-.22-.23h-9.48c-.17,0-.24,0-.26-.23-.06-.83-.14-1.67-.22-2.5-.06-.66-.11-1.32-.17-2s-.13-1.38-.19-2.08-.11-1.2-.16-1.82h14.31c0,.3,0,.6-.07.9,0,.53-.11,1.06-.15,1.59,0,.31,0,.31-.33.31H121.31c-.33,0-.32,0-.28.33.06.65.12,1.3.17,2,0,.19,0,.38.06.57s.09.11.15.13.12,0,.18,0h10.12c0,.36-.05.69-.08,1l-.15,1.62c-.06.7-.13,1.41-.19,2.12s-.12,1.29-.17,1.93-.11,1.31-.18,2a.32.32,0,0,1-.2.17l-2.44.68-3,.83a.81.81,0,0,1-.38,0l-5.46-1.5a.28.28,0,0,1-.23-.29c-.06-.83-.15-1.67-.22-2.5C118.92,176.49,118.87,175.89,118.81,175.26Z"/><circle class="cls-1" cx="125.07" cy="172.17" r="17.28"/><path class="cls-2" d="M114.18,160.76H136c0,.25,0,.49-.05.73-.06.68-.12,1.36-.19,2s-.14,1.58-.22,2.38c-.05.63-.1,1.26-.16,1.89l-.18,2c-.06.62-.11,1.24-.17,1.86l-.18,2c-.06.62-.11,1.24-.16,1.86s-.13,1.36-.19,2-.11,1.27-.16,1.9-.12,1.33-.19,2c0,.44-.09.89-.11,1.34,0,.17-.09.21-.23.25l-5.46,1.51-3.12.86a.61.61,0,0,1-.3,0l-8.55-2.36a.26.26,0,0,1-.22-.27c-.07-.85-.15-1.69-.23-2.53s-.17-1.85-.25-2.78c-.06-.65-.11-1.29-.17-1.94l-.18-1.93c-.06-.65-.11-1.3-.17-1.94l-.18-2c0-.64-.11-1.29-.16-1.93l-.18-2c-.06-.63-.11-1.27-.17-1.9l-.18-2C114.24,161.55,114.21,161.16,114.18,160.76Zm4.95,14.09c.06.61.1,1.18.15,1.74.07.8.16,1.59.22,2.38a.26.26,0,0,0,.21.28l5.2,1.42a.69.69,0,0,0,.35,0c1-.25,1.93-.52,2.9-.79l2.31-.64c.08,0,.19-.1.19-.17.07-.61.12-1.24.17-1.86s.11-1.22.16-1.84.12-1.34.19-2c0-.51.09-1,.14-1.53,0-.32.05-.64.08-1h-9.63a.49.49,0,0,1-.17,0c-.06,0-.13-.08-.14-.13a4.93,4.93,0,0,1,0-.54c-.06-.62-.11-1.24-.17-1.86,0-.31,0-.31.27-.31h9.86c.3,0,.29,0,.31-.29,0-.51.1-1,.14-1.51,0-.29,0-.58.07-.86h-13.6c0,.58.09,1.16.14,1.73s.13,1.32.19,2,.1,1.25.16,1.88c.07.79.16,1.58.21,2.38,0,.18.08.21.25.21h9c.17,0,.24,0,.21.21a.49.49,0,0,0,0,.12l-.15,1.57c0,.5-.09,1-.13,1.5a.25.25,0,0,1-.21.24l-2.72.73a.66.66,0,0,1-.28,0l-2.77-.74A.21.21,0,0,1,122,177c-.05-.63-.12-1.26-.17-1.9,0-.19-.08-.21-.24-.21-.67,0-1.34,0-2,0Z"/><path class="cls-1" d="M119.13,174.85h.46c.67,0,1.34,0,2,0,.16,0,.23,0,.24.21,0,.64.12,1.27.17,1.9a.21.21,0,0,0,.18.21l2.77.74a.66.66,0,0,0,.28,0l2.72-.73a.25.25,0,0,0,.21-.24c0-.5.09-1,.13-1.5l.15-1.57a.49.49,0,0,1,0-.12c0-.17,0-.21-.21-.21h-9c-.17,0-.23,0-.25-.21,0-.8-.14-1.59-.21-2.38-.06-.63-.11-1.25-.16-1.88s-.13-1.32-.19-2-.09-1.15-.14-1.73h13.6c0,.28,0,.57-.07.86,0,.5-.1,1-.14,1.51,0,.29,0,.29-.31.29h-9.86c-.32,0-.3,0-.27.31.06.62.11,1.24.17,1.86a4.93,4.93,0,0,0,0,.54c0,.05.08.1.14.13a.49.49,0,0,0,.17,0h9.63c0,.34-.05.66-.08,1,0,.51-.1,1-.14,1.53-.07.67-.13,1.34-.19,2s-.11,1.23-.16,1.84-.1,1.25-.17,1.86c0,.07-.11.15-.19.17l-2.31.64c-1,.27-1.93.54-2.9.79a.69.69,0,0,1-.35,0l-5.2-1.42a.26.26,0,0,1-.21-.28c-.06-.79-.15-1.58-.22-2.38C119.23,176,119.19,175.46,119.13,174.85Z"/><path class="cls-3" d="M229.27,64.16h11.9l21.16,59.18H251.22l-5-15.3h-22l-5,15.3H208.11Zm-2.42,35.72h16.7L235.34,74.7h-.24Z"/><path class="cls-3" d="M270.27,111.57V87.74h-6.16V79.86h6.16v-11h10.37v11h8.08v7.88h-8.08v23c0,4.26,1.89,5.62,5.62,5.62,1,0,1.76-.13,2.46-.17v7.67a36.08,36.08,0,0,1-5,.37C274.57,124.2,270.27,120.51,270.27,111.57Z"/><path class="cls-3" d="M295.59,101.6v-.08c0-14,8.37-22.56,21-22.56s21.08,8.53,21.08,22.56v.08c0,14.11-8.28,22.6-21,22.6S295.59,115.67,295.59,101.6Zm31.66,0v-.08c0-9.06-4.18-14.27-10.66-14.27S306,92.5,306,101.52v.08c0,9.15,4.14,14.36,10.66,14.36S327.25,110.71,327.25,101.6Z"/><path class="cls-3" d="M346.75,79.86H357v7h.2A12.45,12.45,0,0,1,369.23,79c6.07,0,10.46,3.2,12.06,8.78h.25c2.09-5.42,7.26-8.78,13.53-8.78,8.57,0,14.19,5.83,14.19,14.52v29.86H399.05V96c0-5.37-2.79-8.45-7.79-8.45S383,91.23,383,96.48v26.86h-9.92V95.49c0-4.88-3-7.92-7.72-7.92-4.92,0-8.36,3.86-8.36,9.15v26.62H346.75Z"/><path class="cls-3" d="M419.66,68.05a5.68,5.68,0,1,1,5.7,5.58A5.62,5.62,0,0,1,419.66,68.05Zm.57,11.81h10.21v43.48H420.23Z"/><path class="cls-3" d="M439.81,101.56v0C439.81,87.66,448,79,460.69,79c11.44,0,18.58,7.26,19.2,16l0,.32h-9.64l-.08-.36a9.07,9.07,0,0,0-9.4-7.63c-6.44,0-10.58,5.45-10.58,14.35v0c0,9.07,4.19,14.32,10.62,14.32a9,9,0,0,0,9.4-7.63l.08-.37H480l0,.29c-.78,9.06-8.12,16-19.12,16C447.89,124.2,439.81,115.51,439.81,101.56Z"/><path class="cls-3" d="M508.92,64.16h22.81c12,0,20.13,7.91,20.13,19.76V84c0,11.81-8.16,19.77-20.13,19.77H519.5v19.56H508.92Zm10.58,8.65V95.24h9.6c7.59,0,12-4.1,12-11.19V84c0-7.1-4.43-11.16-12-11.16Z"/><path class="cls-3" d="M561.07,79.86h10.21v7.51h.21c1.35-5.25,5-8.41,10-8.41a13.43,13.43,0,0,1,3.24.41V88.6a12.92,12.92,0,0,0-4.14-.57c-5.78,0-9.27,3.65-9.27,10.09v25.22H561.07Z"/><path class="cls-3" d="M589,101.6v-.08c0-14,8.37-22.56,21-22.56s21.08,8.53,21.08,22.56v.08c0,14.11-8.28,22.6-21,22.6S589,115.67,589,101.6Zm31.66,0v-.08c0-9.06-4.18-14.27-10.66-14.27s-10.58,5.25-10.58,14.27v.08c0,9.15,4.14,14.36,10.66,14.36S620.68,110.71,620.68,101.6Z"/><path class="cls-3" d="M639.77,126.5l-.08-.37h10l.12.33c1.11,2.5,4.6,4.39,9.93,4.39,6.64,0,10.29-3.53,10.29-9.07v-6.27h-.2c-2.42,4.63-7.34,7.58-13.58,7.58-10.91,0-17.92-8.36-17.92-21.9v0c0-13.74,7.1-22.19,18.09-22.19a14.46,14.46,0,0,1,13.37,8.29h.24V79.86H680.3v42.25c0,9.84-7.92,16.45-20.51,16.45C648.26,138.56,641,133.31,639.77,126.5Zm30.36-25.1v0c0-8.41-4.31-13.79-10.63-13.79-6.56,0-10.7,5.3-10.7,13.75v0c0,8.57,4.14,13.86,10.7,13.86C665.86,115.22,670.13,109.85,670.13,101.4Z"/><path class="cls-3" d="M691.18,79.86H701.4v7.51h.2c1.36-5.25,5-8.41,10-8.41a13.57,13.57,0,0,1,3.24.41V88.6a12.92,12.92,0,0,0-4.14-.57c-5.79,0-9.27,3.65-9.27,10.09v25.22H691.18Z"/><path class="cls-3" d="M719.91,111v-.08c0-7.71,6-12.34,16.53-13l11.36-.7v-3c0-4.39-2.87-7.06-8-7.06-4.84,0-7.8,2.26-8.45,5.46l-.09.37h-9.47l0-.49c.62-7.72,7.3-13.5,18.33-13.5C751,79,758,84.7,758,93.44v29.9H747.8v-6.68h-.24a14.6,14.6,0,0,1-13.09,7.42C725.78,124.08,719.91,118.71,719.91,111Zm17.6,5.34c5.86,0,10.29-3.9,10.29-9.07v-3.28l-9.92.62c-5,.32-7.79,2.5-7.79,5.94v0C730.09,114.11,733,116.29,737.51,116.29Z"/><path class="cls-3" d="M768.74,79.86H779v7h.21C781,82.08,785.47,79,791.22,79c6.07,0,10.46,3.2,12,8.78h.25c2.09-5.42,7.26-8.78,13.54-8.78,8.57,0,14.19,5.83,14.19,14.52v29.86H821V96c0-5.37-2.78-8.45-7.79-8.45S805,91.23,805,96.48v26.86H795V95.49c0-4.88-2.95-7.92-7.71-7.92-4.92,0-8.37,3.86-8.37,9.15v26.62H768.74Z"/><path class="cls-3" d="M841.93,79.86h10.21v7h.21c1.84-4.76,6.31-7.88,12.06-7.88,6.07,0,10.46,3.2,12.06,8.78h.24C878.8,82.32,884,79,890.25,79c8.57,0,14.19,5.83,14.19,14.52v29.86H894.23V96c0-5.37-2.79-8.45-7.8-8.45s-8.28,3.66-8.28,8.91v26.86h-9.93V95.49c0-4.88-3-7.92-7.71-7.92-4.92,0-8.37,3.86-8.37,9.15v26.62H841.93Z"/><path class="cls-3" d="M913.31,101.73v0c0-13.69,8-22.72,20.43-22.72s20.14,8.74,20.14,21.86v3.28H923.45c.16,7.63,4.34,12.15,11,12.15,5.08,0,8.41-2.71,9.39-5.62l.08-.29h9.56l-.12.45c-1.36,6.69-7.76,13.41-19.12,13.41C921.19,124.2,913.31,115.55,913.31,101.73Zm10.26-4.43H944C943.22,90.41,939.28,87,933.86,87S924.39,90.61,923.57,97.3Z"/><path class="cls-3" d="M963,79.86h10.22v7.51h.2c1.35-5.25,5-8.41,10-8.41a13.57,13.57,0,0,1,3.24.41V88.6a12.94,12.94,0,0,0-4.15-.57c-5.78,0-9.26,3.65-9.26,10.09v25.22H963Z"/><path class="cls-3" d="M992.51,110.71l0-.37h10l.08.37c.78,3.73,3.61,6,8.78,6,5,0,8-2,8-5.21v0c0-2.63-1.52-4.11-6-5.13l-7.22-1.6c-8.33-1.85-12.51-5.91-12.51-12.35v0c0-8,6.93-13.33,17.43-13.33,10.83,0,17.14,6,17.51,13.45l0,.46h-9.51l0-.33c-.45-3.49-3.24-6-8-6-4.51,0-7.34,2.09-7.34,5.29v0c0,2.5,1.68,4.14,6.19,5.17l7.26,1.6c9,2,12.47,5.54,12.47,11.85v0c0,8.21-7.59,13.7-18.25,13.7C999.93,124.2,993.41,118.79,992.51,110.71Z"/></g></g></svg>